<?xml version="1.0" standalone="no"?>
<!DOCTYPE svg PUBLIC "-//W3C//DTD SVG 1.1//EN" "http://www.w3.org/Graphics/SVG/1.1/DTD/svg11.dtd" >
<svg>
<metadata>
Created by FontForge 20090914 at Mon Apr 27 11:41:15 2020
 By www-data
Copyright &#194;&#169; 2016 Miguel Reyes under exclusive license to Schwartzco Inc. / Commercial Type. All rights reserved.
</metadata>
<defs>
<font id="Canela-Bold" horiz-adv-x="399" >
  <font-face 
    font-family="Canela"
    font-weight="700"
    font-stretch="normal"
    units-per-em="1000"
    panose-1="0 0 0 0 0 0 0 0 0 0"
    ascent="775"
    descent="-225"
    x-height="486.999"
    cap-height="732"
    bbox="-138 -260 1220 1146"
    underline-thickness="20"
    underline-position="-60"
    unicode-range="U+0020-U+FB04"
  />
<missing-glyph horiz-adv-x="161" 
 />
    <glyph glyph-name="f_b" unicode="fb" horiz-adv-x="933" 
d="M634 -15c-71.333 0 -129.002 17.001 -173.002 51.001l-60 -39h-10v568c0 57.333 -8.5 104.166 -25.5 140.499s-35.833 54.5 -56.5 54.5c-20 0 -36.333 -16.333 -49 -49s-19 -75.667 -19 -129v-95h114v-22h-114v-308c0 -60 10.333 -111.667 31 -155v-2h-223v2
c20.667 43.333 31 95 31 155v308h-63v22h63v25c0 78.667 23.833 142.667 71.5 192s106.167 74 175.5 74c38.667 0 78.334 -9.33301 119.001 -28l106 29v-355h3c14.667 22 35.667 40.667 63 56s58.333 23 93 23c58.667 0 105.834 -23 141.501 -69s53.5 -106.333 53.5 -181
c0 -80 -23.167 -144.667 -69.5 -194s-113.833 -74 -202.5 -74zM644.998 3.00098c62 0 93.002 73.001 93.002 219.001c0 69.333 -9.33301 120 -28 152s-47.334 48 -86.001 48c-28 0 -52 -7.33301 -72 -22v-241c0 -52.667 9.16699 -91.834 27.5 -117.501
s40.166 -38.5 65.499 -38.5z" />
    <glyph glyph-name="f_f_b" unicode="ffb" horiz-adv-x="1244" 
d="M945 -15c-71.333 0 -129 17 -173 51l-60 -39h-10v568c0 57.333 -8.5 104.166 -25.5 140.499s-35.833 54.5 -56.5 54.5s-37.167 -16.167 -49.5 -48.5s-18.5 -75.5 -18.5 -129.5v-95h114v-22h-114v-308c0 -60 10.333 -111.667 31 -155v-2h-223v2
c20.667 43.333 31 95 31 155v308h-150v-308c0 -60 10.333 -111.667 31 -155v-2h-223v2c20.667 43.333 31 95 31 155v308h-63v22h63v19c0 74.667 21.167 135.334 63.5 182.001s95.5 70 159.5 70c26.667 0 52.667 -3.66699 78 -11l11 -119l-6 -2l-20.5 30l-22 32
c-5.66699 8 -12 16.5 -19 25.5s-13.5 15.667 -19.5 20s-11.333 6.5 -16 6.5c-12.667 0 -23.834 -15.333 -33.501 -46s-14.5 -70 -14.5 -118v-89h150v25c0 78.667 23.833 142.667 71.5 192s106.167 74 175.5 74c37.333 0 77 -9.33301 119 -28l106 29v-355h3
c14.667 22 35.667 40.667 63 56s58.333 23 93 23c58.667 0 105.834 -23 141.501 -69s53.5 -106.333 53.5 -181c0 -80 -23.167 -144.667 -69.5 -194s-113.833 -74 -202.5 -74zM956 3c62 0 93.002 73.001 93.002 219.001c0 69.333 -9.33301 120 -28 152s-47.334 48 -86.001 48
c-28 0 -52 -7.33301 -72 -22v-241c0 -52.667 9.16699 -91.834 27.5 -117.501s40.166 -38.5 65.499 -38.5z" />
    <glyph glyph-name="f_f_h" unicode="ffh" horiz-adv-x="1243" 
d="M49 2c20.667 43.333 31.001 94.999 31.001 154.999v308h-63v22h63v19c0 74.667 21.167 135.334 63.5 182.001s95.5 70 159.5 70c26.667 0 52.667 -3.66699 78 -11l11 -119l-6 -2l-20.5 30l-22 32c-5.66699 8 -12 16.5 -19 25.5s-13.5 15.667 -19.5 20
s-11.333 6.5 -16 6.5c-12.667 0 -23.834 -15.333 -33.501 -46s-14.5 -70 -14.5 -118v-89h150v25c0 78.667 23.833 142.667 71.5 192s106.167 74 175.5 74c41.333 0 81.666 -9.33301 120.999 -28l104 29v-372c40 64 96 96 168 96c44.667 0 80.834 -12.667 108.501 -38
s41.5 -59 41.5 -101v-188c0 -66.667 8 -124.667 24 -174v-2h-209v2c16 48 24 105.667 24 173v179c0 22.667 -5.66699 40.667 -17 54s-28.333 20 -51 20c-35.333 0 -65 -16.333 -89 -49v-222c0 -54 8 -105.667 24 -155v-2h-209v2c16 46.667 24 98.334 24 155.001v408
c0 57.333 -8.5 104.166 -25.5 140.499s-35.833 54.5 -56.5 54.5s-37.167 -16.167 -49.5 -48.5s-18.5 -75.5 -18.5 -129.5v-95h114v-22h-114v-308c0 -60 10.333 -111.667 31 -155v-2h-223v2c20.667 43.333 31 95 31 155v308h-150v-308c0 -60 10.333 -111.667 31 -155v-2h-223
v2z" />
    <glyph glyph-name="f_f_j" unicode="ffj" horiz-adv-x="914" 
d="M851 47c-1.33301 -83.333 -23.166 -146.167 -65.499 -188.5s-99.833 -66.833 -172.5 -73.5l-2 7c56.667 28 85 85.667 85 173v329c0 44 -3.5 78.667 -10.5 104s-19.167 47.666 -36.5 66.999h-97v-308c0 -60 10.333 -111.667 31 -155v-2h-223v2
c20.667 43.333 31 95 31 155v308h-150v-308c0 -60 10.333 -111.667 31 -155v-2h-223v2c20.667 43.333 31 95 31 155v308h-63v22h63v19c0 74.667 21.167 135.334 63.5 182.001s95.5 70 159.5 70c26.667 0 52.667 -3.66699 78 -11l11 -119l-6 -2l-20.5 30l-22 32
c-5.66699 8 -12 16.5 -19 25.5s-13.5 15.667 -19.5 20s-11.333 6.5 -16 6.5c-12.667 0 -23.834 -15.333 -33.501 -46s-14.5 -70 -14.5 -118v-89h150v25c0 78.667 24 142.667 72 192s108.333 74 181 74c32.667 0 73 -4.66699 121 -14l14 -166l-6 -2l-51.5 74
c-13 18 -30.167 37.5 -51.5 58.5s-39.333 31.5 -54 31.5c-18 0 -33.167 -16.5 -45.5 -49.5s-18.5 -75.833 -18.5 -128.5v-95h132c72.667 0 130 7 172 21z" />
    <glyph glyph-name="f_f_k" unicode="ffk" horiz-adv-x="1208" 
d="M49 2c20.667 43.333 31.002 94.998 31.002 154.998v308h-63v22h63v19c0 74.667 21.167 135.334 63.5 182.001s95.5 70 159.5 70c26.667 0 52.667 -3.66699 78 -11l11 -119l-6 -2l-20.5 30l-22 32c-5.66699 8 -12 16.5 -19 25.5s-13.5 15.667 -19.5 20
s-11.333 6.5 -16 6.5c-12.667 0 -23.834 -15.333 -33.501 -46s-14.5 -70 -14.5 -118v-89h150v25c0 78.667 23.833 142.667 71.5 192s106.167 74 175.5 74c41.333 0 81.666 -9.33301 120.999 -28l104 29v-524l120 109c14.667 13.333 24.5 28 29.5 44s6.16699 30.333 3.5 43
s-7.33398 24 -14.001 34v2h176v-2c-13.333 -6 -25.833 -12.167 -37.5 -18.5s-23.5 -14.166 -35.5 -23.499l-27.5 -21.5c-6.33301 -5 -16.333 -13.667 -30 -26s-22.5 -20.166 -26.5 -23.499l-32 -31l138 -234c2.66699 -4 6.33398 -10 11.001 -18s8.16699 -13.833 10.5 -17.5
l9.5 -15.5c4 -6.66699 7.5 -11.834 10.5 -15.501l10.5 -13c4 -5 8.16699 -9.5 12.5 -13.5l13.5 -12v-2h-196l-146 255v-98c0 -54 8 -105.667 24 -155v-2h-209v2c16 46.667 24 98.334 24 155.001v408c0 57.333 -8.5 104.166 -25.5 140.499s-35.833 54.5 -56.5 54.5
s-37.167 -16.167 -49.5 -48.5s-18.5 -75.5 -18.5 -129.5v-95h114v-22h-114v-308c0 -60 10.333 -111.667 31 -155v-2h-223v2c20.667 43.333 31 95 31 155v308h-150v-308c0 -60 10.333 -111.667 31 -155v-2h-223v2z" />
    <glyph glyph-name="f_h" unicode="fh" horiz-adv-x="932" 
d="M49 0l0.00195312 2c20.667 43.333 31 95 31 155v308h-63v22h63v25c0 78.667 23.833 142.667 71.5 192s106.167 74 175.5 74c41.333 0 81.666 -9.33301 120.999 -28l104 29v-372c40 64 96 96 168 96c44.667 0 80.834 -12.667 108.501 -38s41.5 -59 41.5 -101v-188
c0 -66.667 8 -124.667 24 -174v-2h-209v2c16.667 51.333 25 109 25 173v179c0 22.667 -5.83301 40.667 -17.5 54s-28.834 20 -51.501 20c-34.667 0 -64.334 -16.667 -89.001 -50v-221c0 -54 8 -105.667 24 -155v-2h-209v2c16 46.667 24 98.334 24 155.001v408
c0 57.333 -8.5 104.166 -25.5 140.499s-35.833 54.5 -56.5 54.5c-20 0 -36.333 -16.333 -49 -49s-19 -75.667 -19 -129v-95h114v-22h-114v-308c0 -60 10.333 -111.667 31 -155v-2h-223z" />
    <glyph glyph-name="f_j" unicode="fj" horiz-adv-x="602" 
d="M540 47c-1.33301 -83.333 -23.166 -146.166 -65.499 -188.499s-99.833 -66.833 -172.5 -73.5l-2 7c56.667 28 85 85.667 85 173v329c0 44 -3.5 78.667 -10.5 104s-19.167 47.666 -36.5 66.999h-97v-308c0 -60 10.333 -111.667 31 -155v-2h-223v2
c20.667 43.333 31 95 31 155v308h-63v22h63v25c0 78.667 24 142.667 72 192s108.333 74 181 74c32.667 0 73 -4.66699 121 -14l14 -166l-6 -2l-51.5 74c-13 18 -30.167 37.5 -51.5 58.5s-39.333 31.5 -54 31.5c-18 0 -33.167 -16.5 -45.5 -49.5s-18.5 -75.833 -18.5 -128.5
v-95h132c73.333 0 130.666 7 171.999 21z" />
    <glyph glyph-name="f_k" unicode="fk" horiz-adv-x="897" 
d="M698 0l-145.999 254.999v-98c0 -54 8 -105.667 24 -155v-2h-209v2c16 46.667 24 98.334 24 155.001v408c0 57.333 -8.5 104.166 -25.5 140.499s-35.833 54.5 -56.5 54.5c-20 0 -36.333 -16.333 -49 -49s-19 -75.667 -19 -129v-95h114v-22h-114v-308
c0 -60 10.333 -111.667 31 -155v-2h-223v2c20.667 43.333 31 95 31 155v308h-63v22h63v25c0 78.667 23.833 142.667 71.5 192s106.167 74 175.5 74c41.333 0 81.666 -9.33301 120.999 -28l104 29v-524l120 109c14.667 13.333 24.5 28 29.5 44s6.16699 30.333 3.5 43
s-7.33398 24 -14.001 34v2h176v-2c-13.333 -6 -25.833 -12.167 -37.5 -18.5s-23.5 -14.166 -35.5 -23.499l-27.5 -21.5c-6.33301 -5 -16.333 -13.667 -30 -26s-22.5 -20.166 -26.5 -23.499l-32 -31l138 -234c2.66699 -4 6.33398 -10 11.001 -18s8.16699 -13.833 10.5 -17.5
l9.5 -15.5c4 -6.66699 7.5 -11.834 10.5 -15.501l10.5 -13c4 -5 8.16699 -9.5 12.5 -13.5l13.5 -12v-2h-196z" />
    <glyph glyph-name="f_t" unicode="ft" horiz-adv-x="699" 
d="M678 63c-31.333 -52 -82.999 -78.001 -154.999 -78.001c-92 0 -138 46.333 -138 139v341h-144v-308c0 -60 10.333 -111.667 31 -155v-2h-223v2c20.667 43.333 31 95 31 155v308h-63v22h63v25c0 78.667 24 142.667 72 192s108 74 180 74c30.667 0 59 -3.66699 85 -11
l14 -135l-6 -2l-22.5 32.5l-25 36c-7 9.66699 -14.833 19.667 -23.5 30s-17 18.166 -25 23.499s-15.667 8 -23 8c-18 0 -33.333 -16.5 -46 -49.5s-19 -75.833 -19 -128.5v-95h105l188 110h12v-110h118v-22h-118v-337c0 -52.667 24 -79 72 -79c10.667 0 20.667 1.33301 30 4
s16.166 5.33398 20.499 8.00098s6.5 4.33398 6.5 5.00098z" />
    <glyph glyph-name="f_f_t" unicode="fft" horiz-adv-x="1009" 
d="M988 63c-11.333 -22 -30.666 -40.502 -57.999 -55.502s-59.666 -22.5 -96.999 -22.5c-91.333 0 -137 46.333 -137 139v341h-144v-308c0 -60 10.333 -111.667 31 -155v-2h-223v2c20.667 43.333 31 95 31 155v308h-150v-308c0 -60 10.333 -111.667 31 -155v-2h-223v2
c20.667 43.333 31 95 31 155v308h-63v22h63v19c0 74.667 21.167 135.334 63.5 182.001s95.5 70 159.5 70c26.667 0 52.667 -3.66699 78 -11l11 -119l-6 -2l-20.5 30l-22 32c-5.66699 8 -12 16.5 -19 25.5s-13.5 15.667 -19.5 20s-11.333 6.5 -16 6.5
c-12.667 0 -23.834 -15.333 -33.501 -46s-14.5 -70 -14.5 -118v-89h150v25c0 78.667 24 142.667 72 192s108 74 180 74c30.667 0 59 -3.66699 85 -11l14 -135l-6 -2l-22.5 32.5l-25 36c-7 9.66699 -14.833 19.667 -23.5 30s-17 18.166 -25 23.499s-15.667 8 -23 8
c-18 0 -33.333 -16.5 -46 -49.5s-19 -75.833 -19 -128.5v-95h105l188 110h12v-110h118v-22h-118v-337c0 -52.667 24 -79 72 -79c10.667 0 20.667 1.33301 30 4s16.166 5.33398 20.499 8.00098s6.5 4.33398 6.5 5.00098z" />
    <glyph glyph-name="f_f" unicode="ff" horiz-adv-x="679" 
d="M49 2c20.667 43.333 31.001 95 31.001 155v308h-63v22h63v19c0 74.667 21.167 135.334 63.5 182.001s95.5 70 159.5 70c26.667 0 52.667 -3.66699 78 -11l11 -119l-6 -2l-20.5 30l-22 32c-5.66699 8 -12 16.5 -19 25.5s-13.5 15.667 -19.5 20s-11.333 6.5 -16 6.5
c-12.667 0 -23.834 -15.333 -33.501 -46s-14.5 -70 -14.5 -118v-89h150v25c0 78.667 24 142.667 72 192s108 74 180 74c30.667 0 59 -3.66699 85 -11l14 -135l-6 -2l-22.5 32.5l-25 36c-7 9.66699 -14.833 19.667 -23.5 30s-17 18.166 -25 23.499s-15.667 8 -23 8
c-18 0 -33.333 -16.5 -46 -49.5s-19 -75.833 -19 -128.5v-95h114v-22h-114v-308c0 -60 10.333 -111.667 31 -155v-2h-223v2c20.667 43.333 31 95 31 155v308h-150v-308c0 -60 10.333 -111.667 31 -155v-2h-223v2z" />
    <glyph glyph-name="f_i" unicode="fi" horiz-adv-x="605" 
d="M49 0l0.000976562 2.00098c20.667 43.333 31 95 31 155v308h-63v22h63v25c0 78.667 24 142.667 72 192s108.333 74 181 74c32.667 0 73 -4.66699 121 -14l14 -166l-6 -2l-51.5 74c-13 18 -30.167 37.5 -51.5 58.5s-39.333 31.5 -54 31.5c-18 0 -33.167 -16.5 -45.5 -49.5
s-18.5 -75.833 -18.5 -128.5v-95h132c73.333 0 130.666 7 171.999 21v-332c0 -68 8 -126 24 -174v-2h-209v2c16.667 62.667 25 120.667 25 174v118c0 44 -3.5 78.667 -10.5 104s-19.167 47.666 -36.5 66.999h-97v-308c0 -60 10.333 -111.667 31 -155v-2h-223z" />
    <glyph glyph-name="f_l" unicode="fl" horiz-adv-x="612" 
d="M272 0h-222.999v2c20.667 43.333 31 95 31 155v308h-63v22h63v25c0 78.667 23.833 142.667 71.5 192s106.167 74 175.5 74c41.333 0 81.666 -9.33301 120.999 -28l104 29v-622c0 -54 8 -105.667 24 -155v-2h-209v2c16 46.667 24 98.334 24 155.001v408
c0 57.333 -8.5 104.166 -25.5 140.499s-35.833 54.5 -56.5 54.5c-20 0 -36.333 -16.333 -49 -49s-19 -75.667 -19 -129v-95h114v-22h-114v-308c0 -60 10.333 -111.667 31 -155v-2z" />
    <glyph glyph-name="f_f_i" unicode="ffi" horiz-adv-x="916" 
d="M49 0l0.000976562 2c20.667 43.333 31 95 31 155v308h-63v22h63v19c0 74.667 21.167 135.334 63.5 182.001s95.5 70 159.5 70c26.667 0 52.667 -3.66699 78 -11l11 -119l-6 -2l-20.5 30l-22 32c-5.66699 8 -12 16.5 -19 25.5s-13.5 15.667 -19.5 20s-11.333 6.5 -16 6.5
c-12.667 0 -23.834 -15.333 -33.501 -46s-14.5 -70 -14.5 -118v-89h150v25c0 78.667 24 142.667 72 192s108.333 74 181 74c32.667 0 73 -4.66699 121 -14l14 -166l-6 -2l-51.5 74c-13 18 -30.167 37.5 -51.5 58.5s-39.333 31.5 -54 31.5c-18 0 -33.167 -16.5 -45.5 -49.5
s-18.5 -75.833 -18.5 -128.5v-95h132c72.667 0 130 7 172 21v-332c0 -68 8 -126 24 -174v-2h-209v2c16.667 62.667 25 120.667 25 174v118c0 44 -3.5 78.667 -10.5 104s-19.167 47.666 -36.5 66.999h-97v-308c0 -60 10.333 -111.667 31 -155v-2h-223v2
c20.667 43.333 31 95 31 155v308h-150v-308c0 -60 10.333 -111.667 31 -155v-2h-223z" />
    <glyph glyph-name="f_f_l" unicode="ffl" horiz-adv-x="923" 
d="M49 2c20.667 43.333 31.002 94.999 31.002 154.999v308h-63v22h63v19c0 74.667 21.167 135.334 63.5 182.001s95.5 70 159.5 70c26.667 0 52.667 -3.66699 78 -11l11 -119l-6 -2l-20.5 30l-22 32c-5.66699 8 -12 16.5 -19 25.5s-13.5 15.667 -19.5 20
s-11.333 6.5 -16 6.5c-12.667 0 -23.834 -15.333 -33.501 -46s-14.5 -70 -14.5 -118v-89h150v25c0 78.667 23.833 142.667 71.5 192s106.167 74 175.5 74c41.333 0 81.666 -9.33301 120.999 -28l104 29v-622c0 -54 8 -105.667 24 -155v-2h-209v2
c16 46.667 24 98.334 24 155.001v408c0 57.333 -8.5 104.166 -25.5 140.499s-35.833 54.5 -56.5 54.5s-37.167 -16.167 -49.5 -48.5s-18.5 -75.5 -18.5 -129.5v-95h114v-22h-114v-308c0 -60 10.333 -111.667 31 -155v-2h-223v2c20.667 43.333 31 95 31 155v308h-150v-308
c0 -60 10.333 -111.667 31 -155v-2h-223v2z" />
    <glyph glyph-name=".notdef" horiz-adv-x="161" 
 />
    <glyph glyph-name="space" unicode=" " horiz-adv-x="167" 
 />
    <glyph glyph-name="exclam" unicode="!" horiz-adv-x="241" 
d="M209 730l-80 -471h-17l-80 471v2h177v-2zM120 -5c-24 0 -44.333 8.49902 -61 25.499s-25 37.5 -25 61.5s8.33301 44.5 25 61.5s37 25.5 61 25.5c24.667 0 45.5 -8.5 62.5 -25.5s25.5 -37.5 25.5 -61.5c0 -23.333 -8.66699 -43.666 -26 -60.999s-38 -26 -62 -26z" />
    <glyph glyph-name="quotedbl" unicode="&#x22;" horiz-adv-x="356" 
d="M20 732h148l-69 -240h-10zM188 732h148l-69 -240h-10z" />
    <glyph glyph-name="numbersign" unicode="#" horiz-adv-x="595" 
d="M413 480h-186l-42 -228h186zM367 230h-186l-43 -230h-27l43 230h-139v22h143l42 228h-138v22h142l43 230h27l-43 -230h186l43 230h27l-43 -230h140v-22h-144l-42 -228h139v-22h-143l-43 -230h-27z" />
    <glyph glyph-name="dollar" unicode="$" horiz-adv-x="587" 
d="M509 533l-11.0039 -3.00098c-39.333 65.333 -77 114 -113 146c-25.333 22.667 -51 37.334 -77 44.001v-233c3.33301 -1.33301 10.333 -4.66602 21 -9.99902s19 -9.33301 25 -12c30.667 -15.333 55.667 -29.333 75 -42s39.833 -29.334 61.5 -50.001
s37.834 -44.667 48.501 -72s16 -58 16 -92c0 -58.667 -15.667 -105.667 -47 -141s-73 -59 -125 -71c-26.667 -5.33301 -51.667 -9 -75 -11v-100h-27v99h-3c-79.333 0 -152 15 -218 45l-26 204l10 3c70.667 -117.333 136 -189.333 196 -216
c12.667 -4.66699 26.334 -8.66699 41.001 -12v274l-27 14c-25.333 12.667 -45.833 23.334 -61.5 32.001s-33.667 20.667 -54 36s-36.166 30.5 -47.499 45.5s-21.166 33.5 -29.499 55.5s-12.5 46 -12.5 72c0 54 15.667 97.667 47 131s73 55.666 125 66.999
c19.333 4 39.333 7 60 9v77h27v-75h16c55.333 0 108 -8 158 -24zM396.996 41.999c21.333 23.333 31.999 50.668 31.999 82.001c0 55.333 -36.667 101.666 -110 138.999l-11 6v-261c38.667 0 68.334 11.333 89.001 34zM274.995 724.001c-30.667 0 -55.667 -8.83301 -75 -26.5
s-29 -41.167 -29 -70.5c0 -35.333 18.667 -67 56 -95c18 -12 36 -22.667 54 -32v224h-6z" />
    <glyph glyph-name="percent" unicode="%" horiz-adv-x="826" 
d="M211 326c-50.667 0 -94.332 20.333 -130.999 61s-55 90.667 -55 150s18.333 109.333 55 150s80.334 61 131.001 61c51.333 0 96.166 -20.333 134.499 -61s57.5 -90.667 57.5 -150c0 -58.667 -19.333 -108.5 -58 -149.5s-83.334 -61.5 -134.001 -61.5zM211.002 345
c38 0 57 64 57 192s-19 192 -57 192c-20 0 -33.5 -16.167 -40.5 -48.5s-10.5 -80.166 -10.5 -143.499c0 -62.667 3.5 -110.334 10.5 -143.001s20.5 -49 40.5 -49zM609.002 -8c-50.667 0 -94.332 20.335 -130.999 61.002s-55 90.667 -55 150s18.333 109.166 55 149.499
s80.334 60.5 131.001 60.5c51.333 0 96.166 -20.333 134.499 -61s57.5 -90.334 57.5 -149.001s-19.333 -108.5 -58 -149.5s-83.334 -61.5 -134.001 -61.5zM609.004 10.002c37.333 0 56 64.334 56 193.001c0 128 -18.667 192 -56 192c-20.667 0 -34.5 -16.333 -41.5 -49
s-10.5 -80.334 -10.5 -143.001c0 -62 3.66699 -109.667 11 -143s21 -50 41 -50zM145.004 17.0029l520 726l21 -15l-520 -727z" />
    <glyph glyph-name="ampersand" unicode="&#x26;" horiz-adv-x="766" 
d="M584 -15c-55.333 0 -109.332 22.6641 -161.999 67.9971c-50.667 -45.333 -112.667 -68 -186 -68c-72.667 0 -126.167 18.333 -160.5 55s-51.5 81.334 -51.5 134.001c0 47.333 13.667 88.833 41 124.5s65.666 63.834 114.999 84.501c-38 60.667 -57 116.334 -57 167.001
c0 58 18.167 105.333 54.5 142s83.833 55 142.5 55c49.333 0 87.333 -13.167 114 -39.5s40 -58.833 40 -97.5c0 -67.333 -45 -126 -135 -176c18.667 -24.667 39 -53.667 61 -87c44.667 -70.667 82 -123.667 112 -159c30 51.333 45 101 45 149c0 44.667 -17.333 75 -52 91v6
h226v-6c-35.333 -10.667 -63 -26.667 -83 -48c-18 -18 -40 -51.667 -66 -101c-26.667 -52 -45.667 -87.333 -57 -106c46 -49.333 91.667 -74 137 -74c46.667 0 78.667 17 96 51l5 -2c-8.66699 -48 -28 -87.167 -58 -117.5s-70.333 -45.5 -121 -45.5zM243.001 625.997
c0 -20 4.33301 -40.501 13 -61.501s17 -37.333 25 -49s25 -35.167 51 -70.5c49.333 40.667 74 93.334 74 158.001c0 36 -7.16699 65.833 -21.5 89.5s-34.833 35.5 -61.5 35.5c-23.333 0 -42.5 -9 -57.5 -27s-22.5 -43 -22.5 -75zM327.001 55.9961
c27.333 0 52.667 4.99805 76 14.998c-43.333 43.333 -94.333 112 -153 206c-5.33301 8.66699 -14.833 22.834 -28.5 42.501s-23.5 34.5 -29.5 44.5c-23.333 -31.333 -35 -71.666 -35 -120.999c0 -54 14.5 -98.667 43.5 -134s71.167 -53 126.5 -53z" />
    <glyph glyph-name="quotesingle" unicode="'" horiz-adv-x="188" 
d="M20 732h148l-69 -240h-10z" />
    <glyph glyph-name="parenleft" unicode="(" horiz-adv-x="346" 
d="M313 -130c-80.667 50.667 -143.834 113.832 -189.501 189.499s-68.5 159.834 -68.5 252.501s22.833 177 68.5 253s108.834 139.333 189.501 190l7 -10c-78 -108.667 -117 -253 -117 -433c0 -179.333 39 -323.333 117 -432z" />
    <glyph glyph-name="parenright" unicode=")" horiz-adv-x="346" 
d="M26 -120c78 108.667 117 252.669 117 432.002c0 180 -39 324.333 -117 433l7 10c80.667 -50.667 143.834 -114 189.501 -190s68.5 -160.333 68.5 -253s-22.833 -176.834 -68.5 -252.501s-108.834 -138.834 -189.501 -189.501z" />
    <glyph glyph-name="asterisk" unicode="*" horiz-adv-x="384" 
d="M233 425l-42 134l-42 -134l-93 67l112 81h-138l35 108l112 -82l-43 133h115l-45 -134l114 83l36 -108h-141l113 -81z" />
    <glyph glyph-name="plus" unicode="+" horiz-adv-x="532" 
d="M279 296v-208h-26v208h-208v24h208v208h26v-208h208v-24h-208z" />
    <glyph glyph-name="comma" unicode="," horiz-adv-x="261" 
d="M21 -131c23.333 16 41.667 33.833 55 53.5s20 37.834 20 54.501c0 21.333 -21.333 53.333 -64 96v2l120 89c18.667 -12 33.834 -27.167 45.501 -45.5s17.5 -37.166 17.5 -56.499c0 -40.667 -18.833 -80.334 -56.5 -119.001s-81.834 -67.334 -132.501 -86.001z" />
    <glyph glyph-name="hyphen" unicode="-" horiz-adv-x="268" 
d="M23 239v89h221v-89h-221z" />
    <glyph glyph-name="period" unicode="." horiz-adv-x="250" 
d="M125 -5c-23.333 0 -43.166 8.16699 -59.499 24.5s-24.5 36.166 -24.5 59.499s8.16699 43.166 24.5 59.499s36.166 24.5 59.499 24.5s43.166 -8.16699 59.499 -24.5s24.5 -36.166 24.5 -59.499s-8.16699 -43.166 -24.5 -59.499s-36.166 -24.5 -59.499 -24.5z" />
    <glyph glyph-name="slash" unicode="/" horiz-adv-x="392" 
d="M351 784h31l-374 -914h-31z" />
    <glyph glyph-name="zero" unicode="0" horiz-adv-x="715" 
d="M354 -15c-88.667 0 -164.668 36.6689 -228.001 110.002s-95 163.666 -95 270.999c0 108 31.5 198.5 94.5 271.5s139.167 109.5 228.5 109.5c90.667 0 168.334 -36.5 233.001 -109.5s97 -163.5 97 -271.5c0 -106.667 -32.5 -196.834 -97.5 -270.501
s-142.5 -110.5 -232.5 -110.5zM353.999 7.00195c92.667 0 139 119.668 139 359.001s-46.333 359 -139 359c-25.333 0 -46.833 -8.66699 -64.5 -26s-31.334 -42.833 -41.001 -76.5s-16.5 -71.167 -20.5 -112.5s-6 -89.333 -6 -144c0 -54 2 -101.667 6 -143
s10.833 -78.833 20.5 -112.5s23.334 -59.334 41.001 -77.001s39.167 -26.5 64.5 -26.5z" />
    <glyph glyph-name="one" unicode="1" horiz-adv-x="380" 
d="M59 0v2c20.667 27.333 34.167 50.666 40.5 69.999s9.5 47.333 9.5 84v421h-88v10c104 43.333 189.333 97.333 256 162h11v-593c0 -36.667 3.16699 -64.667 9.5 -84s19.833 -42.666 40.5 -69.999v-2h-279z" />
    <glyph glyph-name="two" unicode="2" horiz-adv-x="559" 
d="M2 0l0.00292969 11.999c122 118 207.5 217.333 256.5 298s73.5 159.334 73.5 236.001c0 56 -8.33301 99.833 -25 131.5s-40.334 47.5 -71.001 47.5c-62 0 -125.333 -67.333 -190 -202l-10 2l26 190c51.333 21.333 111.333 32 180 32c89.333 0 156.666 -18 201.999 -54
s68 -83.667 68 -143c0 -65.333 -29.833 -129.833 -89.5 -193.5s-152.834 -137.167 -279.501 -220.5h185c84 0 151 32.667 201 98l8 -2l-70 -232h-465z" />
    <glyph glyph-name="three" unicode="3" horiz-adv-x="573" 
d="M249 -15c-84.667 0 -152.332 14.668 -202.999 44.001l-24 180l10 2c48.667 -79.333 83.667 -130.333 105 -153c32 -34 66 -51 102 -51c41.333 0 73.833 19.167 97.5 57.5s35.5 89.166 35.5 152.499c0 132.667 -47 199 -141 199c-42 0 -83.667 -13.667 -125 -41l-10 13
l254 208h-299l58 136h434v-10l-355 -289c27.333 8.66699 57.666 13 90.999 13c73.333 0 137 -19.5 191 -58.5s81 -95.833 81 -170.5c0 -71.333 -27.667 -127.833 -83 -169.5s-128.333 -62.5 -219 -62.5z" />
    <glyph glyph-name="four" unicode="4" horiz-adv-x="602" 
d="M262 2c16.667 26.667 27.5 49.834 32.5 69.501s7.5 47.834 7.5 84.501v34h-304v11l324 531h211l-500 -515h269v201h184v-201h96l-8 -27h-88v-34c0 -36.667 2.5 -64.834 7.5 -84.501s15.833 -42.834 32.5 -69.501v-2h-264v2z" />
    <glyph glyph-name="five" unicode="5" horiz-adv-x="544" 
d="M219 -15c-72.667 0 -132 14.666 -178 43.999l-24 180l10 2c20 -34 36 -60.333 48 -79s26.667 -39.167 44 -61.5s34.333 -38.5 51 -48.5s34 -15 52 -15c36.667 0 66 19 88 57s33 90.667 33 158c0 137.333 -52 206 -156 206c-38.667 0 -77.667 -11 -117 -33l-8 4l56 333
h389l-26 -136h-361l-30 -174c40 23.333 87.667 35 143 35c48 0 93 -7.66699 135 -23s77.667 -41.166 107 -77.499s44 -79.833 44 -130.5c0 -78 -30 -137.667 -90 -179s-130 -62 -210 -62z" />
    <glyph glyph-name="six" unicode="6" horiz-adv-x="627" 
d="M316 -15c-86 0 -155.334 28.666 -208.001 85.999s-79 128.666 -79 213.999c0 43.333 7.33301 86.333 22 129s38.167 85.834 70.5 129.501s79.333 83.5 141 119.5s134.834 64 219.501 84l4 -11c-141.333 -51.333 -229 -163.333 -263 -336c26 57.333 74.333 86 145 86
c65.333 0 120.833 -21.5 166.5 -64.5s68.5 -100.5 68.5 -172.5c0 -77.333 -27.833 -140.666 -83.5 -189.999s-123.5 -74 -203.5 -74zM321.999 6.99902c32 0 56.834 19.332 74.501 57.999s26.5 94.334 26.5 167.001c0 134.667 -35 202 -105 202
c-48.667 0 -82.334 -24 -101.001 -72c-4.66699 -33.333 -7 -68 -7 -104c0 -71.333 9.33301 -131 28 -179s46.667 -72 84 -72z" />
    <glyph glyph-name="seven" unicode="7" horiz-adv-x="517" 
d="M69 0c62 192 180.333 385.668 355 581.001h-404l36 151h475v-10c-152 -242.667 -247.667 -483.334 -287 -722.001h-175z" />
    <glyph glyph-name="eight" unicode="8" horiz-adv-x="598" 
d="M291 -15c-80 0 -145.668 17.332 -197.001 51.999s-77 80.667 -77 138c0 83.333 53.667 140.333 161 171c-85.333 49.333 -128 113.333 -128 192c0 62.667 23 113.167 69 151.5s107 57.5 183 57.5c70.667 0 129.167 -16.167 175.5 -48.5s69.5 -72.833 69.5 -121.5
c0 -30.667 -11.167 -59.5 -33.5 -86.5s-59.166 -47.833 -110.499 -62.5c118.667 -61.333 178 -137.666 178 -228.999c0 -64.667 -27.333 -116.5 -82 -155.5s-124 -58.5 -208 -58.5zM290.999 7.99902c42.667 0 77.167 11.832 103.5 35.499s39.5 54.5 39.5 92.5
c0 40.667 -16.167 73.667 -48.5 99s-87.833 55.333 -166.5 90l-21 10c-39.333 -38.667 -59 -89.667 -59 -153c0 -53.333 13.167 -95.666 39.5 -126.999s63.833 -47 112.5 -47zM363.999 446.998l18 -7.99805c30.667 33.333 46 78.333 46 135
c0 47.333 -10.667 84.166 -32 110.499s-51.333 39.5 -90 39.5c-36 0 -64.167 -10.333 -84.5 -31s-30.5 -47 -30.5 -79c0 -33.333 13.333 -62.833 40 -88.5s71 -51.834 133 -78.501z" />
    <glyph glyph-name="nine" unicode="9" horiz-adv-x="627" 
d="M141 -4c138 50.667 225.333 162.333 262 335c-27.333 -56.667 -76 -85 -146 -85c-64.667 0 -119.834 21.5 -165.501 64.5s-68.5 100.5 -68.5 172.5c0 77.333 28 140.666 84 189.999s124 74 204 74c85.333 0 154.333 -28.667 207 -86s79 -128.666 79 -213.999
c0 -34 -4.16699 -67.833 -12.5 -101.5s-23.333 -69 -45 -106s-49.167 -71 -82.5 -102s-76.666 -60.167 -129.999 -87.5s-114 -49 -182 -65zM309 297.999c21.333 0 41 6 59 18s31.667 29.667 41 53c5.33301 28 8 63.333 8 106c0 70.667 -9.5 130 -28.5 178
s-46.833 72 -83.5 72c-32 0 -56.833 -19.333 -74.5 -58s-26.5 -94 -26.5 -166c0 -135.333 35 -203 105 -203z" />
    <glyph glyph-name="colon" unicode=":" horiz-adv-x="250" 
d="M125 311c-23.333 0 -43.166 8.16699 -59.499 24.5s-24.5 36.166 -24.5 59.499s8.16699 43.166 24.5 59.499s36.166 24.5 59.499 24.5s43.166 -8.16699 59.499 -24.5s24.5 -36.166 24.5 -59.499s-8.16699 -43.166 -24.5 -59.499s-36.166 -24.5 -59.499 -24.5zM125 -5
c-23.333 0 -43.166 8.16699 -59.499 24.5s-24.5 36.166 -24.5 59.499s8.16699 43.166 24.5 59.499s36.166 24.5 59.499 24.5s43.166 -8.16699 59.499 -24.5s24.5 -36.166 24.5 -59.499s-8.16699 -43.166 -24.5 -59.499s-36.166 -24.5 -59.499 -24.5z" />
    <glyph glyph-name="semicolon" unicode=";" horiz-adv-x="265" 
d="M21 -131c23.333 16 41.667 33.833 55 53.5s20 37.834 20 54.501c0 21.333 -21.333 53.333 -64 96v2l120 89c18.667 -12 33.834 -27.167 45.501 -45.5s17.5 -37.166 17.5 -56.499c0 -40.667 -18.833 -80.334 -56.5 -119.001s-81.834 -67.334 -132.501 -86.001z
M132.001 311c-23.333 0 -43.166 8.16699 -59.499 24.5s-24.5 36.166 -24.5 59.499s8.16699 43.166 24.5 59.499s36.166 24.5 59.499 24.5s43.166 -8.16699 59.499 -24.5s24.5 -36.166 24.5 -59.499s-8.16699 -43.166 -24.5 -59.499s-36.166 -24.5 -59.499 -24.5z" />
    <glyph glyph-name="less" unicode="&#x3c;" horiz-adv-x="530" 
d="M45 293v26l430 208v-29l-401 -192l401 -192v-29z" />
    <glyph glyph-name="equal" unicode="=" horiz-adv-x="532" 
d="M45 377v25h442v-25h-442zM45 234v25h442v-25h-442z" />
    <glyph glyph-name="greater" unicode="&#x3e;" horiz-adv-x="530" 
d="M55 85v29l401 192l-401 192v29l430 -208v-26z" />
    <glyph glyph-name="question" unicode="?" horiz-adv-x="433" 
d="M123 259c2 28 9.66699 55.167 23 81.5s27.333 48.333 42 66s28.167 41.334 40.5 71.001s18.5 62.167 18.5 97.5c0 47.333 -7 84.333 -21 111s-32.333 40 -55 40c-10.667 0 -21.167 -3.16699 -31.5 -9.5s-21 -16.833 -32 -31.5s-20.167 -27.834 -27.5 -39.501
s-17.333 -28.5 -30 -50.5c-4.66699 -8.66699 -8.33398 -15 -11.001 -19l-7 2l21 145c39.333 16 88 24 146 24c70.667 0 125.334 -13 164.001 -39s58 -65.333 58 -118c0 -34 -8.16699 -64.333 -24.5 -91s-37 -49.167 -62 -67.5s-50.5 -35.5 -76.5 -51.5
s-50.333 -34.333 -73 -55s-38 -42.667 -46 -66h-16zM143 -5c-24 0 -44.5 8.66699 -61.5 26s-25.5 37.666 -25.5 60.999c0 24 8.5 44.5 25.5 61.5s37.5 25.5 61.5 25.5c24.667 0 45.5 -8.5 62.5 -25.5s25.5 -37.5 25.5 -61.5c0 -23.333 -8.66699 -43.666 -26 -60.999
s-38 -26 -62 -26z" />
    <glyph glyph-name="at" unicode="@" horiz-adv-x="915" 
d="M449 -187c-123.333 0 -225.162 34.0039 -305.495 102.004s-120.5 161 -120.5 279c0 129.333 47.333 239.666 142 330.999s212 137 352 137c114 0 205 -29.833 273 -89.5s102 -140.834 102 -243.501c0 -87.333 -24.667 -160.833 -74 -220.5s-111.666 -89.5 -186.999 -89.5
c-42.667 0 -76.167 10.167 -100.5 30.5s-38.5 46.833 -42.5 79.5c-2.66699 20 -1.66699 40.333 3 61l-27 -65c-35.333 -75.333 -80 -113 -134 -113c-30.667 0 -54.834 11.5 -72.501 34.5s-26.5 56.167 -26.5 99.5c0 36.667 6.16699 73.5 18.5 110.5s30.5 72 54.5 105
s56 59.833 96 80.5s85 31 135 31c38 0 69.333 -4.66699 94 -14l66 14h6l-72 -275c-24.667 -99.333 -10.334 -149 42.999 -149c42.667 0 80 28.167 112 84.5s48 123.5 48 201.5c0 96.667 -28.833 172 -86.5 226s-134.5 81 -230.5 81c-62.667 0 -120.334 -12.5 -173.001 -37.5
s-96.334 -58.333 -131.001 -100s-61.5 -89.334 -80.5 -143.001s-28.5 -109.834 -28.5 -168.501c0 -112 31.667 -200 95 -264s148.666 -96 255.999 -96c95.333 0 172.666 21.333 231.999 64l11 -16c-64.667 -45.333 -147 -68 -247 -68zM400.004 110.004
c32.667 0 67.333 55.333 104 166l43 158c-5.33301 13.333 -14.333 20 -27 20c-24.667 0 -48.5 -15.333 -71.5 -46s-41 -67.5 -54 -110.5s-19.5 -83.833 -19.5 -122.5c0 -43.333 8.33301 -65 25 -65z" />
    <glyph glyph-name="A" unicode="A" horiz-adv-x="704" 
d="M283 596l-108 -297h212zM187 0h-184.001v2c38.667 36.667 74.334 99 107.001 187l197 546h101l200 -551c28.667 -80 59.667 -140.667 93 -182v-2h-298v2c40.667 53.333 46.667 120 18 200l-26 74h-228l-18 -49c-36.667 -103.333 -24 -178.333 38 -225v-2z" />
    <glyph glyph-name="B" unicode="B" horiz-adv-x="677" 
d="M42 0v1.99805c15.333 37.333 25.833 69.833 31.5 97.5s8.5 64.834 8.5 111.501v310c0 46.667 -2.83301 83.5 -8.5 110.5s-16.167 59.833 -31.5 98.5v2h99c15.333 0 38.833 0.166992 70.5 0.5s54.5 0.5 68.5 0.5h85c170 0 255 -56 255 -168c0 -93.333 -51 -154 -153 -182
c64 -11.333 111.167 -33.5 141.5 -66.5s45.5 -73.5 45.5 -121.5c0 -61.333 -22.5 -109.166 -67.5 -143.499s-114.833 -51.5 -209.5 -51.5h-335zM318 19.998c51.333 0 89.333 16.167 114 48.5s37 75.833 37 130.5c0 113.333 -48.333 170 -145 170h-63v-344
c21.333 -3.33301 40.333 -5 57 -5zM321 391.998c44 0 76.499 15.668 97.499 47.001s31.5 69 31.5 113c0 47.333 -10.5 85.666 -31.5 114.999s-55.167 44 -102.5 44c-21.333 0 -39.666 -1.33301 -54.999 -4v-315h60z" />
    <glyph glyph-name="C" unicode="C" horiz-adv-x="768" 
d="M705 60c-13.333 -9.33301 -29.666 -18.8301 -48.999 -28.4971s-49.5 -19.834 -90.5 -30.501s-83.167 -16 -126.5 -16c-116.667 0 -214.167 35 -292.5 105s-117.5 159 -117.5 267c0 109.333 39.667 201.666 119 276.999s179 113 299 113c78 0 162.667 -12.333 254 -37
l20 -184l-10 -3c-56.667 76 -103.667 128.5 -141 157.5s-80 43.5 -128 43.5c-146.667 0 -220 -122.333 -220 -367c0 -110 18.833 -195.667 56.5 -257s91.5 -92 161.5 -92c29.333 0 56.166 5.5 80.499 16.5s47.833 29.167 70.5 54.5s42.5 50.666 59.5 75.999
s38.5 60.333 64.5 105l10 -3z" />
    <glyph glyph-name="D" unicode="D" horiz-adv-x="803" 
d="M42 2c15.333 35.333 25.8311 66.332 31.498 92.999s8.5 62.334 8.5 107.001v328c0 44.667 -2.83301 80 -8.5 106s-16.167 57.333 -31.5 94v2c32.667 0 78.334 0.666992 137.001 2s111.334 2 158.001 2c136 0 242.833 -31.833 320.5 -95.5s116.5 -154.167 116.5 -271.5
c0 -118 -38 -209 -114 -273s-183.667 -96 -323 -96h-295v2zM339.998 24.999c90 0 152.501 27 187.501 81s52.5 137 52.5 249c0 122.667 -19 213 -57 271s-101 86.333 -189 85c-16.667 0 -41 -1.66699 -73 -5v-677c29.333 -2.66699 55.666 -4 78.999 -4z" />
    <glyph glyph-name="E" unicode="E" horiz-adv-x="664" 
d="M598 0h-556v2c15.333 41.333 25.833 75.166 31.5 101.499s8.5 60.833 8.5 103.5v318c0 30 -1.83301 57 -5.5 81s-7.66699 43.333 -12 58s-11.833 36.667 -22.5 66v2h519l37 -193l-10 -3c-7.33301 6.66699 -26.833 27 -58.5 61s-58.667 60 -81 78s-41.833 27.667 -58.5 29
l-129 9v-326h59c10 0 20.333 2 31 6s21.5 10.333 32.5 19s20.167 16.334 27.5 23.001s16.833 16 28.5 28s19.834 20 24.501 24h10v-227h-10c-6 4.66699 -19.167 17.834 -39.5 39.501s-38.666 37.834 -54.999 48.501s-32.833 16 -49.5 16h-59v-345l145 8
c31.333 1.33301 69.166 23.666 113.499 66.999s84.166 89.666 119.499 138.999l10 -3z" />
    <glyph glyph-name="F" unicode="F" horiz-adv-x="622" 
d="M301 0l-259.004 -0.00292969v2c15.333 37.333 25.833 69.833 31.5 97.5s8.5 64.834 8.5 111.501v310c0 46.667 -2.83301 83.5 -8.5 110.5s-16.167 59.833 -31.5 98.5v2h529l37 -193l-11 -3c-7.33301 7.33301 -19.166 19.833 -35.499 37.5s-30.833 32.667 -43.5 45l-42 40
c-15.333 14.333 -29.666 25.333 -42.999 33s-24.666 11.834 -33.999 12.501l-138 10v-324h66c10 0 20.167 2 30.5 6s21 10.333 32 19s20.167 16.334 27.5 23.001s16.833 16 28.5 28s19.834 20 24.501 24h11v-227h-11c-4.66699 4 -17.5 17 -38.5 39s-39.5 38.333 -55.5 49
s-32.333 16 -49 16h-66v-156c0 -46 2.83301 -82.833 8.5 -110.5s16.167 -60.5 31.5 -98.5v-2z" />
    <glyph glyph-name="G" unicode="G" horiz-adv-x="806" 
d="M743 97c-95.333 -74.667 -201.002 -112.002 -317.002 -112.002c-120 0 -216.167 34.5 -288.5 103.5s-108.5 158.5 -108.5 268.5c0 112.667 38.333 205.834 115 279.501s181.667 110.5 315 110.5c66.667 0 148.667 -12.333 246 -37l20 -186l-11 -3
c-55.333 76 -102.166 128.833 -140.499 158.5s-81.166 44.5 -128.499 44.5c-148.667 0 -223 -122 -223 -366c0 -233.333 68.667 -350 206 -350c46 0 83.833 12.833 113.5 38.5s45.167 63.167 46.5 112.5c1.33301 38 -2.5 69.333 -11.5 94s-24.167 52.334 -45.5 83.001v2h252
v-2c-15.333 -38 -25.833 -70.833 -31.5 -98.5s-8.5 -64.5 -8.5 -110.5v-30z" />
    <glyph glyph-name="H" unicode="H" horiz-adv-x="809" 
d="M42 2c15.333 37.333 25.833 69.8281 31.5 97.4951s8.5 64.834 8.5 111.501v310c0 46.667 -2.83301 83.5 -8.5 110.5s-16.167 59.833 -31.5 98.5v2h260v-2c-15.333 -38 -26 -71 -32 -99s-9 -64.667 -9 -110v-136h287v136c0 46 -2.83301 82.5 -8.5 109.5
s-16.5 60.167 -32.5 99.5v2h260v-2c-15.333 -37.333 -25.833 -70.166 -31.5 -98.499s-8.5 -65.166 -8.5 -110.499v-310c0 -45.333 2.83301 -82.166 8.5 -110.499s16.167 -61.166 31.5 -98.499v-2h-260v2c16 39.333 26.833 72.5 32.5 99.5s8.5 63.5 8.5 109.5v151h-287v-151
c0 -45.333 3 -82 9 -110s16.667 -61 32 -99v-2h-260v2z" />
    <glyph glyph-name="I" unicode="I" horiz-adv-x="344" 
d="M42 2c15.333 38.667 25.833 71.5 31.5 98.5s8.5 63.833 8.5 110.5v310c0 46.667 -2.83301 83.5 -8.5 110.5s-16.167 59.833 -31.5 98.5v2h260v-2c-15.333 -38 -26 -71 -32 -99s-9 -64.667 -9 -110v-310c0 -45.333 3 -82 9 -110s16.667 -61 32 -99v-2h-260v2z" />
    <glyph glyph-name="J" unicode="J" horiz-adv-x="485" 
d="M412 208c0 -69.333 -22 -123.835 -66 -163.502s-102 -59.5 -174 -59.5c-48 0 -91 8.33301 -129 25l-23 198l11 3l18 -32l43.5 -76c9 -15.333 19.5 -32 31.5 -50s22 -30 30 -36s16 -9 24 -9c16.667 0 30.167 12 40.5 36s15.5 56.667 15.5 98v379
c0 46 -2.83301 82.667 -8.5 110s-16.5 60.333 -32.5 99v2h259v-2c-15.333 -37.333 -25.833 -70.166 -31.5 -98.499s-8.5 -65.166 -8.5 -110.499v-313z" />
    <glyph glyph-name="K" unicode="K" horiz-adv-x="732" 
d="M42 2c15.333 37.333 25.833 69.832 31.5 97.499s8.5 64.834 8.5 111.501v310c0 46.667 -2.83301 83.5 -8.5 110.5s-16.167 59.833 -31.5 98.5v2h259v-2c-15.333 -38 -25.833 -70.833 -31.5 -98.5s-8.5 -64.5 -8.5 -110.5v-310c0 -46 2.83301 -82.833 8.5 -110.5
s16.167 -60.5 31.5 -98.5v-2h-259v2zM498 -0.000976562l-234 360.998l177 190c65.333 68 78.333 127.667 39 179v2h239v-2c-86.667 -38 -164.667 -93.667 -234 -167l-81 -87l209 -319c26.667 -41.333 49.5 -73.666 68.5 -96.999s39.5 -42.666 61.5 -57.999v-2h-245z" />
    <glyph glyph-name="L" unicode="L" horiz-adv-x="621" 
d="M42 0v2c15.333 37.333 25.833 69.833 31.5 97.5s8.5 64.834 8.5 111.501v310c0 46.667 -2.83301 83.5 -8.5 110.5s-16.167 59.833 -31.5 98.5v2h259v-2c-15.333 -38 -25.833 -70.833 -31.5 -98.5s-8.5 -64.5 -8.5 -110.5v-499l114 7
c31.333 1.33301 68.833 23.666 112.5 66.999s81.167 89 112.5 137l11 -3l-52 -230h-517z" />
    <glyph glyph-name="M" unicode="M" horiz-adv-x="902" 
d="M14 0v1.99707c26.667 40.667 44.667 74.667 54 102s14 65 14 113v355c-2.66699 32.667 -9.16699 60.167 -19.5 82.5s-27.5 47.5 -51.5 75.5v2h231l214 -493l211 493h223v-2c-27.333 -33.333 -46 -62 -56 -86s-15 -57 -15 -99v-334
c0 -45.333 2.83301 -82.166 8.5 -110.499s16.167 -61.166 31.5 -98.499v-2h-259v2c15.333 37.333 25.833 69.833 31.5 97.5s8.5 64.834 8.5 111.501v388l-247 -577h-28l-257 580l3 -385c0 -46 6 -83.167 18 -111.5s34 -62.833 66 -103.5v-2h-181z" />
    <glyph glyph-name="N" unicode="N" horiz-adv-x="722" 
d="M108 605l4.00195 -388c0 -46 5.5 -83.333 16.5 -112s30.833 -63 59.5 -103v-2h-180v2c28.667 40.667 48.167 74.834 58.5 102.501s15.5 65.167 15.5 112.5v355c-2.66699 33.333 -9.33398 61 -20.001 83s-28.334 47 -53.001 75v2h223l370 -465l-2 246
c0 47.333 -5.33301 85.5 -16 114.5s-30 63.167 -58 102.5v2h176v-2c-28 -41.333 -47.167 -75.833 -57.5 -103.5s-15.5 -64.834 -15.5 -111.501v-514l-34 -4z" />
    <glyph glyph-name="O" unicode="O" horiz-adv-x="834" 
d="M417 -15c-110 0 -202.167 36.333 -276.5 109s-111.5 163 -111.5 271c0 107.333 37.333 197.833 112 271.5s166.667 110.5 276 110.5s201.333 -36.833 276 -110.5s112 -164.167 112 -271.5c0 -108 -37.333 -198.333 -112 -271s-166.667 -109 -276 -109zM417 8
c66 0 114.833 32 146.5 96s47.5 151 47.5 261s-15.667 197.333 -47 262s-80.333 97 -147 97s-115.834 -32.333 -147.501 -97s-47.5 -152 -47.5 -262s15.833 -197 47.5 -261s80.834 -96 147.501 -96z" />
    <glyph glyph-name="P" unicode="P" horiz-adv-x="640" 
d="M42 2c15.333 37.333 25.832 69.8301 31.499 97.4971s8.5 64.834 8.5 111.501v310c0 46.667 -2.83301 83.5 -8.5 110.5s-16.167 59.833 -31.5 98.5v2h293c106.667 0 182.5 -17.667 227.5 -53s67.5 -84.666 67.5 -147.999c0 -69.333 -25.667 -125.166 -77 -167.499
s-130.666 -63.5 -237.999 -63.5h-54v-89c0 -47.333 2.83301 -85 8.5 -113s16.5 -60 32.5 -96v-2h-260v2zM290.999 708.997l-14 -0.000976562c-6.66699 0 -12 -0.333008 -16 -1v-385h29c37.333 0 68.333 11.333 93 34s41.5 48.834 50.5 78.501s13.5 61.5 13.5 95.5
c0 55.333 -13 98.833 -39 130.5s-65 47.5 -117 47.5z" />
    <glyph glyph-name="Q" unicode="Q" horiz-adv-x="834" 
d="M673 -183c-42.667 0 -82.332 6.33008 -118.999 18.9971s-66.334 28.834 -89.001 48.501s-40.5 37.334 -53.5 53.001s-23.167 30.834 -30.5 45.501l-3 4c-40 3.33301 -78 12.333 -114 27c-70.667 29.333 -127.5 75.166 -170.5 137.499s-64.5 133.5 -64.5 213.5
c0 107.333 37.333 197.833 112 271.5s166.667 110.5 276 110.5s201.333 -36.833 276 -110.5s112 -164.167 112 -271.5c0 -80 -21.5 -151.167 -64.5 -213.5s-100.167 -108.166 -171.5 -137.499c-42.667 -17.333 -88.334 -27 -137.001 -29
c24.667 -12.667 53.334 -22 86.001 -28c103.333 -20.667 212.333 -17 327 11l-59 -130c-31.333 -14 -69 -21 -113 -21zM417.002 7.99707c66 0 114.833 32 146.5 96s47.5 151 47.5 261s-15.667 197.333 -47 262s-80.333 97 -147 97s-115.834 -32.333 -147.501 -97
s-47.5 -152 -47.5 -262s15.833 -197 47.5 -261s80.834 -96 147.501 -96z" />
    <glyph glyph-name="R" unicode="R" horiz-adv-x="723" 
d="M42 2c15.333 37.333 25.835 69.8311 31.502 97.498s8.5 64.834 8.5 111.501v310c0 46.667 -2.83301 83.5 -8.5 110.5s-16.167 59.833 -31.5 98.5v2h313c101.333 0 174.166 -15.667 218.499 -47s66.5 -75.666 66.5 -132.999c0 -89.333 -44.667 -151.333 -134 -186
l113 -230c18.667 -38 35.167 -66 49.5 -84s34.166 -34 59.499 -48v-4h-239l-162 339h-66v-128c0 -46 2.83301 -82.833 8.5 -110.5s16.167 -60.5 31.5 -98.5v-2h-259v2zM312.002 709.998h-23.001c-12 0 -21.333 -0.333008 -28 -1v-347h55
c50.667 0 86.834 17.833 108.501 53.5s32.5 80.167 32.5 133.5c0 107.333 -48.333 161 -145 161z" />
    <glyph glyph-name="S" unicode="S" horiz-adv-x="585" 
d="M509 533l-11.0078 -3.00195c-40 66 -77.833 114.833 -113.5 146.5s-72.167 47.5 -109.5 47.5c-30.667 0 -55.667 -8.83301 -75 -26.5s-29 -41.167 -29 -70.5c0 -18 3.5 -34 10.5 -48s20.833 -28.167 41.5 -42.5s35.834 -24.166 45.501 -29.499
s30.834 -15.666 63.501 -30.999c10 -4.66699 17.333 -8.33398 22 -11.001c30.667 -15.333 55.667 -29.333 75 -42s39.833 -29.334 61.5 -50.001s37.834 -44.667 48.501 -72s16 -58 16 -92c0 -76.667 -26 -133.167 -78 -169.5s-118.333 -54.5 -199 -54.5
c-79.333 0 -152 15 -218 45l-26 204l10 3c48.667 -80.667 93.334 -139 134.001 -175s83.334 -54 128.001 -54c38.667 0 68.834 11 90.501 33s32.5 49.667 32.5 83c0 17.333 -3.66699 33.5 -11 48.5s-15 27.333 -23 37s-22.167 20.834 -42.5 33.501s-35 21.5 -44 26.5
s-27.167 14.167 -54.5 27.5c-25.333 12.667 -45.833 23.334 -61.5 32.001s-33.667 20.667 -54 36s-36.166 30.5 -47.499 45.5s-21.166 33.5 -29.499 55.5s-12.5 46 -12.5 72c0 71.333 26.167 124 78.5 158s117.833 51 196.5 51c55.333 0 108 -8 158 -24z" />
    <glyph glyph-name="T" unicode="T" horiz-adv-x="742" 
d="M501 0l-260 -0.00390625v2c15.333 37.333 26 70 32 98s9 65 9 111v500l-49 -3c-8 -0.666992 -16.833 -3.66699 -26.5 -9s-20.334 -14.166 -32.001 -26.499s-21.5 -23.166 -29.5 -32.499s-19 -23.666 -33 -42.999s-23.667 -33 -29 -41l-30 -45
c-14.667 -22 -22.667 -34.333 -24 -37l-11 3l44 255h618l44 -255l-11 -3c-2 2.66699 -8.33301 12 -19 28l-22 33.5c-4 6.33301 -11.333 17.333 -22 33s-19 27.334 -25 35.001l-24 30.5c-10 12.667 -18.5 22.5 -25.5 29.5l-23 22
c-8.33301 7.66699 -16.166 13.167 -23.499 16.5s-14 5.33301 -20 6l-48 3v-500c0 -46 2.83301 -82.833 8.5 -110.5s16.167 -60.5 31.5 -98.5v-2z" />
    <glyph glyph-name="U" unicode="U" horiz-adv-x="734" 
d="M384 -15c-91.333 0 -163.998 23.1689 -217.998 69.502s-81 117.5 -81 213.5v253c0 46.667 -2.83301 83.334 -8.5 110.001s-16.5 59.667 -32.5 99v2h262v-2c-15.333 -34.667 -26 -66.5 -32 -95.5s-9 -66.833 -9 -113.5v-262c0 -158.667 57.333 -238 172 -238
c64 0 110.167 23.167 138.5 69.5s42.5 107.5 42.5 183.5v239c0 48.667 -6 87.667 -18 117s-34 62.666 -66 99.999v2h195l2 -2c-32 -40.667 -54 -75.334 -66 -104.001s-18 -66.334 -18 -113.001v-232c0 -45.333 -3.83301 -84.833 -11.5 -118.5s-20.834 -64.5 -39.501 -92.5
s-45.834 -49.167 -81.501 -63.5s-79.167 -21.5 -130.5 -21.5z" />
    <glyph glyph-name="V" unicode="V" horiz-adv-x="711" 
d="M302 -3l-201.999 551.001c-28.667 85.333 -61 146 -97 182v2h312v-2c-44 -50.667 -50.333 -117.334 -19 -200.001l136 -376l126 346c19.333 52 25.666 98.333 18.999 139s-25 71 -55 91v2h187v-2c-40 -36 -75.333 -97.667 -106 -185l-200 -548h-101z" />
    <glyph glyph-name="W" unicode="W" horiz-adv-x="1065" 
d="M267 -3l-173.999 551c-28 88 -57.667 148.667 -89 182v2h306v-2c-39.333 -45.333 -45 -112 -17 -200l108 -345l120 335l-9 28c-28.667 88.667 -58.334 149.334 -89.001 182.001v2h306v-2c-39.333 -46.667 -45.333 -113.334 -18 -200.001l110 -337l100 315
c34 104.667 20.667 178.667 -40 222v2h180v-2c-38 -36 -71.333 -99 -100 -189l-174 -544h-93l-159 481l-174 -481h-94z" />
    <glyph glyph-name="X" unicode="X" horiz-adv-x="728" 
d="M222 0h-216.003v2c33.333 20.667 62.333 44.167 87 70.5s51 60.166 79 101.499l114 169l-122 220c-25.333 46 -47.166 81.333 -65.499 106s-39.166 44.667 -62.499 60v3h321v-3c-13.333 -16 -19.166 -37.833 -17.499 -65.5s11.167 -57.167 28.5 -88.5l68 -123l51 84
c44.667 72 45.334 136.667 2.00098 194v2h216v-2c-68 -42 -124.333 -99.333 -169 -172l-84 -135l141 -254c26 -47.333 48.167 -83.166 66.5 -107.499s39.166 -43.833 62.499 -58.5v-3h-322v3c14 15.333 20.167 37 18.5 65s-11.167 57.667 -28.5 89l-89 160l-81 -120
c-12.667 -18.667 -21.5 -36.834 -26.5 -54.501s-8 -32 -9 -43s1.5 -24.167 7.5 -39.5s10.333 -25.166 13 -29.499l17 -28.5v-2z" />
    <glyph glyph-name="Y" unicode="Y" horiz-adv-x="660" 
d="M190 2c15.333 32 26 59.999 32 83.999s9 55.667 9 95v170l-116 213c-26 48.667 -46.833 84.5 -62.5 107.5s-33.5 42.167 -53.5 57.5v3h318v-3c-16.667 -14 -26.667 -35.833 -30 -65.5s4.66699 -65.5 24 -107.5l91 -167l79 141c44 78.667 35 145.334 -27 200.001v2h208v-2
c-28.667 -22 -53.167 -46.5 -73.5 -73.5s-42.5 -61.833 -66.5 -104.5l-112 -201v-170c0 -39.333 2.83301 -71 8.5 -95s16.167 -52 31.5 -84v-2h-260v2z" />
    <glyph glyph-name="Z" unicode="Z" horiz-adv-x="669" 
d="M15 0l0.00195312 8l417 704l-128 -7c-42.667 -1.33301 -86.5 -21.5 -131.5 -60.5s-83.833 -81.167 -116.5 -126.5l-8 3l51 211h547v-8l-415 -704l153 7c43.333 1.33301 88.666 24.333 135.999 69s88.666 93.667 123.999 147l8 -3l-53 -240h-584z" />
    <glyph glyph-name="bracketleft" unicode="[" horiz-adv-x="373" 
d="M70 755h281v-22h-136v-841h136v-22h-281v885z" />
    <glyph glyph-name="backslash" unicode="\" horiz-adv-x="392" 
d="M384 -130l-374 914h31l374 -914h-31z" />
    <glyph glyph-name="bracketright" unicode="]" horiz-adv-x="373" 
d="M303 -130h-281v22h136v841h-136v22h281v-885z" />
    <glyph glyph-name="asciicircum" unicode="^" horiz-adv-x="412" 
d="M206 606l-167 -134l-9 10l173 273h6l173 -273l-9 -10z" />
    <glyph glyph-name="underscore" unicode="_" horiz-adv-x="503" 
d="M36 -100v24h430v-24h-430z" />
    <glyph glyph-name="grave" unicode="`" horiz-adv-x="398" 
d="M306 531l-224 122l91 96l142 -209z" />
    <glyph glyph-name="a" unicode="a" horiz-adv-x="525" 
d="M231 72c16.667 0 30.667 3.33301 42 10v161c-34.667 -9.33301 -61.5 -23.333 -80.5 -42s-28.5 -40 -28.5 -64c0 -20 5.83301 -35.833 17.5 -47.5s28.167 -17.5 49.5 -17.5zM383 -14c-29.333 0 -53.334 7 -72.001 21s-30.334 32.667 -35.001 56
c-35.333 -52 -82 -78 -140 -78c-32.667 0 -59.667 8.5 -81 25.5s-32 41.833 -32 74.5c0 84 83.333 143.667 250 179v62c0 30 -7.16699 51.833 -21.5 65.5s-39.166 20.5 -74.499 20.5c-44 0 -87.333 -9 -130 -27l-4 7c60 74 138.333 111 235 111
c52.667 0 91.834 -11.667 117.501 -35s38.5 -55.333 38.5 -96v-257c0 -30 14.333 -45 43 -45c14 0 26.667 4 38 12l2 -4c-26 -61.333 -70.667 -92 -134 -92z" />
    <glyph glyph-name="b" unicode="b" horiz-adv-x="595" 
d="M296 -15c-70.667 0 -128.334 16.667 -173.001 50l-60 -38h-10v563c0 64.667 -16.667 117.667 -50 159v2l211 58v-355h3c39.333 52.667 91.333 79 156 79c58.667 0 105.834 -23 141.501 -69s53.5 -106.333 53.5 -181c0 -80 -23.167 -144.667 -69.5 -194
s-113.833 -74 -202.5 -74zM307 3c62.667 0 94.002 73.001 94.002 219.001c-0.666992 69.333 -10.334 120 -29.001 152s-47 48 -85 48c-28 0 -52.333 -7.33301 -73 -22v-241c0 -52.667 9.16699 -91.834 27.5 -117.501s40.166 -38.5 65.499 -38.5z" />
    <glyph glyph-name="c" unicode="c" horiz-adv-x="497" 
d="M471 136c-14 -47.333 -38.8311 -84.334 -74.498 -111.001s-80.5 -40 -134.5 -40c-70.667 0 -127.834 22.5 -171.501 67.5s-65.5 105.167 -65.5 180.5c0 78.667 26 143.334 78 194.001s119 76 201 76c51.333 0 96.666 -8 135.999 -24l15 -144l-10 -2
c-64 100 -115.667 150 -155 150c-29.333 0 -53.833 -16.833 -73.5 -50.5s-29.5 -78.5 -29.5 -134.5c0 -68 15.167 -118.333 45.5 -151s69.5 -49 117.5 -49c50 0 88.667 13.667 116 41z" />
    <glyph glyph-name="d" unicode="d" horiz-adv-x="612" 
d="M294 67c36 0 64.334 12.333 85.001 37v275c-8.66699 70.667 -35.334 106 -80.001 106c-33.333 0 -59.333 -18.667 -78 -56s-28 -93.333 -28 -168c0 -129.333 33.667 -194 101 -194zM380.001 84c-16 -28.667 -38.1689 -52.332 -66.502 -70.999s-61.166 -28 -98.499 -28
c-56.667 0 -102.167 21.833 -136.5 65.5s-51.5 100.5 -51.5 170.5c0 79.333 23.167 146.166 69.5 200.499s110.833 81.5 193.5 81.5c33.333 0 63 -4.33301 89 -13v69c0 65.333 -16.667 118.666 -50 159.999v2l211 58v-569c0 -51.333 3.83301 -88.666 11.5 -111.999
s20.834 -45 39.501 -65v-2l-209 -45v98h-2z" />
    <glyph glyph-name="e" unicode="e" horiz-adv-x="511" 
d="M266 485c-24.667 0 -43.833 -16.832 -57.5 -50.499s-20.5 -74.834 -20.5 -123.501l142 2v38c0 89.333 -21.333 134 -64 134zM485.001 143.001c-14 -48.667 -39.667 -87.166 -77 -115.499s-84 -42.5 -140 -42.5c-74 0 -133 23.667 -177 71s-66 107 -66 179
c0 77.333 23.667 141.333 71 192s106 76 176 76c66 0 118.5 -21.833 157.5 -65.5s57.833 -92.834 56.5 -147.501l-298 1c4.66699 -128.667 59 -193 163 -193c55.333 0 98.333 16 129 48z" />
    <glyph glyph-name="f" unicode="f" horiz-adv-x="368" 
d="M49 2c20.667 43.333 31 95.001 31 155.001v308h-63v22h63v25c0 78.667 24 142.667 72 192s108 74 180 74c30.667 0 59 -3.66699 85 -11l14 -135l-6 -2l-22.5 32.5l-25 36c-7 9.66699 -14.833 19.667 -23.5 30s-17 18.166 -25 23.499s-15.667 8 -23 8
c-18 0 -33.333 -16.5 -46 -49.5s-19 -75.833 -19 -128.5v-95h114v-22h-114v-308c0 -60 10.333 -111.667 31 -155v-2h-223v2z" />
    <glyph glyph-name="g" unicode="g" horiz-adv-x="563" 
d="M254 173c41.333 0 62 51.667 62 155c0 104.667 -21 157 -63 157c-22.667 0 -38.5 -13 -47.5 -39s-13.5 -65.333 -13.5 -118c0 -103.333 20.667 -155 62 -155zM536 -61c-0.666992 -52.667 -26.8301 -94 -78.4971 -124s-124.167 -45 -217.5 -45
c-72.667 0 -129.667 8.83301 -171 26.5s-62 42.167 -62 73.5c0 20.667 9 38.334 27 53.001s40.667 25 68 31c-50 18 -75 51 -75 99c0 34 10.667 61.5 32 82.5s46.666 36.5 75.999 46.5c-65.333 34 -98 82.667 -98 146c0 50 20.333 91.667 61 125s92.334 50 155.001 50
c55.333 0 103.666 -14.333 144.999 -43l138 86l2 -2v-113h-4l-117 14c35.333 -33.333 53 -72.333 53 -117c0 -48.667 -20.333 -89.667 -61 -123s-92.334 -50 -155.001 -50c-37.333 0 -72.666 7 -105.999 21c-12.667 -10 -19 -23 -19 -39
c0 -16.667 6.83301 -28.834 20.5 -36.501s37.167 -12.167 70.5 -13.5l89 -4c73.333 -4 129.666 -18 168.999 -42s58.666 -58 57.999 -102zM275.004 -204c52 0 91.8301 6.66699 119.497 20s41.5 32 41.5 56c0 19.333 -11.167 33.5 -33.5 42.5s-60.166 15.167 -113.499 18.5
l-99 5c-39.333 4 -63.666 7.66699 -72.999 11c-10.667 -16 -16 -33.667 -16 -53c0 -34 15.833 -59.167 47.5 -75.5s73.834 -24.5 126.501 -24.5z" />
    <glyph glyph-name="h" unicode="h" horiz-adv-x="603" 
d="M38 0l-0.000976562 2c16 48 24 106 24 174v384c0 64.667 -16.667 117.667 -50 159v2l211 58v-372c40 64 96 96 168 96c44.667 0 80.834 -12.667 108.501 -38s41.5 -59 41.5 -101v-188c0 -66.667 8 -124.667 24 -174v-2h-209v2c16 48 24 105.667 24 173v179
c0 22.667 -5.66699 40.667 -17 54s-28.333 20 -51 20c-35.333 0 -65 -16.333 -89 -49v-203c0 -66.667 8 -124.667 24 -174v-2h-209z" />
    <glyph glyph-name="i" unicode="i" horiz-adv-x="285" 
d="M218 655c0 -24 -8.66699 -44.5 -26 -61.5s-38 -25.5 -62 -25.5s-44.333 8.5 -61 25.5s-25 37.5 -25 61.5c0 23.333 8.33301 43.5 25 60.5s37 25.5 61 25.5s44.667 -8.5 62 -25.5s26 -37.167 26 -60.5zM40 2c16.667 62.667 25 120.666 25 173.999v112
c0 64.667 -17 117.334 -51 158.001v4l211 58v-332c0 -68 8 -126 24 -174v-2h-209v2z" />
    <glyph glyph-name="j" unicode="j" horiz-adv-x="280" 
d="M215 655c0 -24 -8.66699 -44.5 -26 -61.5s-38.333 -25.5 -63 -25.5c-24 0 -44.167 8.5 -60.5 25.5s-24.5 37.5 -24.5 61.5s8.16699 44.333 24.5 61s36.5 25 60.5 25c24.667 0 45.667 -8.5 63 -25.5s26 -37.167 26 -60.5zM-23 -208c56 27.333 83.999 85 83.999 173v336
c0 57.333 -16.667 105.666 -50 144.999v4l211 58l-5 -461c-1.33301 -83.333 -23.166 -146.166 -65.499 -188.499s-99.833 -66.833 -172.5 -73.5z" />
    <glyph glyph-name="k" unicode="k" horiz-adv-x="569" 
d="M370 0l-145.999 255.002v-98c0 -58.667 10.333 -110.334 31 -155.001v-2h-216v2c16 46.667 24 98.334 24 155.001v403c0 64.667 -16.667 117.667 -50 159v2l211 58v-524l120 109c14.667 13.333 24.5 28 29.5 44s6.16699 30.333 3.5 43s-7.33398 24 -14.001 34v2h176v-2
c-16 -6.66699 -32.5 -15.334 -49.5 -26.001s-28.667 -18.5 -35 -23.5s-19.833 -16.667 -40.5 -35s-31.334 -27.833 -32.001 -28.5l-32 -31l138 -234c2.66699 -4 6.33398 -10 11.001 -18s8.16699 -13.833 10.5 -17.5l9.5 -15.5c4 -6.66699 7.5 -11.834 10.5 -15.501l10.5 -13
c4 -5 8.16699 -9.5 12.5 -13.5l13.5 -12v-2h-196z" />
    <glyph glyph-name="l" unicode="l" horiz-adv-x="284" 
d="M39 2c16 46.667 24 98.333 24 155v403c0 64.667 -16.667 117.667 -50 159v2l211 58v-622c0 -54 8 -105.667 24 -155v-2h-209v2z" />
    <glyph glyph-name="m" unicode="m" horiz-adv-x="883" 
d="M244 0l-209 -0.00292969v2c16 48 24 106 24 174v113c0 36.667 -3.83301 66.834 -11.5 90.501s-20.5 46.5 -38.5 68.5v2l207 58v-100l4 -1c14.667 26 35.834 48.5 63.501 67.5s60.167 28.5 97.5 28.5c36 0 66 -8.33301 90 -25s39.667 -40 47 -70l3 -1c40 64 94 96 162 96
c42.667 0 76.667 -12 102 -36s38 -57 38 -99v-191c0 -67.333 8 -125.666 24 -174.999v-2h-208v2c16 48 24 105.667 24 173v186c0 44.667 -19.333 67 -58 67c-35.333 0 -63.333 -17.333 -84 -52v-199c0 -67.333 8.33301 -125.666 25 -174.999v-2h-209v2
c16 48 24 105.667 24 173v186c0 44.667 -19.333 67 -58 67c-34.667 0 -62.334 -17.333 -83.001 -52v-200c0 -66.667 8 -124.667 24 -174v-2z" />
    <glyph glyph-name="n" unicode="n" horiz-adv-x="606" 
d="M250 0h-209.002v2c16.667 50 25 108 25 174l-1 113c0 37.333 -3.83301 67.666 -11.5 90.999s-20.5 46 -38.5 68v2l207 58v-100l4 -1c40 64 96 96 168 96c44.667 0 80.834 -12.667 108.501 -38s41.5 -59 41.5 -101v-187c0 -67.333 8 -125.666 24 -174.999v-2h-209v2
c16 48 24 105.667 24 173v179c0 22.667 -5.66699 40.667 -17 54s-28.666 20 -51.999 20c-36 0 -65.333 -16.333 -88 -49v-203c0 -66.667 8 -124.667 24 -174v-2z" />
    <glyph glyph-name="o" unicode="o" horiz-adv-x="588" 
d="M294 -15c-73.333 0 -136.5 25.5 -189.5 76.5s-79.5 111.5 -79.5 181.5s26.5 130.833 79.5 182.5s116.167 77.5 189.5 77.5s136.5 -25.833 189.5 -77.5s79.5 -112.5 79.5 -182.5s-26.5 -130.5 -79.5 -181.5s-116.167 -76.5 -189.5 -76.5zM294 4c34 0 59.667 21.5 77 64.5
s26 101.167 26 174.5c0 74 -8.66699 132.667 -26 176s-43 65 -77 65c-34.667 0 -60.5 -21.5 -77.5 -64.5s-25.5 -101.833 -25.5 -176.5c0 -73.333 8.66699 -131.5 26 -174.5s43 -64.5 77 -64.5z" />
    <glyph glyph-name="p" unicode="p" horiz-adv-x="604" 
d="M310 3c32 0 56.667 19.3311 74 57.998s26 92.334 26 161.001c0 69.333 -9.33301 120 -28 152s-47.667 48 -87 48c-28 0 -51.667 -7 -71 -21v-242c0 -53.333 8.16699 -92.666 24.5 -117.999s36.833 -38 61.5 -38zM38 -225.002v1.99902c16.667 50 25 108 25 174v338
c0 36.667 -3.83301 66.834 -11.5 90.501s-20.5 46.5 -38.5 68.5v2l207 58v-83l6 -1c39.333 52.667 92 79 158 79c58 0 104.833 -23 140.5 -69s53.5 -106.333 53.5 -181c0 -80 -22.333 -144.667 -67 -194s-110 -74 -196 -74c-32 0 -62.333 4 -91 12v-46
c0 -69.333 7.66699 -127.333 23 -174v-2h-209z" />
    <glyph glyph-name="q" unicode="q" horiz-adv-x="600" 
d="M355 -223c16 48 24 105.999 24 173.999v131c-16 -28 -38 -51.167 -66 -69.5s-60.667 -27.5 -98 -27.5c-56.667 0 -102.167 21.833 -136.5 65.5s-51.5 100.167 -51.5 169.5c0 38 5.5 73.5 16.5 106.5s27.167 62.833 48.5 89.5s50 47.834 86 63.501s76.667 23.5 122 23.5
c68.667 0 128 -14.333 178 -43l58 41h4v-550c0 -66.667 8 -124.667 24 -174v-2h-209v2zM298 66.999c36 0 63 12 81 36v279c-4.66699 34 -14 59.667 -28 77s-31.667 26 -53 26c-32 0 -57.5 -18.5 -76.5 -55.5s-28.5 -91.5 -28.5 -163.5c0 -132.667 35 -199 105 -199z" />
    <glyph glyph-name="r" unicode="r" horiz-adv-x="417" 
d="M41 0v2.00098c16 48 24 106 24 174v113c0 37.333 -3.83301 67.666 -11.5 90.999s-20.5 46 -38.5 68v2l207 58v-121c4 4 14.667 15.667 32 35s31 33.5 41 42.5s24.833 18 44.5 27s39.5 12.833 59.5 11.5l-18 -168h-5c-10.667 16 -27.334 29.833 -50.001 41.5
s-40.667 17.5 -54 17.5s-28.666 -9.66699 -45.999 -29v-189c0 -66.667 8 -124.667 24 -174v-2h-209z" />
    <glyph glyph-name="s" unicode="s" horiz-adv-x="429" 
d="M373 360l-9.00293 -1.99805c-32.667 45.333 -60.667 77.666 -84 96.999s-47.333 29 -72 29c-20.667 0 -38 -5.83301 -52 -17.5s-21 -27.167 -21 -46.5c0 -16 6.5 -30.667 19.5 -44s25.667 -23 38 -29s32.833 -14.667 61.5 -26c5.33301 -2 9.33301 -3.66699 12 -5
c21.333 -9.33301 38.833 -18.333 52.5 -27s28 -19.667 43 -33s26.333 -29.666 34 -48.999s11.5 -41 11.5 -65c0 -53.333 -19.167 -92.833 -57.5 -118.5s-88.166 -38.5 -149.499 -38.5c-60.667 0 -115 10.333 -163 31l-14 140l9 2c34 -52 66.333 -90.833 97 -116.5
s62.334 -38.5 95.001 -38.5c24 0 41.833 6.16699 53.5 18.5s17.5 27.833 17.5 46.5c0 12.667 -2.66699 24 -8 34s-14.666 19.5 -27.999 28.5s-25 16.167 -35 21.5s-25.667 12.666 -47 21.999c-22.667 10.667 -40.5 19.667 -53.5 27s-27.667 18 -44 32s-28.5 30.667 -36.5 50
s-12 41.333 -12 66c0 51.333 19.167 89.666 57.5 114.999s87.5 38 147.5 38c48.667 0 90 -5.66699 124 -17z" />
    <glyph glyph-name="t" unicode="t" horiz-adv-x="377" 
d="M201 -15c-42.667 0 -76.332 11.167 -100.999 33.5s-37 57.5 -37 105.5v341h-56v9l206 129h11v-116h119v-22h-119v-337c0 -52.667 24 -79 72 -79c26.667 0 45.667 5.66699 57 17l3 -3c-12.667 -22 -32.334 -40.5 -59.001 -55.5s-58.667 -22.5 -96 -22.5z" />
    <glyph glyph-name="u" unicode="u" horiz-adv-x="581" 
d="M349 96c-14 -27.333 -35.166 -52.6689 -63.499 -76.002s-61.833 -35 -100.5 -35c-42.667 0 -75.834 14.333 -99.501 43s-35.5 67.334 -35.5 116.001v227c0 27.333 -3 49 -9 65s-15.667 32 -29 48v3h198v-344c0 -22 5.33301 -40 16 -54s26.667 -21 48 -21
c30 0 54.333 16.333 73 49v255c0 28 -3 50.167 -9 66.5s-15.667 31.833 -29 46.5v2h199v-279c0 -53.333 3.5 -91.166 10.5 -113.499s20.167 -42.833 39.5 -61.5v-2l-206 -45v109z" />
    <glyph glyph-name="v" unicode="v" horiz-adv-x="482" 
d="M67 335c-28.667 73.333 -55.001 123.334 -79.001 150.001v2h249v-2c-10 -12.667 -15.333 -32.667 -16 -60s4.66602 -57 15.999 -89l61 -159l63 150c10 23.333 15.333 46.5 16 69.5s-1.16602 41.333 -5.49902 55s-9.83301 24.834 -16.5 33.501v2h125v-2
c-19.333 -20.667 -35.666 -41.334 -48.999 -62.001s-28 -50.334 -44 -89.001l-143 -341h-39z" />
    <glyph glyph-name="w" unicode="w" horiz-adv-x="742" 
d="M64 335c-25.333 69.333 -50.6699 119.334 -76.0029 150.001v2h249v-2c-9.33301 -12 -14.5 -32 -15.5 -60s3.5 -57.667 13.5 -89l50 -153l68 169c-15.333 41.333 -27.333 70.833 -36 88.5s-19 32.5 -31 44.5v2h245v-2c-8.66699 -12 -13.5 -31.5 -14.5 -58.5
s3.16699 -57.167 12.5 -90.5l43 -138l50 129c10 23.333 15.333 46.5 16 69.5s-1.66602 41.667 -6.99902 56s-11.666 25.166 -18.999 32.499v2h128v-2c-20 -22 -36.667 -43.167 -50 -63.5s-27.666 -49.5 -42.999 -87.5l-133 -341h-38l-112 328l-136 -328h-38z" />
    <glyph glyph-name="x" unicode="x" horiz-adv-x="518" 
d="M136 0l-135.001 0.00195312v2c18.667 15.333 33.334 28 44.001 38s24.334 24.5 41.001 43.5s34.667 42.167 54 69.5l49 66l-71 119c-26.667 44.667 -47 76.334 -61 95.001s-29.667 36 -47 52v2h253v-2c-18.667 -28.667 -9.66699 -74.334 27 -137.001l30 -49l20 28
c17.333 22.667 29.666 44.667 36.999 66s10.166 39.5 8.49902 54.5s-6.16699 27.5 -13.5 37.5v2h135v-2c-42 -34.667 -87.667 -85 -137 -151l-39 -54l78 -131c26.667 -44.667 46.834 -76.334 60.501 -95.001s29.5 -36 47.5 -52v-2h-252v2c17.333 28 8 73.667 -28 137l-37 62
l-30 -41c-50 -64.667 -61.333 -117.334 -34 -158.001v-2z" />
    <glyph glyph-name="y" unicode="y" horiz-adv-x="480" 
d="M19 -93c96.667 -8.66699 160.332 12.999 190.999 64.999l-146 363c-33.333 80.667 -58.666 130.667 -75.999 150v2h245v-2c-10 -12.667 -15.5 -33.167 -16.5 -61.5s4.83301 -59.833 17.5 -94.5l60 -156l66 158c9.33301 22.667 14.166 44.834 14.499 66.501
s-1.83398 39.5 -6.50098 53.5s-10.667 25.333 -18 34v2h128v-2c-19.333 -21.333 -35.666 -42.333 -48.999 -63s-28 -50 -44 -88l-135 -323c-19.333 -46 -37.833 -83.5 -55.5 -112.5s-36.667 -51.5 -57 -67.5s-38.166 -27.333 -53.499 -34s-37 -14 -65 -22v132z" />
    <glyph glyph-name="z" unicode="z" horiz-adv-x="487" 
d="M15 0l-0.000976562 8l257 463l-76 -4c-10 -0.666992 -20.167 -3.33398 -30.5 -8.00098s-21.666 -12.5 -33.999 -23.5l-30 -27.5c-7.66699 -7.33301 -19.667 -19.833 -36 -37.5l-33.5 -36.5l-7 2l41 151h385v-8l-257 -464l93 4c28 0.666992 54.5 12.834 79.5 36.501
s56.5 62.5 94.5 116.5l7 -2l-40 -170h-413z" />
    <glyph glyph-name="braceleft" unicode="{" horiz-adv-x="381" 
d="M329 -130c-77.333 0 -136.5 11.6689 -177.5 35.002s-61.5 57.333 -61.5 102c0 29.333 13.167 67.333 39.5 114s39.5 80.334 39.5 101.001c0 24.667 -9.5 44 -28.5 58s-45.167 21 -78.5 21h-25v23h25c34 0 60.333 6.83301 79 20.5s28 33.167 28 58.5
c0 20.667 -13.167 54.167 -39.5 100.5s-39.5 84.5 -39.5 114.5c0 44.667 20.5 78.667 61.5 102s100.167 35 177.5 35h30v-22h-30c-28.667 0 -51.167 -6.5 -67.5 -19.5s-24.5 -39.167 -24.5 -78.5c0 -20.667 5.33301 -50.834 16 -90.501s16 -70.834 16 -93.501
c0 -45.333 -14.167 -78.5 -42.5 -99.5s-68.5 -33.833 -120.5 -38.5v-1c52 -4 92 -16.667 120 -38s42 -55 42 -101c0 -22.667 -5.16699 -53.834 -15.5 -93.501s-15.5 -69.5 -15.5 -89.5c0 -38.667 8.16699 -64.667 24.5 -78s38.833 -20 67.5 -20h30v-22h-30z" />
    <glyph glyph-name="bar" unicode="|" horiz-adv-x="205" 
d="M89 -130v911h27v-911h-27z" />
    <glyph glyph-name="braceright" unicode="}" horiz-adv-x="381" 
d="M22 -130v21.998h30c28.667 0 51.167 6.66699 67.5 20s24.5 39.333 24.5 78c0 20 -5.16699 49.833 -15.5 89.5s-15.5 70.834 -15.5 93.501c0 46 14 79.667 42 101s68 34 120 38v1c-52 4.66699 -92.167 17.5 -120.5 38.5s-42.5 54.167 -42.5 99.5
c0 22.667 5.33301 53.834 16 93.501s16 69.834 16 90.501c0 39.333 -8.16699 65.5 -24.5 78.5s-38.833 19.5 -67.5 19.5h-30v22h30c77.333 0 136.5 -11.667 177.5 -35s61.5 -57.333 61.5 -102c0 -30 -13.167 -68.167 -39.5 -114.5s-39.5 -79.833 -39.5 -100.5
c0 -25.333 9.33301 -44.833 28 -58.5s45 -20.5 79 -20.5h25v-23h-25c-33.333 0 -59.5 -7 -78.5 -21s-28.5 -33.333 -28.5 -58c0 -20.667 13.167 -54.334 39.5 -101.001s39.5 -84.667 39.5 -114c0 -44.667 -20.5 -78.667 -61.5 -102s-100.167 -35 -177.5 -35h-30z" />
    <glyph glyph-name="asciitilde" unicode="~" horiz-adv-x="452" 
d="M145 350c16.667 0 46.167 -8.33496 88.5 -25.002s76.166 -25 101.499 -25c20.667 0 36.167 4.66699 46.5 14s18.5 24.333 24.5 45l11 -1c-5.33301 -104 -41.666 -156 -108.999 -156c-21.333 0 -53.833 8.33301 -97.5 25s-74.834 25 -93.501 25
c-36 0 -58.667 -20.333 -68 -61l-12 1c0.666992 16.667 2.83398 32.834 6.50098 48.501s9.16699 32.334 16.5 50.001s18.333 32 33 43s32 16.5 52 16.5z" />
    <glyph glyph-name="uni00A0" unicode="&#xa0;" horiz-adv-x="167" 
 />
    <glyph glyph-name="exclamdown" unicode="&#xa1;" horiz-adv-x="241" 
d="M209 -245h-177v2l80 471h17l80 -471v-2zM120 492c24 0 44.667 -8.66797 62 -26.001s26 -37.666 26 -60.999c0 -24 -8.5 -44.5 -25.5 -61.5s-37.833 -25.5 -62.5 -25.5c-24 0 -44.333 8.5 -61 25.5s-25 37.5 -25 61.5s8.33301 44.5 25 61.5s37 25.5 61 25.5z" />
    <glyph glyph-name="cent" unicode="&#xa2;" horiz-adv-x="493" 
d="M471 136c-12.667 -46 -36.9961 -82.667 -72.9961 -110c-28 -20.667 -61.667 -33.667 -101 -39v-101h-27v99h-8c-70.667 0 -127.834 22.5 -171.501 67.5s-65.5 105.167 -65.5 180.5c0 58 14.833 109.167 44.5 153.5s70.167 76.5 121.5 96.5
c25.333 9.33301 51.666 15.333 78.999 18v69h27v-67h7c51.333 0 96.666 -8 135.999 -24l15 -144l-10 -2c-28 44 -55.667 80.333 -83 109c-22.667 24.667 -44.334 38 -65.001 40v-376c18 -5.33301 35.667 -8 53 -8c50 0 88.667 13.667 116 41zM217.004 433
c-20 -32.667 -30 -77.6689 -30 -135.002c0 -67.333 16 -118.666 48 -153.999c13.333 -13.333 25 -22.666 35 -27.999v364c-20 -6 -37.667 -21.667 -53 -47z" />
    <glyph glyph-name="sterling" unicode="&#xa3;" horiz-adv-x="599" 
d="M515 0l-518.002 0.00195312v8c24.667 14.667 43.334 27.167 56.001 37.5s25 23.166 37 38.499s21 35.5 27 60.5s11.333 54 16 87s9.66699 78.167 15 135.5h-88l5 23h85c0 1.33301 0.166992 3.33301 0.5 6s0.5 4.66699 0.5 6l5 70
c3.33301 46.667 12.833 88.167 28.5 124.5s35.5 65.166 59.5 86.499s49.333 37.333 76 48s54 16 82 16c22 0 44.333 -2.66699 67 -8s39.334 -11 50.001 -17l16 -189l-11 -3c-8 14 -18.833 34 -32.5 60l-30.5 57c-6.66699 12 -14.667 25.333 -24 40s-17.666 25 -24.999 31
s-14.333 9 -21 9c-34 0 -56.333 -79 -67 -237l-3 -32c-4 -30.667 -7.66699 -53.334 -11 -68.001h121l-5 -23h-121c-30 -113.333 -82.667 -193 -158 -239h278c38.667 0 69.667 6.83301 93 20.5s45.666 35.834 66.999 66.501l8 -3z" />
    <glyph glyph-name="yen" unicode="&#xa5;" horiz-adv-x="605" 
d="M161 2c15.333 32.667 25.8311 60.8281 31.498 84.4951s8.5 55.167 8.5 94.5v13h-136v24h136v110h-136v23h134l-98 213c-20 46.667 -38.667 81.834 -56 105.501s-38.666 43.5 -63.999 59.5v3h308v-3c-12.667 -11.333 -18.667 -33.166 -18 -65.499
s9.33398 -68.166 26.001 -107.499l74 -168l64 142c33.333 74.667 29.333 141.334 -12 200.001v2h201v-2c-35.333 -26.667 -65 -53.667 -89 -81s-44.333 -59.666 -61 -96.999l-92 -201h135v-23h-137v-110h137v-24h-137v-13c0 -39.333 2.83301 -71 8.5 -95
s16.167 -52 31.5 -84v-2h-259v2z" />
    <glyph glyph-name="brokenbar" unicode="&#xa6;" horiz-adv-x="205" 
d="M89 365v416h27v-416h-27zM89 -130v415h27v-415h-27z" />
    <glyph glyph-name="section" unicode="&#xa7;" horiz-adv-x="488" 
d="M226 -164c-50 0 -95.666 7.33105 -136.999 21.998l-12 145l6 2c53.333 -100 105.333 -150 156 -150c22.667 0 40.834 8.16699 54.501 24.5s20.5 36.5 20.5 60.5c0 14 -2.83301 27.333 -8.5 40s-11.834 23.167 -18.501 31.5s-17.834 18 -33.501 29
s-27.5 18.833 -35.5 23.5l-43 24c-22 13.333 -39.833 24.833 -53.5 34.5s-28.167 22.167 -43.5 37.5s-26.666 32.5 -33.999 51.5s-11 40.167 -11 63.5c0 40.667 11.167 74.834 33.5 102.501s51.833 46.5 88.5 56.5c-49.333 40 -74 87.667 -74 143
c0 50 16.5 90.833 49.5 122.5s79.833 47.5 140.5 47.5c49.333 0 91 -6.66699 125 -20l12 -125l-6 -2c-53.333 85.333 -103 128 -149 128c-25.333 0 -45 -9 -59 -27s-21 -39.667 -21 -65c0 -17.333 3.33301 -32.833 10 -46.5s18.5 -27.167 35.5 -40.5
s30.5 -23.166 40.5 -29.499s28 -16.833 54 -31.5c21.333 -12.667 38.833 -23.834 52.5 -33.501s28.167 -22.167 43.5 -37.5s26.666 -32.5 33.999 -51.5s11 -40.167 11 -63.5c0 -39.333 -10.667 -72.833 -32 -100.5s-50.333 -46.5 -87 -56.5c48 -39.333 72 -88.333 72 -147
c0 -49.333 -15.667 -88.666 -47 -117.999s-76 -44 -134 -44zM257.001 195.998l34.0049 -20.0029c14.667 -9.33301 25.667 -16.666 33 -21.999c31.333 16 47 44 47 84c0 6.66699 -0.833008 13.334 -2.5 20.001s-3.33398 12.667 -5.00098 18s-4.83398 10.833 -9.50098 16.5
s-8.33398 10.5 -11.001 14.5s-7.66699 8.83301 -15 14.5l-16 12.5c-3.33301 2.66699 -9.66602 7 -18.999 13l-19 12l-21.5 12.5l-21.5 12.5c-28.667 16 -50.334 30 -65.001 42c-15.333 -7.33301 -27.5 -18.833 -36.5 -34.5s-13.5 -32.5 -13.5 -50.5
c0 -16 2.83301 -30.333 8.5 -43s16.667 -25.5 33 -38.5s28.666 -22.167 36.999 -27.5s25.166 -15 50.499 -29c5.33301 -3.33301 9.33301 -5.66602 12 -6.99902z" />
    <glyph glyph-name="dieresis" unicode="&#xa8;" 
d="M392 655c0 -23.333 -8.16699 -43 -24.5 -59s-36.166 -24 -59.499 -24s-42.666 8 -57.999 24s-23 35.667 -23 59c0 22.667 7.66699 42 23 58s34.666 24 57.999 24s43.166 -8 59.499 -24s24.5 -35.333 24.5 -58zM172 655c0 -23.333 -8.16699 -43 -24.5 -59
s-36.166 -24 -59.499 -24c-22.667 0 -41.834 8 -57.501 24s-23.5 35.667 -23.5 59c0 22.667 7.83301 42 23.5 58s34.834 24 57.501 24c23.333 0 43.166 -8 59.499 -24s24.5 -35.333 24.5 -58z" />
    <glyph glyph-name="copyright" unicode="&#xa9;" horiz-adv-x="810" 
d="M23 366c0 106 37 195.833 111 269.5s164 110.5 270 110.5s196.167 -36.833 270.5 -110.5s111.5 -163.5 111.5 -269.5s-37.167 -196 -111.5 -270s-164.5 -111 -270.5 -111s-196 37 -270 111s-111 164 -111 270zM52 366c0 -98.667 34.333 -182.834 103 -252.501
s151.667 -104.5 249 -104.5c98 0 181.333 34.833 250 104.5s103 153.834 103 252.501s-34.333 182.667 -103 252s-152 104 -250 104c-97.333 0 -180.333 -34.667 -249 -104s-103 -153.333 -103 -252zM567 199c-40.667 -28 -90.999 -41.999 -150.999 -41.999
c-66.667 0 -122.167 19.167 -166.5 57.5s-66.5 87.166 -66.5 146.499c0 60 22.667 110.833 68 152.5s101.666 62.5 168.999 62.5c41.333 0 89.333 -7 144 -21l11 -112l-7 -2c-33.333 45.333 -60 76.166 -80 92.499s-43.667 24.5 -71 24.5c-78.667 0 -118 -65.667 -118 -197
c0 -60 10 -106.333 30 -139s49 -49 87 -49c30.667 0 57.5 11.833 80.5 35.5s47.833 60.834 74.5 111.501l6 -2z" />
    <glyph glyph-name="ordfeminine" unicode="&#xaa;" horiz-adv-x="414" 
d="M183 427c10 0 18.667 2.33301 26 7v120c-46.667 -12.667 -70 -38.667 -70 -78c0 -32.667 14.667 -49 44 -49zM300 348c-25.333 0 -45.333 6.16504 -60 18.498s-23.334 28.833 -26.001 49.5c-24 -46 -61 -69 -111 -69c-25.333 0 -46 6.66699 -62 20s-24 33 -24 59
c0 40 18.667 71.667 56 95s82.666 40 135.999 50v29c0 24.667 -6.33301 42.334 -19 53.001s-32.667 16 -60 16c-30.667 0 -61 -5.66699 -91 -17l-2 7c52.667 59.333 115.334 89 188.001 89c40 0 70.5 -9.16699 91.5 -27.5s31.5 -44.166 31.5 -77.499v-185
c0 -24.667 11 -37 33 -37c8 0 16 2.33301 24 7l3 -3c-5.33301 -18.667 -17.166 -36.167 -35.499 -52.5s-42.5 -24.5 -72.5 -24.5z" />
    <glyph glyph-name="guillemotleft" unicode="&#xab;" horiz-adv-x="432" 
d="M361 52l-164 175v20l164 175l8 -6l-73 -179l73 -179zM204 52l-164 175v20l164 175l8 -6l-73 -179l73 -179z" />
    <glyph glyph-name="registered" unicode="&#xae;" horiz-adv-x="440" 
d="M10 541c0 57.333 20.667 106 62 146s91.333 60 150 60c58 0 107.167 -19.833 147.5 -59.5s60.5 -88.5 60.5 -146.5c0 -57.333 -20.667 -105.833 -62 -145.5s-91 -59.5 -149 -59.5c-58.667 0 -108.167 19.667 -148.5 59s-60.5 88 -60.5 146zM37 541
c0 -51.333 17.667 -94.5 53 -129.5s78.666 -52.5 129.999 -52.5c52 0 95.5 17.333 130.5 52s52.5 78 52.5 130s-17.667 95.5 -53 130.5s-78.666 52.5 -129.999 52.5c-52 0 -95.5 -17.5 -130.5 -52.5s-52.5 -78.5 -52.5 -130.5zM128 434
c8 18.667 11.999 39.666 11.999 62.999v92c0 22.667 -4 43.334 -12 62.001v2h100c30.667 0 52.334 -4.66699 65.001 -14s19 -23.333 19 -42c0 -26.667 -13 -45 -39 -55l31 -68c8.66699 -18 19.667 -31.333 33 -40v-2h-76l-46 101h-18v-36c0 -22.667 3.66699 -43.667 11 -63
v-2h-80v2zM213.999 639.999h-7c-4.66699 0 -8 -0.333008 -10 -1v-93h19c26 0 39 16.333 39 49c0 30 -13.667 45 -41 45z" />
    <glyph glyph-name="macron" unicode="&#xaf;" horiz-adv-x="398" 
d="M50 648h298v-67h-298v67z" />
    <glyph glyph-name="degree" unicode="&#xb0;" horiz-adv-x="298" 
d="M16 615c0 36 13.168 67.001 39.501 93.001s58.166 39 95.499 39s68.333 -12.833 93 -38.5s37 -56.834 37 -93.501s-13.167 -68 -39.5 -94s-57.833 -39 -94.5 -39c-37.333 0 -68.5 12.833 -93.5 38.5s-37.5 57.167 -37.5 94.5zM44.001 615.001
c0 -32 9.66699 -58.167 29 -78.5s44.666 -30.5 75.999 -30.5c30.667 0 55.667 10.333 75 31s29 46.667 29 78c0 30.667 -9.83301 56.334 -29.5 77.001s-44.5 31 -74.5 31c-31.333 0 -56.666 -10.333 -75.999 -31s-29 -46.334 -29 -77.001z" />
    <glyph glyph-name="acute" unicode="&#xb4;" horiz-adv-x="398" 
d="M244 749l89 -96l-223 -119l-9 9z" />
    <glyph glyph-name="paragraph" unicode="&#xb6;" horiz-adv-x="480" 
d="M363 0v1c10 46.667 15 95 15 145v440c0 60 -5 108.333 -15 145v1h64v-1c-10 -38.667 -15 -87 -15 -145v-440c0 -60 5 -108.333 15 -145v-1h-64zM253 0v1c10 46.667 15 95 15 145v195h-62c-54 0 -100.167 19.333 -138.5 58s-57.5 84.667 -57.5 138
c0 54 19.167 100 57.5 138s84.5 57 138.5 57h111v-1c-10 -38.667 -15 -87 -15 -145v-440c0 -60 5 -108.333 15 -145v-1h-64z" />
    <glyph glyph-name="periodcentered" unicode="&#xb7;" horiz-adv-x="258" 
d="M129 205c-23.333 0 -43.166 8.16699 -59.499 24.5s-24.5 36.166 -24.5 59.499s8.16699 43.166 24.5 59.499s36.166 24.5 59.499 24.5s43.166 -8.16699 59.499 -24.5s24.5 -36.166 24.5 -59.499s-8.16699 -43.166 -24.5 -59.499s-36.166 -24.5 -59.499 -24.5z" />
    <glyph glyph-name="cedilla" unicode="&#xb8;" horiz-adv-x="398" 
d="M119 -247c48 21.333 72 47.665 72 78.998c0 17.333 -7 29 -21 35s-28.333 8 -43 6l-2 2l79 127h28l-32 -50c27.333 -3.33301 49 -12.166 65 -26.499s24 -32.833 24 -55.5c0 -30.667 -14.333 -57.167 -43 -79.5s-69.667 -38.166 -123 -47.499z" />
    <glyph glyph-name="ordmasculine" unicode="&#xba;" horiz-adv-x="468" 
d="M234 347c-56.667 0 -106 19.833 -148 59.5s-63 86.5 -63 140.5s20.833 101 62.5 141s91.167 60 148.5 60s106.833 -20 148.5 -60s62.5 -87 62.5 -141s-20.833 -100.833 -62.5 -140.5s-91.167 -59.5 -148.5 -59.5zM235 364c45.333 0 68 61.001 68 183.001s-23 183 -69 183
c-24.667 0 -42.167 -15.333 -52.5 -46s-15.5 -76.334 -15.5 -137.001c0 -122 23 -183 69 -183z" />
    <glyph glyph-name="guillemotright" unicode="&#xbb;" horiz-adv-x="432" 
d="M220 58l73 179l-73 179l8 6l164 -175v-20l-164 -175zM64 58l73 179l-73 179l8 6l164 -175v-20l-164 -175z" />
    <glyph glyph-name="onequarter" unicode="&#xbc;" horiz-adv-x="687" 
d="M37 334v2c12 14 19.833 26.667 23.5 38s5.5 27 5.5 47v228h-49v10c68.667 22 126 52.667 172 92h5v-330c0 -20 1.83301 -35.5 5.5 -46.5s11.167 -23.833 22.5 -38.5v-2h-185zM68 17l520 726l21 -15l-520 -727zM455 2c14.667 25.333 22 53.667 22 85v13h-150v5l169 295
h155l-300 -283h126v100h134v-100h56l-5 -17h-51v-13c0 -34 7.33301 -62.333 22 -85v-2h-178v2z" />
    <glyph glyph-name="onehalf" unicode="&#xbd;" horiz-adv-x="733" 
d="M65 17l520 726l21 -15l-520 -727zM392 0v5c61.333 65.333 104.833 121.833 130.5 169.5s38.5 94.5 38.5 140.5c0 55.333 -12.667 83 -38 83c-14 0 -31.333 -11.5 -52 -34.5s-38 -51.5 -52 -85.5l-8 2l14 115c30 12 64.667 18 104 18c53.333 0 93.5 -10.167 120.5 -30.5
s40.5 -46.5 40.5 -78.5c0 -34.667 -16.333 -68.167 -49 -100.5s-84.667 -69.5 -156 -111.5h109c43.333 0 78 20 104 60l7 -2l-41 -150h-272zM37 334v2c12 14 19.833 26.667 23.5 38s5.5 27 5.5 47v228h-49v10c68.667 22 126 52.667 172 92h5v-330
c0 -20 1.83301 -35.5 5.5 -46.5s11.167 -23.833 22.5 -38.5v-2h-185z" />
    <glyph glyph-name="threequarters" unicode="&#xbe;" horiz-adv-x="738" 
d="M154 326c-52.667 0 -92.334 8.33301 -119.001 25l-12 98l10 3c17.333 -27.333 30.166 -47 38.499 -59s18.833 -23.167 31.5 -33.5s25.334 -15.5 38.001 -15.5c18.667 0 33.834 9.5 45.501 28.5s17.5 45.167 17.5 78.5c0 66 -22.667 99 -68 99
c-17.333 0 -38.666 -7.33301 -63.999 -22l-7 10l126 103h-151l28 93h260v-5l-200 -163c16.667 3.33301 31.667 5 45 5c41.333 0 77.666 -10 108.999 -30s47 -50 47 -90c0 -39.333 -16 -70 -48 -92s-74.333 -33 -127 -33zM119 17l520 726l21 -15l-520 -727zM506 2
c14.667 25.333 22 53.667 22 85v13h-150v5l169 295h155l-300 -283h126v100h134v-100h56l-5 -17h-51v-13c0 -34 7.33301 -62.333 22 -85v-2h-178v2z" />
    <glyph glyph-name="questiondown" unicode="&#xbf;" horiz-adv-x="433" 
d="M317 228c-2 -28 -9.66699 -55.167 -23 -81.5s-27.333 -48.333 -42 -66s-28.167 -41.334 -40.5 -71.001s-18.5 -62.167 -18.5 -97.5c0 -47.333 7 -84.333 21 -111s32.333 -40 55 -40c10.667 0 21.167 3.16699 31.5 9.5s21 16.833 32 31.5s20.167 27.834 27.5 39.501
s17.333 28.5 30 50.5c4.66699 8.66699 8.33398 15 11.001 19l7 -2l-21 -145c-39.333 -16 -88 -24 -146 -24c-70.667 0 -125.334 13 -164.001 39s-58 65.333 -58 118c0 34 8.16699 64.333 24.5 91s37 49.167 62 67.5s50.5 35.5 76.5 51.5s50.333 34.333 73 55
s38 42.667 46 66h16zM297 492c24 0 44.5 -8.66699 61.5 -26s25.5 -37.666 25.5 -60.999c0 -24 -8.5 -44.5 -25.5 -61.5s-37.5 -25.5 -61.5 -25.5c-24.667 0 -45.5 8.5 -62.5 25.5s-25.5 37.5 -25.5 61.5c0 23.333 8.66699 43.666 26 60.999s38 26 62 26z" />
    <glyph glyph-name="Agrave" unicode="&#xc0;" horiz-adv-x="704" 
d="M283 596l-108 -297h212zM187 0h-184.001v2c38.667 36.667 74.334 99 107.001 187l197 546h101l200 -551c28.667 -80 59.667 -140.667 93 -182v-2h-298v2c40.667 53.333 46.667 120 18 200l-26 74h-228l-18 -49c-36.667 -103.333 -24 -178.333 38 -225v-2zM456.999 782
l-280 54l52 123l234 -164z" />
    <glyph glyph-name="Aacute" unicode="&#xc1;" horiz-adv-x="704" 
d="M283 596l-108 -297h212zM187 0h-184.001v2c38.667 36.667 74.334 99 107.001 187l197 546h101l200 -551c28.667 -80 59.667 -140.667 93 -182v-2h-298v2c40.667 53.333 46.667 120 18 200l-26 74h-228l-18 -49c-36.667 -103.333 -24 -178.333 38 -225v-2zM464.999 959
l53 -123l-279 -54l-6 13z" />
    <glyph glyph-name="Acircumflex" unicode="&#xc2;" horiz-adv-x="704" 
d="M283 596l-108 -297h212zM187 0h-184.001v2c38.667 36.667 74.334 99 107.001 187l197 546h101l200 -551c28.667 -80 59.667 -140.667 93 -182v-2h-298v2c40.667 53.333 46.667 120 18 200l-26 74h-228l-18 -49c-36.667 -103.333 -24 -178.333 38 -225v-2zM357.999 842
l-155 -60l-8 11l159 163h9l159 -163l-9 -11z" />
    <glyph glyph-name="Atilde" unicode="&#xc3;" horiz-adv-x="704" 
d="M283 596l-108 -297h212zM187 0h-184.001v2c38.667 36.667 74.334 99 107.001 187l197 546h101l200 -551c28.667 -80 59.667 -140.667 93 -182v-2h-298v2c40.667 53.333 46.667 120 18 200l-26 74h-228l-18 -49c-36.667 -103.333 -24 -178.333 38 -225v-2zM280.999 916
c20.667 0 48.499 -6.33301 83.499 -19s63.167 -19 84.5 -19c40 0 63.667 16.667 71 50l14 -2c4 -93.333 -29 -140 -99 -140c-20 0 -47.5 6.33301 -82.5 19s-63.5 19 -85.5 19c-39.333 0 -62.666 -17 -69.999 -51l-14 2c-4 94 28.667 141 98 141z" />
    <glyph glyph-name="Adieresis" unicode="&#xc4;" horiz-adv-x="704" 
d="M283 596l-108 -297h212zM187 0h-184.001v2c38.667 36.667 74.334 99 107.001 187l197 546h101l200 -551c28.667 -80 59.667 -140.667 93 -182v-2h-298v2c40.667 53.333 46.667 120 18 200l-26 74h-228l-18 -49c-36.667 -103.333 -24 -178.333 38 -225v-2zM563.999 868
c0 -23.333 -8.16699 -42.833 -24.5 -58.5s-36.166 -23.5 -59.499 -23.5s-42.666 7.83301 -57.999 23.5s-23 35.167 -23 58.5c0 22.667 7.66699 42 23 58s34.666 24 57.999 24s43.166 -8 59.499 -24s24.5 -35.333 24.5 -58zM317.999 868
c0 -23.333 -8.16699 -42.833 -24.5 -58.5s-36.166 -23.5 -59.499 -23.5s-42.666 7.83301 -57.999 23.5s-23 35.167 -23 58.5c0 22.667 7.66699 42 23 58s34.666 24 57.999 24s43.166 -8 59.499 -24s24.5 -35.333 24.5 -58z" />
    <glyph glyph-name="Aring" unicode="&#xc5;" horiz-adv-x="704" 
d="M283 596l-108 -297h212zM187 0h-184.001v2c38.667 36.667 74.334 99 107.001 187l197 546h101l200 -551c28.667 -80 59.667 -140.667 93 -182v-2h-298v2c40.667 53.333 46.667 120 18 200l-26 74h-228l-18 -49c-36.667 -103.333 -24 -178.333 38 -225v-2zM264.999 867
c0 26 8.83301 47.333 26.5 64s39.834 25 66.501 25c27.333 0 49.666 -8.16699 66.999 -24.5s26 -37.833 26 -64.5c0 -25.333 -9 -46.333 -27 -63s-40 -25 -66 -25s-48 8.33301 -66 25s-27 37.667 -27 63zM309.999 867c0 -21.333 4.33301 -37.833 13 -49.5
s20.334 -17.5 35.001 -17.5s26.334 5.83301 35.001 17.5s13 28.167 13 49.5c0 22 -4.33301 39 -13 51s-20.334 18 -35.001 18s-26.334 -6 -35.001 -18s-13 -29 -13 -51z" />
    <glyph glyph-name="AE" unicode="&#xc6;" horiz-adv-x="1059" 
d="M480 525c0 57.333 -3.66699 97 -11 119l-211 -345h222v226zM195 0l-185.998 0.00195312v2c51.333 39.333 102.666 101.333 153.999 186l294 484c-10.667 20.667 -27.667 40 -51 58v2h552l38 -193l-11 -3l-58.5 61.5c-31.667 33.667 -58.5 59.5 -80.5 77.5
s-41.667 27.667 -59 29l-128 9v-326h59c12.667 0 26.167 3.83301 40.5 11.5s26 15.334 35 23.001s21.333 19.5 37 35.5s25.834 26 30.501 30h11v-227h-11c-6 5.33301 -19.167 18.5 -39.5 39.5s-38.5 37 -54.5 48s-32.333 16.5 -49 16.5h-59v-345l145 8
c31.333 1.33301 69.166 23.666 113.499 66.999s84.166 89.666 119.499 138.999l10 -3l-51 -230h-556v2c15.333 41.333 25.833 75.166 31.5 101.499s8.5 60.833 8.5 103.5v69h-236l-35 -58c-53.333 -87.333 -58 -159.333 -14 -216v-2z" />
    <glyph glyph-name="Ccedilla" unicode="&#xc7;" horiz-adv-x="768" 
d="M310 -247c48 21.333 72 47.668 72 79.001c0 17.333 -7 29 -21 35s-28.333 8 -43 6l-2 2l70 113c-38.667 4 -75 12 -109 24c-75.333 28 -135.5 72.5 -180.5 133.5s-67.5 131.5 -67.5 211.5c0 109.333 39.667 201.666 119 276.999s179 113 299 113
c78 0 162.667 -12.333 254 -37l20 -184l-10 -3c-56.667 76 -103.667 128.5 -141 157.5s-80 43.5 -128 43.5c-146.667 0 -220 -122.333 -220 -367c0 -110 18.833 -195.667 56.5 -257s91.5 -92 161.5 -92c29.333 0 56.166 5.5 80.499 16.5s47.833 29.167 70.5 54.5
s42.5 50.666 59.5 75.999s38.5 60.333 64.5 105l10 -3l-20 -197c-13.333 -9.33301 -29.666 -18.833 -48.999 -28.5s-49.5 -19.834 -90.5 -30.501s-83.167 -16 -126.5 -16c-12 0 -21 0.333008 -27 1l-21 -34c27.333 -3.33301 49 -12.166 65 -26.499s24 -32.833 24 -55.5
c0 -30.667 -14.333 -57.167 -43 -79.5s-69.667 -38.166 -123 -47.499z" />
    <glyph glyph-name="Egrave" unicode="&#xc8;" horiz-adv-x="664" 
d="M598 0h-556v2c15.333 41.333 25.833 75.166 31.5 101.499s8.5 60.833 8.5 103.5v318c0 30 -1.83301 57 -5.5 81s-7.66699 43.333 -12 58s-11.833 36.667 -22.5 66v2h519l37 -193l-10 -3c-7.33301 6.66699 -26.833 27 -58.5 61s-58.667 60 -81 78s-41.833 27.667 -58.5 29
l-129 9v-326h59c10 0 20.333 2 31 6s21.5 10.333 32.5 19s20.167 16.334 27.5 23.001s16.833 16 28.5 28s19.834 20 24.501 24h10v-227h-10c-6 4.66699 -19.167 17.834 -39.5 39.501s-38.666 37.834 -54.999 48.501s-32.833 16 -49.5 16h-59v-345l145 8
c31.333 1.33301 69.166 23.666 113.499 66.999s84.166 89.666 119.499 138.999l10 -3zM458 782l-280 54l52 123l234 -164z" />
    <glyph glyph-name="Eacute" unicode="&#xc9;" horiz-adv-x="664" 
d="M598 0h-556v2c15.333 41.333 25.833 75.166 31.5 101.499s8.5 60.833 8.5 103.5v318c0 30 -1.83301 57 -5.5 81s-7.66699 43.333 -12 58s-11.833 36.667 -22.5 66v2h519l37 -193l-10 -3c-7.33301 6.66699 -26.833 27 -58.5 61s-58.667 60 -81 78s-41.833 27.667 -58.5 29
l-129 9v-326h59c10 0 20.333 2 31 6s21.5 10.333 32.5 19s20.167 16.334 27.5 23.001s16.833 16 28.5 28s19.834 20 24.501 24h10v-227h-10c-6 4.66699 -19.167 17.834 -39.5 39.501s-38.666 37.834 -54.999 48.501s-32.833 16 -49.5 16h-59v-345l145 8
c31.333 1.33301 69.166 23.666 113.499 66.999s84.166 89.666 119.499 138.999l10 -3zM447 959l53 -123l-279 -54l-6 13z" />
    <glyph glyph-name="Ecircumflex" unicode="&#xca;" horiz-adv-x="664" 
d="M598 0h-556v2c15.333 41.333 25.833 75.166 31.5 101.499s8.5 60.833 8.5 103.5v318c0 30 -1.83301 57 -5.5 81s-7.66699 43.333 -12 58s-11.833 36.667 -22.5 66v2h519l37 -193l-10 -3c-7.33301 6.66699 -26.833 27 -58.5 61s-58.667 60 -81 78s-41.833 27.667 -58.5 29
l-129 9v-326h59c10 0 20.333 2 31 6s21.5 10.333 32.5 19s20.167 16.334 27.5 23.001s16.833 16 28.5 28s19.834 20 24.501 24h10v-227h-10c-6 4.66699 -19.167 17.834 -39.5 39.501s-38.666 37.834 -54.999 48.501s-32.833 16 -49.5 16h-59v-345l145 8
c31.333 1.33301 69.166 23.666 113.499 66.999s84.166 89.666 119.499 138.999l10 -3zM330 842l-155 -60l-8 11l159 163h9l159 -163l-9 -11z" />
    <glyph glyph-name="Edieresis" unicode="&#xcb;" horiz-adv-x="664" 
d="M598 0h-556v2c15.333 41.333 25.833 75.166 31.5 101.499s8.5 60.833 8.5 103.5v318c0 30 -1.83301 57 -5.5 81s-7.66699 43.333 -12 58s-11.833 36.667 -22.5 66v2h519l37 -193l-10 -3c-7.33301 6.66699 -26.833 27 -58.5 61s-58.667 60 -81 78s-41.833 27.667 -58.5 29
l-129 9v-326h59c10 0 20.333 2 31 6s21.5 10.333 32.5 19s20.167 16.334 27.5 23.001s16.833 16 28.5 28s19.834 20 24.501 24h10v-227h-10c-6 4.66699 -19.167 17.834 -39.5 39.501s-38.666 37.834 -54.999 48.501s-32.833 16 -49.5 16h-59v-345l145 8
c31.333 1.33301 69.166 23.666 113.499 66.999s84.166 89.666 119.499 138.999l10 -3zM535 868c0 -23.333 -8.16699 -42.833 -24.5 -58.5s-36.166 -23.5 -59.499 -23.5s-42.666 7.83301 -57.999 23.5s-23 35.167 -23 58.5c0 22.667 7.66699 42 23 58s34.666 24 57.999 24
s43.166 -8 59.499 -24s24.5 -35.333 24.5 -58zM289 868c0 -23.333 -8.16699 -42.833 -24.5 -58.5s-36.166 -23.5 -59.499 -23.5s-42.666 7.83301 -57.999 23.5s-23 35.167 -23 58.5c0 22.667 7.66699 42 23 58s34.666 24 57.999 24s43.166 -8 59.499 -24
s24.5 -35.333 24.5 -58z" />
    <glyph glyph-name="Igrave" unicode="&#xcc;" horiz-adv-x="344" 
d="M42 2c15.333 38.667 25.833 71.5 31.5 98.5s8.5 63.833 8.5 110.5v310c0 46.667 -2.83301 83.5 -8.5 110.5s-16.167 59.833 -31.5 98.5v2h260v-2c-15.333 -38 -26 -71 -32 -99s-9 -64.667 -9 -110v-310c0 -45.333 3 -82 9 -110s16.667 -61 32 -99v-2h-260v2zM283 782
l-280 54l52 123l234 -164z" />
    <glyph glyph-name="Iacute" unicode="&#xcd;" horiz-adv-x="344" 
d="M42 2c15.333 38.667 25.833 71.5 31.5 98.5s8.5 63.833 8.5 110.5v310c0 46.667 -2.83301 83.5 -8.5 110.5s-16.167 59.833 -31.5 98.5v2h260v-2c-15.333 -38 -26 -71 -32 -99s-9 -64.667 -9 -110v-310c0 -45.333 3 -82 9 -110s16.667 -61 32 -99v-2h-260v2zM278 959
l53 -123l-279 -54l-6 13z" />
    <glyph glyph-name="Icircumflex" unicode="&#xce;" horiz-adv-x="344" 
d="M42 2c15.333 38.667 25.833 71.5 31.5 98.5s8.5 63.833 8.5 110.5v310c0 46.667 -2.83301 83.5 -8.5 110.5s-16.167 59.833 -31.5 98.5v2h260v-2c-15.333 -38 -26 -71 -32 -99s-9 -64.667 -9 -110v-310c0 -45.333 3 -82 9 -110s16.667 -61 32 -99v-2h-260v2zM172 842
l-155 -60l-8 11l159 163h9l159 -163l-9 -11z" />
    <glyph glyph-name="Idieresis" unicode="&#xcf;" horiz-adv-x="344" 
d="M364 868c0 -23.333 -8.16699 -42.833 -24.5 -58.5s-36.166 -23.5 -59.499 -23.5s-42.666 7.83301 -57.999 23.5s-23 35.167 -23 58.5c0 22.667 7.66699 42 23 58s34.666 24 57.999 24s43.166 -8 59.499 -24s24.5 -35.333 24.5 -58zM144 868
c0 -23.333 -8 -42.833 -24 -58.5s-35.667 -23.5 -59 -23.5s-42.833 7.83301 -58.5 23.5s-23.5 35.167 -23.5 58.5c0 22.667 7.83301 42 23.5 58s35.167 24 58.5 24s43 -8 59 -24s24 -35.333 24 -58zM42 2c15.333 38.667 25.833 71.5 31.5 98.5s8.5 63.833 8.5 110.5v310
c0 46.667 -2.83301 83.5 -8.5 110.5s-16.167 59.833 -31.5 98.5v2h260v-2c-15.333 -38 -26 -71 -32 -99s-9 -64.667 -9 -110v-310c0 -45.333 3 -82 9 -110s16.667 -61 32 -99v-2h-260v2z" />
    <glyph glyph-name="Eth" unicode="&#xd0;" horiz-adv-x="811" 
d="M1 365l89.998 -0.000976562v165c0 44.667 -2.83301 80 -8.5 106s-16.167 57.333 -31.5 94v2c32.667 0 78.334 0.666992 137.001 2s111.334 2 158.001 2c136 0 242.833 -31.833 320.5 -95.5s116.5 -154.167 116.5 -271.5c0 -118 -38 -209 -114 -273s-183.667 -96 -323 -96
h-295v2c15.333 35.333 25.833 66.333 31.5 93s8.5 62.334 8.5 107.001v140h-90v23zM348.998 24.999c90 0 152.501 27 187.501 81s52.5 137 52.5 249c0 122.667 -19 213 -57 271s-101 86.333 -189 85c-16.667 0 -41 -1.66699 -73 -5v-341h129v-23h-129v-313
c29.333 -2.66699 55.666 -4 78.999 -4z" />
    <glyph glyph-name="Ntilde" unicode="&#xd1;" horiz-adv-x="722" 
d="M108 605l4.00195 -388c0 -46 5.5 -83.333 16.5 -112s30.833 -63 59.5 -103v-2h-180v2c28.667 40.667 48.167 74.834 58.5 102.501s15.5 65.167 15.5 112.5v355c-2.66699 33.333 -9.33398 61 -20.001 83s-28.334 47 -53.001 75v2h223l370 -465l-2 246
c0 47.333 -5.33301 85.5 -16 114.5s-30 63.167 -58 102.5v2h176v-2c-28 -41.333 -47.167 -75.833 -57.5 -103.5s-15.5 -64.834 -15.5 -111.501v-514l-34 -4zM310.002 916c20.667 0 48.499 -6.33301 83.499 -19s63.167 -19 84.5 -19c40 0 63.667 16.667 71 50l14 -2
c4 -93.333 -29 -140 -99 -140c-20 0 -47.5 6.33301 -82.5 19s-63.5 19 -85.5 19c-39.333 0 -62.666 -17 -69.999 -51l-14 2c-4 94 28.667 141 98 141z" />
    <glyph glyph-name="Ograve" unicode="&#xd2;" horiz-adv-x="834" 
d="M417 -15c-110 0 -202.167 36.333 -276.5 109s-111.5 163 -111.5 271c0 107.333 37.333 197.833 112 271.5s166.667 110.5 276 110.5s201.333 -36.833 276 -110.5s112 -164.167 112 -271.5c0 -108 -37.333 -198.333 -112 -271s-166.667 -109 -276 -109zM417 8
c66 0 114.833 32 146.5 96s47.5 151 47.5 261s-15.667 197.333 -47 262s-80.333 97 -147 97s-115.834 -32.333 -147.501 -97s-47.5 -152 -47.5 -262s15.833 -197 47.5 -261s80.834 -96 147.501 -96zM522 782l-280 54l52 123l234 -164z" />
    <glyph glyph-name="Oacute" unicode="&#xd3;" horiz-adv-x="834" 
d="M417 -15c-110 0 -202.167 36.333 -276.5 109s-111.5 163 -111.5 271c0 107.333 37.333 197.833 112 271.5s166.667 110.5 276 110.5s201.333 -36.833 276 -110.5s112 -164.167 112 -271.5c0 -108 -37.333 -198.333 -112 -271s-166.667 -109 -276 -109zM417 8
c66 0 114.833 32 146.5 96s47.5 151 47.5 261s-15.667 197.333 -47 262s-80.333 97 -147 97s-115.834 -32.333 -147.501 -97s-47.5 -152 -47.5 -262s15.833 -197 47.5 -261s80.834 -96 147.501 -96zM534 959l53 -123l-279 -54l-6 13z" />
    <glyph glyph-name="Ocircumflex" unicode="&#xd4;" horiz-adv-x="834" 
d="M417 -15c-110 0 -202.167 36.333 -276.5 109s-111.5 163 -111.5 271c0 107.333 37.333 197.833 112 271.5s166.667 110.5 276 110.5s201.333 -36.833 276 -110.5s112 -164.167 112 -271.5c0 -108 -37.333 -198.333 -112 -271s-166.667 -109 -276 -109zM417 8
c66 0 114.833 32 146.5 96s47.5 151 47.5 261s-15.667 197.333 -47 262s-80.333 97 -147 97s-115.834 -32.333 -147.501 -97s-47.5 -152 -47.5 -262s15.833 -197 47.5 -261s80.834 -96 147.501 -96zM417 842l-155 -60l-8 11l159 163h9l159 -163l-9 -11z" />
    <glyph glyph-name="Otilde" unicode="&#xd5;" horiz-adv-x="834" 
d="M417 -15c-110 0 -202.167 36.333 -276.5 109s-111.5 163 -111.5 271c0 107.333 37.333 197.833 112 271.5s166.667 110.5 276 110.5s201.333 -36.833 276 -110.5s112 -164.167 112 -271.5c0 -108 -37.333 -198.333 -112 -271s-166.667 -109 -276 -109zM417 8
c66 0 114.833 32 146.5 96s47.5 151 47.5 261s-15.667 197.333 -47 262s-80.333 97 -147 97s-115.834 -32.333 -147.501 -97s-47.5 -152 -47.5 -262s15.833 -197 47.5 -261s80.834 -96 147.501 -96zM339 916c20.667 0 48.499 -6.33301 83.499 -19s63.167 -19 84.5 -19
c40 0 63.667 16.667 71 50l14 -2c4 -93.333 -29 -140 -99 -140c-20 0 -47.5 6.33301 -82.5 19s-63.5 19 -85.5 19c-39.333 0 -62.666 -17 -69.999 -51l-14 2c-4 94 28.667 141 98 141z" />
    <glyph glyph-name="Odieresis" unicode="&#xd6;" horiz-adv-x="834" 
d="M417 -15c-110 0 -202.167 36.333 -276.5 109s-111.5 163 -111.5 271c0 107.333 37.333 197.833 112 271.5s166.667 110.5 276 110.5s201.333 -36.833 276 -110.5s112 -164.167 112 -271.5c0 -108 -37.333 -198.333 -112 -271s-166.667 -109 -276 -109zM417 8
c66 0 114.833 32 146.5 96s47.5 151 47.5 261s-15.667 197.333 -47 262s-80.333 97 -147 97s-115.834 -32.333 -147.501 -97s-47.5 -152 -47.5 -262s15.833 -197 47.5 -261s80.834 -96 147.501 -96zM622 868c0 -23.333 -8.16699 -42.833 -24.5 -58.5
s-36.166 -23.5 -59.499 -23.5s-42.666 7.83301 -57.999 23.5s-23 35.167 -23 58.5c0 22.667 7.66699 42 23 58s34.666 24 57.999 24s43.166 -8 59.499 -24s24.5 -35.333 24.5 -58zM376 868c0 -23.333 -8.16699 -42.833 -24.5 -58.5s-36.166 -23.5 -59.499 -23.5
s-42.666 7.83301 -57.999 23.5s-23 35.167 -23 58.5c0 22.667 7.66699 42 23 58s34.666 24 57.999 24s43.166 -8 59.499 -24s24.5 -35.333 24.5 -58z" />
    <glyph glyph-name="multiply" unicode="&#xd7;" horiz-adv-x="472" 
d="M236 288l-168 -168l-19 19l168 168l-168 168l19 19l168 -168l168 168l19 -19l-168 -168l168 -168l-19 -19z" />
    <glyph glyph-name="Oslash" unicode="&#xd8;" horiz-adv-x="834" 
d="M222 365c0 -94.667 11.6689 -172.667 35.002 -234l306 498c-32.667 63.333 -81.334 95 -146.001 95c-66.667 0 -115.834 -32.333 -147.501 -97s-47.5 -152 -47.5 -262zM417.002 8c66 0 114.832 32.001 146.499 96.001s47.5 151 47.5 261
c0 97.333 -11.667 175.666 -35 234.999l-305 -497c32.667 -63.333 81.334 -95 146.001 -95zM417.001 -14.999c-67.333 0 -130.667 15.335 -190 46.002l-53 -86h-31l61 100c-54 33.333 -96.667 78.166 -128 134.499s-47 118.166 -47 185.499
c0 107.333 37.333 197.833 112 271.5s166.667 110.5 276 110.5c69.333 0 132.333 -15.667 189 -47l54 88h31l-62 -101c54 -34 96.833 -79.333 128.5 -136s47.5 -118.667 47.5 -186c0 -108 -37.333 -198.333 -112 -271s-166.667 -109 -276 -109z" />
    <glyph glyph-name="Ugrave" unicode="&#xd9;" horiz-adv-x="734" 
d="M384 -15c-91.333 0 -163.998 23.1689 -217.998 69.502s-81 117.5 -81 213.5v253c0 46.667 -2.83301 83.334 -8.5 110.001s-16.5 59.667 -32.5 99v2h262v-2c-15.333 -34.667 -26 -66.5 -32 -95.5s-9 -66.833 -9 -113.5v-262c0 -158.667 57.333 -238 172 -238
c64 0 110.167 23.167 138.5 69.5s42.5 107.5 42.5 183.5v239c0 48.667 -6 87.667 -18 117s-34 62.666 -66 99.999v2h195l2 -2c-32 -40.667 -54 -75.334 -66 -104.001s-18 -66.334 -18 -113.001v-232c0 -45.333 -3.83301 -84.833 -11.5 -118.5s-20.834 -64.5 -39.501 -92.5
s-45.834 -49.167 -81.501 -63.5s-79.167 -21.5 -130.5 -21.5zM535.002 782.002l-280 54l52 123l234 -164z" />
    <glyph glyph-name="Uacute" unicode="&#xda;" horiz-adv-x="734" 
d="M384 -15c-91.333 0 -163.998 23.1689 -217.998 69.502s-81 117.5 -81 213.5v253c0 46.667 -2.83301 83.334 -8.5 110.001s-16.5 59.667 -32.5 99v2h262v-2c-15.333 -34.667 -26 -66.5 -32 -95.5s-9 -66.833 -9 -113.5v-262c0 -158.667 57.333 -238 172 -238
c64 0 110.167 23.167 138.5 69.5s42.5 107.5 42.5 183.5v239c0 48.667 -6 87.667 -18 117s-34 62.666 -66 99.999v2h195l2 -2c-32 -40.667 -54 -75.334 -66 -104.001s-18 -66.334 -18 -113.001v-232c0 -45.333 -3.83301 -84.833 -11.5 -118.5s-20.834 -64.5 -39.501 -92.5
s-45.834 -49.167 -81.501 -63.5s-79.167 -21.5 -130.5 -21.5zM544.002 959.002l53 -123l-279 -54l-6 13z" />
    <glyph glyph-name="Ucircumflex" unicode="&#xdb;" horiz-adv-x="734" 
d="M384 -15c-91.333 0 -163.998 23.1689 -217.998 69.502s-81 117.5 -81 213.5v253c0 46.667 -2.83301 83.334 -8.5 110.001s-16.5 59.667 -32.5 99v2h262v-2c-15.333 -34.667 -26 -66.5 -32 -95.5s-9 -66.833 -9 -113.5v-262c0 -158.667 57.333 -238 172 -238
c64 0 110.167 23.167 138.5 69.5s42.5 107.5 42.5 183.5v239c0 48.667 -6 87.667 -18 117s-34 62.666 -66 99.999v2h195l2 -2c-32 -40.667 -54 -75.334 -66 -104.001s-18 -66.334 -18 -113.001v-232c0 -45.333 -3.83301 -84.833 -11.5 -118.5s-20.834 -64.5 -39.501 -92.5
s-45.834 -49.167 -81.501 -63.5s-79.167 -21.5 -130.5 -21.5zM420.002 842.002l-155 -60l-8 11l159 163h9l159 -163l-9 -11z" />
    <glyph glyph-name="Udieresis" unicode="&#xdc;" horiz-adv-x="734" 
d="M384 -15c-91.333 0 -163.998 23.1689 -217.998 69.502s-81 117.5 -81 213.5v253c0 46.667 -2.83301 83.334 -8.5 110.001s-16.5 59.667 -32.5 99v2h262v-2c-15.333 -34.667 -26 -66.5 -32 -95.5s-9 -66.833 -9 -113.5v-262c0 -158.667 57.333 -238 172 -238
c64 0 110.167 23.167 138.5 69.5s42.5 107.5 42.5 183.5v239c0 48.667 -6 87.667 -18 117s-34 62.666 -66 99.999v2h195l2 -2c-32 -40.667 -54 -75.334 -66 -104.001s-18 -66.334 -18 -113.001v-232c0 -45.333 -3.83301 -84.833 -11.5 -118.5s-20.834 -64.5 -39.501 -92.5
s-45.834 -49.167 -81.501 -63.5s-79.167 -21.5 -130.5 -21.5zM626.002 868.002c0 -23.333 -8.16699 -42.833 -24.5 -58.5s-36.166 -23.5 -59.499 -23.5s-42.666 7.83301 -57.999 23.5s-23 35.167 -23 58.5c0 22.667 7.66699 42 23 58s34.666 24 57.999 24
s43.166 -8 59.499 -24s24.5 -35.333 24.5 -58zM380.002 868.002c0 -23.333 -8.16699 -42.833 -24.5 -58.5s-36.166 -23.5 -59.499 -23.5s-42.666 7.83301 -57.999 23.5s-23 35.167 -23 58.5c0 22.667 7.66699 42 23 58s34.666 24 57.999 24s43.166 -8 59.499 -24
s24.5 -35.333 24.5 -58z" />
    <glyph glyph-name="Yacute" unicode="&#xdd;" horiz-adv-x="660" 
d="M190 2c15.333 32 26 59.999 32 83.999s9 55.667 9 95v170l-116 213c-26 48.667 -46.833 84.5 -62.5 107.5s-33.5 42.167 -53.5 57.5v3h318v-3c-16.667 -14 -26.667 -35.833 -30 -65.5s4.66699 -65.5 24 -107.5l91 -167l79 141c44 78.667 35 145.334 -27 200.001v2h208v-2
c-28.667 -22 -53.167 -46.5 -73.5 -73.5s-42.5 -61.833 -66.5 -104.5l-112 -201v-170c0 -39.333 2.83301 -71 8.5 -95s16.167 -52 31.5 -84v-2h-260v2zM493 958.999l53 -123l-279 -54l-6 13z" />
    <glyph glyph-name="Thorn" unicode="&#xde;" horiz-adv-x="630" 
d="M302 0l-259.999 -0.000976562v2c15.333 38.667 25.833 71.5 31.5 98.5s8.5 63.833 8.5 110.5v310c0 46.667 -2.83301 83.5 -8.5 110.5s-16.167 59.833 -31.5 98.5v2h260v-2c-22 -55.333 -35 -104.666 -39 -147.999h72c194.667 0 292 -64 292 -192
c0 -66.667 -25.333 -120.5 -76 -161.5s-129.334 -61.5 -236.001 -61.5h-53c2 -50 15.333 -105 40 -165v-2zM290.001 189.999c52.667 0 91.499 19.667 116.499 59s37.5 86.333 37.5 141c0 52 -12.667 93.167 -38 123.5s-63.666 45.5 -114.999 45.5h-14
c-6.66699 0 -11.667 -0.333008 -15 -1c-0.666992 -3.33301 -1 -9.33301 -1 -18v-350h29z" />
    <glyph glyph-name="germandbls" unicode="&#xdf;" horiz-adv-x="648" 
d="M452 -15c-51.333 0 -100.331 10.3291 -146.998 30.9961l-13 140l9 2c34.667 -54.667 64 -94.167 88 -118.5s49.333 -36.5 76 -36.5c19.333 0 34 5.66699 44 17s15 26.333 15 45c0 22 -7.5 41.167 -22.5 57.5s-33.167 30.333 -54.5 42l-64 36.5
c-21.333 12.667 -39.5 29.834 -54.5 51.501s-22.5 47.167 -22.5 76.5c0 22.667 4.5 43 13.5 61s19.833 33.5 32.5 46.5l38 41c12.667 14.333 23.5 33.833 32.5 58.5s13.5 53.334 13.5 86.001c0 40.667 -7 74 -21 100s-35.667 39 -65 39c-34 0 -60.667 -18.667 -80 -56
s-29 -90.333 -29 -159v-546h-192v2c20.667 43.333 31 95 31 155v308h-63v22h63c2.66699 87.333 29.167 157.833 79.5 211.5s116.166 80.5 197.499 80.5c54 0 99.833 -12 137.5 -36s56.5 -58.667 56.5 -104c0 -22 -5.16699 -42 -15.5 -60s-23 -32.833 -38 -44.5
s-30 -22.5 -45 -32.5s-27.667 -21.167 -38 -33.5s-15.5 -25.5 -15.5 -39.5c0 -17.333 8.16699 -33.166 24.5 -47.499s36.166 -27.833 59.499 -40.5s46.5 -26.667 69.5 -42s42.667 -36.166 59 -62.499s24.5 -56.833 24.5 -91.5c0 -52.667 -17.333 -92.5 -52 -119.5
s-78.667 -40.5 -132 -40.5z" />
    <glyph glyph-name="agrave" unicode="&#xe0;" horiz-adv-x="525" 
d="M231 72c16.667 0 30.667 3.33301 42 10v161c-34.667 -9.33301 -61.5 -23.333 -80.5 -42s-28.5 -40 -28.5 -64c0 -20 5.83301 -35.833 17.5 -47.5s28.167 -17.5 49.5 -17.5zM383 -14c-29.333 0 -53.334 7 -72.001 21s-30.334 32.667 -35.001 56
c-35.333 -52 -82 -78 -140 -78c-32.667 0 -59.667 8.5 -81 25.5s-32 41.833 -32 74.5c0 84 83.333 143.667 250 179v62c0 30 -7.16699 51.833 -21.5 65.5s-39.166 20.5 -74.499 20.5c-44 0 -87.333 -9 -130 -27l-4 7c60 74 138.333 111 235 111
c52.667 0 91.834 -11.667 117.501 -35s38.5 -55.333 38.5 -96v-257c0 -30 14.333 -45 43 -45c14 0 26.667 4 38 12l2 -4c-26 -61.333 -70.667 -92 -134 -92zM319.999 531l-224 122l91 96l142 -209z" />
    <glyph glyph-name="aacute" unicode="&#xe1;" horiz-adv-x="525" 
d="M231 72c16.667 0 30.667 3.33301 42 10v161c-34.667 -9.33301 -61.5 -23.333 -80.5 -42s-28.5 -40 -28.5 -64c0 -20 5.83301 -35.833 17.5 -47.5s28.167 -17.5 49.5 -17.5zM383 -14c-29.333 0 -53.334 7 -72.001 21s-30.334 32.667 -35.001 56
c-35.333 -52 -82 -78 -140 -78c-32.667 0 -59.667 8.5 -81 25.5s-32 41.833 -32 74.5c0 84 83.333 143.667 250 179v62c0 30 -7.16699 51.833 -21.5 65.5s-39.166 20.5 -74.499 20.5c-44 0 -87.333 -9 -130 -27l-4 7c60 74 138.333 111 235 111
c52.667 0 91.834 -11.667 117.501 -35s38.5 -55.333 38.5 -96v-257c0 -30 14.333 -45 43 -45c14 0 26.667 4 38 12l2 -4c-26 -61.333 -70.667 -92 -134 -92zM300.999 749l89 -96l-223 -119l-9 9z" />
    <glyph glyph-name="acircumflex" unicode="&#xe2;" horiz-adv-x="525" 
d="M231 72c16.667 0 30.667 3.33301 42 10v161c-34.667 -9.33301 -61.5 -23.333 -80.5 -42s-28.5 -40 -28.5 -64c0 -20 5.83301 -35.833 17.5 -47.5s28.167 -17.5 49.5 -17.5zM383 -14c-29.333 0 -53.334 7 -72.001 21s-30.334 32.667 -35.001 56
c-35.333 -52 -82 -78 -140 -78c-32.667 0 -59.667 8.5 -81 25.5s-32 41.833 -32 74.5c0 84 83.333 143.667 250 179v62c0 30 -7.16699 51.833 -21.5 65.5s-39.166 20.5 -74.499 20.5c-44 0 -87.333 -9 -130 -27l-4 7c60 74 138.333 111 235 111
c52.667 0 91.834 -11.667 117.501 -35s38.5 -55.333 38.5 -96v-257c0 -30 14.333 -45 43 -45c14 0 26.667 4 38 12l2 -4c-26 -61.333 -70.667 -92 -134 -92zM249.999 608l-141 -68l-9 11l145 181h9l144 -181l-8 -11z" />
    <glyph glyph-name="atilde" unicode="&#xe3;" horiz-adv-x="525" 
d="M231 72c16.667 0 30.667 3.33301 42 10v161c-34.667 -9.33301 -61.5 -23.333 -80.5 -42s-28.5 -40 -28.5 -64c0 -20 5.83301 -35.833 17.5 -47.5s28.167 -17.5 49.5 -17.5zM383 -14c-29.333 0 -53.334 7 -72.001 21s-30.334 32.667 -35.001 56
c-35.333 -52 -82 -78 -140 -78c-32.667 0 -59.667 8.5 -81 25.5s-32 41.833 -32 74.5c0 84 83.333 143.667 250 179v62c0 30 -7.16699 51.833 -21.5 65.5s-39.166 20.5 -74.499 20.5c-44 0 -87.333 -9 -130 -27l-4 7c60 74 138.333 111 235 111
c52.667 0 91.834 -11.667 117.501 -35s38.5 -55.333 38.5 -96v-257c0 -30 14.333 -45 43 -45c14 0 26.667 4 38 12l2 -4c-26 -61.333 -70.667 -92 -134 -92zM185.999 694c15.333 0 38.665 -5.83301 69.998 -17.5s55 -17.5 71 -17.5c33.333 0 54.333 15.667 63 47l14 -2
c0 -36.667 -7.16699 -68.667 -21.5 -96s-38.166 -41 -71.499 -41c-14 0 -37 5.83301 -69 17.5s-56 17.5 -72 17.5c-33.333 0 -54.333 -15.667 -63 -47l-14 2c0 36 7.33301 67.833 22 95.5s38.334 41.5 71.001 41.5z" />
    <glyph glyph-name="adieresis" unicode="&#xe4;" horiz-adv-x="525" 
d="M231 72c16.667 0 30.667 3.33301 42 10v161c-34.667 -9.33301 -61.5 -23.333 -80.5 -42s-28.5 -40 -28.5 -64c0 -20 5.83301 -35.833 17.5 -47.5s28.167 -17.5 49.5 -17.5zM383 -14c-29.333 0 -53.334 7 -72.001 21s-30.334 32.667 -35.001 56
c-35.333 -52 -82 -78 -140 -78c-32.667 0 -59.667 8.5 -81 25.5s-32 41.833 -32 74.5c0 84 83.333 143.667 250 179v62c0 30 -7.16699 51.833 -21.5 65.5s-39.166 20.5 -74.499 20.5c-44 0 -87.333 -9 -130 -27l-4 7c60 74 138.333 111 235 111
c52.667 0 91.834 -11.667 117.501 -35s38.5 -55.333 38.5 -96v-257c0 -30 14.333 -45 43 -45c14 0 26.667 4 38 12l2 -4c-26 -61.333 -70.667 -92 -134 -92zM440.999 655c0 -23.333 -8.16699 -43 -24.5 -59s-36.166 -24 -59.499 -24s-42.666 8 -57.999 24s-23 35.667 -23 59
c0 22.667 7.66699 42 23 58s34.666 24 57.999 24s43.166 -8 59.499 -24s24.5 -35.333 24.5 -58zM220.999 655c0 -23.333 -8.16699 -43 -24.5 -59s-36.166 -24 -59.499 -24c-22.667 0 -41.834 8 -57.501 24s-23.5 35.667 -23.5 59c0 22.667 7.83301 42 23.5 58
s34.834 24 57.501 24c23.333 0 43.166 -8 59.499 -24s24.5 -35.333 24.5 -58z" />
    <glyph glyph-name="aring" unicode="&#xe5;" horiz-adv-x="525" 
d="M231 72c16.667 0 30.667 3.33301 42 10v161c-34.667 -9.33301 -61.5 -23.333 -80.5 -42s-28.5 -40 -28.5 -64c0 -20 5.83301 -35.833 17.5 -47.5s28.167 -17.5 49.5 -17.5zM383 -14c-29.333 0 -53.334 7 -72.001 21s-30.334 32.667 -35.001 56
c-35.333 -52 -82 -78 -140 -78c-32.667 0 -59.667 8.5 -81 25.5s-32 41.833 -32 74.5c0 84 83.333 143.667 250 179v62c0 30 -7.16699 51.833 -21.5 65.5s-39.166 20.5 -74.499 20.5c-44 0 -87.333 -9 -130 -27l-4 7c60 74 138.333 111 235 111
c52.667 0 91.834 -11.667 117.501 -35s38.5 -55.333 38.5 -96v-257c0 -30 14.333 -45 43 -45c14 0 26.667 4 38 12l2 -4c-26 -61.333 -70.667 -92 -134 -92zM154.999 652c0 26 8.83301 47.501 26.5 64.501s39.834 25.5 66.501 25.5c27.333 0 49.666 -8.33301 66.999 -25
s26 -38.334 26 -65.001c0 -25.333 -9 -46.166 -27 -62.499s-40 -24.5 -66 -24.5s-48 8.16699 -66 24.5s-27 37.166 -27 62.499zM199.999 652.001c0 -21.333 4.33301 -37.833 13 -49.5s20.334 -17.5 35.001 -17.5s26.334 5.83301 35.001 17.5s13 28.167 13 49.5
c0 22 -4.33301 39.167 -13 51.5s-20.334 18.5 -35.001 18.5s-26.334 -6.16699 -35.001 -18.5s-13 -29.5 -13 -51.5z" />
    <glyph glyph-name="ae" unicode="&#xe6;" horiz-adv-x="743" 
d="M513 485c-23.333 0 -41.833 -16.332 -55.5 -48.999s-21.167 -74.334 -22.5 -125.001l131 2v38c0 89.333 -17.667 134 -53 134zM723 136.001c-14 -46.667 -39.498 -83.501 -76.498 -110.501s-83.167 -40.5 -138.5 -40.5c-90 0 -155.667 34 -197 102
c-42.667 -68 -99.334 -102 -170.001 -102c-35.333 0 -63.833 8.66699 -85.5 26s-32.5 42 -32.5 74c0 84 83.333 143.667 250 179v62c0 30 -7.16699 51.833 -21.5 65.5s-39.166 20.5 -74.499 20.5c-44 0 -87.333 -9 -130 -27l-4 7c60 74 138.333 111 235 111
c48 0 84.667 -13 110 -39c38.667 26 82 39 130 39c64.667 0 115.167 -21.667 151.5 -65s53.833 -92.666 52.5 -147.999l-287 1c1.33301 -68 16.666 -117.167 45.999 -147.5s67.666 -45.5 114.999 -45.5c28 0 52.833 4.33301 74.5 13s37.167 18 46.5 28zM232.002 72
c28 0 52 8.99902 72 26.999c-20.667 38.667 -31 83.334 -31 134.001c0 5.33301 0.333008 8.66602 1 9.99902c-73.333 -19.333 -110 -54.666 -110 -105.999c0 -20 6 -35.833 18 -47.5s28.667 -17.5 50 -17.5z" />
    <glyph glyph-name="ccedilla" unicode="&#xe7;" horiz-adv-x="497" 
d="M174 -247c48 21.333 72.001 47.6621 72.001 78.9951c0 17.333 -7 29 -21 35s-28.333 8 -43 6l-2 2l68 110c-29.333 0.666992 -57 6.33398 -83 17.001c-44 18.667 -78.333 47.834 -103 87.501s-37 87.5 -37 143.5c0 78.667 26 143.334 78 194.001s119 76 201 76
c51.333 0 96.666 -8 135.999 -24l15 -144l-10 -2c-64 100 -115.667 150 -155 150c-29.333 0 -53.833 -16.833 -73.5 -50.5s-29.5 -78.5 -29.5 -134.5c0 -68 15.167 -118.333 45.5 -151s69.5 -49 117.5 -49c50 0 88.667 13.667 116 41l5 -3c-12.667 -46 -37 -82.667 -73 -110
c-32 -24 -72.667 -37.667 -122 -41l-21 -33c27.333 -3.33301 49 -12.166 65 -26.499s24 -32.833 24 -55.5c0 -30.667 -14.333 -57.167 -43 -79.5s-69.667 -38.166 -123 -47.499z" />
    <glyph glyph-name="egrave" unicode="&#xe8;" horiz-adv-x="511" 
d="M266 485c-24.667 0 -43.833 -16.832 -57.5 -50.499s-20.5 -74.834 -20.5 -123.501l142 2v38c0 89.333 -21.333 134 -64 134zM485.001 143.001c-14 -48.667 -39.667 -87.166 -77 -115.499s-84 -42.5 -140 -42.5c-74 0 -133 23.667 -177 71s-66 107 -66 179
c0 77.333 23.667 141.333 71 192s106 76 176 76c66 0 118.5 -21.833 157.5 -65.5s57.833 -92.834 56.5 -147.501l-298 1c4.66699 -128.667 59 -193 163 -193c55.333 0 98.333 16 129 48zM331.001 531.002l-224 122l91 96l142 -209z" />
    <glyph glyph-name="eacute" unicode="&#xe9;" horiz-adv-x="511" 
d="M266 485c-24.667 0 -43.833 -16.832 -57.5 -50.499s-20.5 -74.834 -20.5 -123.501l142 2v38c0 89.333 -21.333 134 -64 134zM485.001 143.001c-14 -48.667 -39.667 -87.166 -77 -115.499s-84 -42.5 -140 -42.5c-74 0 -133 23.667 -177 71s-66 107 -66 179
c0 77.333 23.667 141.333 71 192s106 76 176 76c66 0 118.5 -21.833 157.5 -65.5s57.833 -92.834 56.5 -147.501l-298 1c4.66699 -128.667 59 -193 163 -193c55.333 0 98.333 16 129 48zM312.001 749.002l89 -96l-223 -119l-9 9z" />
    <glyph glyph-name="ecircumflex" unicode="&#xea;" horiz-adv-x="511" 
d="M266 485c-24.667 0 -43.833 -16.832 -57.5 -50.499s-20.5 -74.834 -20.5 -123.501l142 2v38c0 89.333 -21.333 134 -64 134zM485.001 143.001c-14 -48.667 -39.667 -87.166 -77 -115.499s-84 -42.5 -140 -42.5c-74 0 -133 23.667 -177 71s-66 107 -66 179
c0 77.333 23.667 141.333 71 192s106 76 176 76c66 0 118.5 -21.833 157.5 -65.5s57.833 -92.834 56.5 -147.501l-298 1c4.66699 -128.667 59 -193 163 -193c55.333 0 98.333 16 129 48zM260.001 608.002l-141 -68l-9 11l145 181h9l144 -181l-8 -11z" />
    <glyph glyph-name="edieresis" unicode="&#xeb;" horiz-adv-x="511" 
d="M266 485c-24.667 0 -43.833 -16.832 -57.5 -50.499s-20.5 -74.834 -20.5 -123.501l142 2v38c0 89.333 -21.333 134 -64 134zM485.001 143.001c-14 -48.667 -39.667 -87.166 -77 -115.499s-84 -42.5 -140 -42.5c-74 0 -133 23.667 -177 71s-66 107 -66 179
c0 77.333 23.667 141.333 71 192s106 76 176 76c66 0 118.5 -21.833 157.5 -65.5s57.833 -92.834 56.5 -147.501l-298 1c4.66699 -128.667 59 -193 163 -193c55.333 0 98.333 16 129 48zM452.001 655.002c0 -23.333 -8.16699 -43 -24.5 -59s-36.166 -24 -59.499 -24
s-42.666 8 -57.999 24s-23 35.667 -23 59c0 22.667 7.66699 42 23 58s34.666 24 57.999 24s43.166 -8 59.499 -24s24.5 -35.333 24.5 -58zM232.001 655.002c0 -23.333 -8.16699 -43 -24.5 -59s-36.166 -24 -59.499 -24c-22.667 0 -41.834 8 -57.501 24
s-23.5 35.667 -23.5 59c0 22.667 7.83301 42 23.5 58s34.834 24 57.501 24c23.333 0 43.166 -8 59.499 -24s24.5 -35.333 24.5 -58z" />
    <glyph glyph-name="igrave" unicode="&#xec;" horiz-adv-x="285" 
d="M41 2c16 59.333 24 117.333 24 174v112c0 36 -3.83301 65.833 -11.5 89.5s-20.5 46.5 -38.5 68.5v4l211 58v-332c0 -68 8 -126 24 -174v-2h-209v2zM220 531l-224 122l91 96l142 -209z" />
    <glyph glyph-name="iacute" unicode="&#xed;" horiz-adv-x="285" 
d="M41 2c16 59.333 24 117.333 24 174v112c0 36 -3.83301 65.833 -11.5 89.5s-20.5 46.5 -38.5 68.5v4l211 58v-332c0 -68 8 -126 24 -174v-2h-209v2zM200 749l89 -96l-223 -119l-9 9z" />
    <glyph glyph-name="icircumflex" unicode="&#xee;" horiz-adv-x="285" 
d="M41 2c16 59.333 24 117.333 24 174v112c0 36 -3.83301 65.833 -11.5 89.5s-20.5 46.5 -38.5 68.5v4l211 58v-332c0 -68 8 -126 24 -174v-2h-209v2zM149 608l-141 -68l-9 11l145 181h9l144 -181l-8 -11z" />
    <glyph glyph-name="idieresis" unicode="&#xef;" horiz-adv-x="285" 
d="M328 655c0 -23.333 -8.16699 -43 -24.5 -59s-36.166 -24 -59.499 -24s-42.666 8 -57.999 24s-23 35.667 -23 59c0 22.667 7.66699 42 23 58s34.666 24 57.999 24s43.166 -8 59.499 -24s24.5 -35.333 24.5 -58zM132 655c0 -23.333 -8.16699 -43 -24.5 -59
s-36.166 -24 -59.499 -24c-22.667 0 -41.834 8 -57.501 24s-23.5 35.667 -23.5 59c0 22.667 7.83301 42 23.5 58s34.834 24 57.501 24c23.333 0 43.166 -8 59.499 -24s24.5 -35.333 24.5 -58zM41 2c16 59.333 24 117.333 24 174v112c0 36 -3.83301 65.833 -11.5 89.5
s-20.5 46.5 -38.5 68.5v4l211 58v-332c0 -68 8 -126 24 -174v-2h-209v2z" />
    <glyph glyph-name="eth" unicode="&#xf0;" horiz-adv-x="604" 
d="M297 -15c-78 0 -143 25.166 -195 75.499s-78 115.5 -78 195.5c0 72 24.167 130.5 72.5 175.5s103.166 67.5 164.499 67.5c62.667 0 107.334 -24.667 134.001 -74c-17.333 79.333 -46 147.333 -86 204l-119 -80l-12 17l119 80c-40 52.667 -87 93.334 -141 122.001l4 10
c70 -22.667 135 -53.667 195 -93l105 70l12 -17l-99 -66c70 -52.667 121.667 -111.5 155 -176.5s50 -131.5 50 -199.5c0 -88.667 -26 -162.667 -78 -222s-119.667 -89 -203 -89zM296 6.99902c38.667 0 67.667 24.332 87 72.999s29 109.334 29 182.001c0 23.333 -1 47 -3 71
c-10 47.333 -25.667 82.833 -47 106.5s-45 35.5 -71 35.5c-66.667 0 -100 -78.333 -100 -235c0 -76 9 -133.833 27 -173.5s44 -59.5 78 -59.5z" />
    <glyph glyph-name="ntilde" unicode="&#xf1;" horiz-adv-x="606" 
d="M250 0h-209.002v2c16.667 50 25 108 25 174l-1 113c0 37.333 -3.83301 67.666 -11.5 90.999s-20.5 46 -38.5 68v2l207 58v-100l4 -1c40 64 96 96 168 96c44.667 0 80.834 -12.667 108.501 -38s41.5 -59 41.5 -101v-187c0 -67.333 8 -125.666 24 -174.999v-2h-209v2
c16 48 24 105.667 24 173v179c0 22.667 -5.66699 40.667 -17 54s-28.666 20 -51.999 20c-36 0 -65.333 -16.333 -88 -49v-203c0 -66.667 8 -124.667 24 -174v-2zM239.998 694c15.333 0 38.665 -5.83301 69.998 -17.5s55 -17.5 71 -17.5c33.333 0 54.333 15.667 63 47l14 -2
c0 -36.667 -7.16699 -68.667 -21.5 -96s-38.166 -41 -71.499 -41c-14 0 -37 5.83301 -69 17.5s-56 17.5 -72 17.5c-33.333 0 -54.333 -15.667 -63 -47l-14 2c0 36 7.33301 67.833 22 95.5s38.334 41.5 71.001 41.5z" />
    <glyph glyph-name="ograve" unicode="&#xf2;" horiz-adv-x="588" 
d="M294 -15c-73.333 0 -136.5 25.5 -189.5 76.5s-79.5 111.5 -79.5 181.5s26.5 130.833 79.5 182.5s116.167 77.5 189.5 77.5s136.5 -25.833 189.5 -77.5s79.5 -112.5 79.5 -182.5s-26.5 -130.5 -79.5 -181.5s-116.167 -76.5 -189.5 -76.5zM294 4c34 0 59.667 21.5 77 64.5
s26 101.167 26 174.5c0 74 -8.66699 132.667 -26 176s-43 65 -77 65c-34.667 0 -60.5 -21.5 -77.5 -64.5s-25.5 -101.833 -25.5 -176.5c0 -73.333 8.66699 -131.5 26 -174.5s43 -64.5 77 -64.5zM372 531l-224 122l91 96l142 -209z" />
    <glyph glyph-name="oacute" unicode="&#xf3;" horiz-adv-x="588" 
d="M294 -15c-73.333 0 -136.5 25.5 -189.5 76.5s-79.5 111.5 -79.5 181.5s26.5 130.833 79.5 182.5s116.167 77.5 189.5 77.5s136.5 -25.833 189.5 -77.5s79.5 -112.5 79.5 -182.5s-26.5 -130.5 -79.5 -181.5s-116.167 -76.5 -189.5 -76.5zM294 4c34 0 59.667 21.5 77 64.5
s26 101.167 26 174.5c0 74 -8.66699 132.667 -26 176s-43 65 -77 65c-34.667 0 -60.5 -21.5 -77.5 -64.5s-25.5 -101.833 -25.5 -176.5c0 -73.333 8.66699 -131.5 26 -174.5s43 -64.5 77 -64.5zM353 749l89 -96l-223 -119l-9 9z" />
    <glyph glyph-name="ocircumflex" unicode="&#xf4;" horiz-adv-x="588" 
d="M294 -15c-73.333 0 -136.5 25.5 -189.5 76.5s-79.5 111.5 -79.5 181.5s26.5 130.833 79.5 182.5s116.167 77.5 189.5 77.5s136.5 -25.833 189.5 -77.5s79.5 -112.5 79.5 -182.5s-26.5 -130.5 -79.5 -181.5s-116.167 -76.5 -189.5 -76.5zM294 4c34 0 59.667 21.5 77 64.5
s26 101.167 26 174.5c0 74 -8.66699 132.667 -26 176s-43 65 -77 65c-34.667 0 -60.5 -21.5 -77.5 -64.5s-25.5 -101.833 -25.5 -176.5c0 -73.333 8.66699 -131.5 26 -174.5s43 -64.5 77 -64.5zM295 608l-141 -68l-9 11l145 181h9l144 -181l-8 -11z" />
    <glyph glyph-name="otilde" unicode="&#xf5;" horiz-adv-x="588" 
d="M294 -15c-73.333 0 -136.5 25.5 -189.5 76.5s-79.5 111.5 -79.5 181.5s26.5 130.833 79.5 182.5s116.167 77.5 189.5 77.5s136.5 -25.833 189.5 -77.5s79.5 -112.5 79.5 -182.5s-26.5 -130.5 -79.5 -181.5s-116.167 -76.5 -189.5 -76.5zM294 4c34 0 59.667 21.5 77 64.5
s26 101.167 26 174.5c0 74 -8.66699 132.667 -26 176s-43 65 -77 65c-34.667 0 -60.5 -21.5 -77.5 -64.5s-25.5 -101.833 -25.5 -176.5c0 -73.333 8.66699 -131.5 26 -174.5s43 -64.5 77 -64.5zM231 694c15.333 0 38.665 -5.83301 69.998 -17.5s55 -17.5 71 -17.5
c33.333 0 54.333 15.667 63 47l14 -2c0 -36.667 -7.16699 -68.667 -21.5 -96s-38.166 -41 -71.499 -41c-14.667 0 -37.667 5.83301 -69 17.5s-55.333 17.5 -72 17.5c-33.333 0 -54.333 -15.667 -63 -47l-14 2c0 36 7.33301 67.833 22 95.5s38.334 41.5 71.001 41.5z" />
    <glyph glyph-name="odieresis" unicode="&#xf6;" horiz-adv-x="588" 
d="M294 -15c-73.333 0 -136.5 25.5 -189.5 76.5s-79.5 111.5 -79.5 181.5s26.5 130.833 79.5 182.5s116.167 77.5 189.5 77.5s136.5 -25.833 189.5 -77.5s79.5 -112.5 79.5 -182.5s-26.5 -130.5 -79.5 -181.5s-116.167 -76.5 -189.5 -76.5zM294 4c34 0 59.667 21.5 77 64.5
s26 101.167 26 174.5c0 74 -8.66699 132.667 -26 176s-43 65 -77 65c-34.667 0 -60.5 -21.5 -77.5 -64.5s-25.5 -101.833 -25.5 -176.5c0 -73.333 8.66699 -131.5 26 -174.5s43 -64.5 77 -64.5zM486 655c0 -23.333 -8.16699 -43 -24.5 -59s-36.166 -24 -59.499 -24
s-42.666 8 -57.999 24s-23 35.667 -23 59c0 22.667 7.66699 42 23 58s34.666 24 57.999 24s43.166 -8 59.499 -24s24.5 -35.333 24.5 -58zM266 655c0 -23.333 -8.16699 -43 -24.5 -59s-36.166 -24 -59.499 -24c-22.667 0 -41.834 8 -57.501 24s-23.5 35.667 -23.5 59
c0 22.667 7.83301 42 23.5 58s34.834 24 57.501 24c23.333 0 43.166 -8 59.499 -24s24.5 -35.333 24.5 -58z" />
    <glyph glyph-name="divide" unicode="&#xf7;" horiz-adv-x="546" 
d="M52 296v24h442v-24h-442zM273 60c-23.333 0 -43.166 8.16699 -59.499 24.5s-24.5 36.166 -24.5 59.499s8.16699 43.166 24.5 59.499s36.166 24.5 59.499 24.5s43.166 -8.16699 59.499 -24.5s24.5 -36.166 24.5 -59.499s-8.16699 -43.166 -24.5 -59.499
s-36.166 -24.5 -59.499 -24.5zM273 386c-23.333 0 -43.166 8.16699 -59.499 24.5s-24.5 36.166 -24.5 59.499s8.16699 43.166 24.5 59.499s36.166 24.5 59.499 24.5s43.166 -8.16699 59.499 -24.5s24.5 -36.166 24.5 -59.499s-8.16699 -43.166 -24.5 -59.499
s-36.166 -24.5 -59.499 -24.5z" />
    <glyph glyph-name="oslash" unicode="&#xf8;" horiz-adv-x="588" 
d="M294 -15c-50 0 -94.668 11.667 -134.001 35l-60 -87h-30l69 101c-35.333 24 -63.166 54.333 -83.499 91s-30.5 76 -30.5 118c0 70 26.5 130.833 79.5 182.5s116.167 77.5 189.5 77.5c50.667 0 96.667 -13 138 -39l55 80h31l-64 -94c34 -24.667 60.667 -55.167 80 -91.5
s29 -74.833 29 -115.5c0 -70 -26.5 -130.5 -79.5 -181.5s-116.167 -76.5 -189.5 -76.5zM190.999 243c0 -48 3.33301 -87.667 10 -119l180 264c-17.333 64 -46.333 96 -87 96c-34.667 0 -60.5 -21.5 -77.5 -64.5s-25.5 -101.833 -25.5 -176.5zM293.999 4
c34 0 59.667 21.5 77 64.5s26 101.167 26 174.5c0 42 -3 79 -9 111l-180 -263c17.333 -58 46 -87 86 -87z" />
    <glyph glyph-name="ugrave" unicode="&#xf9;" horiz-adv-x="581" 
d="M349 96c-14 -27.333 -35.166 -52.6689 -63.499 -76.002s-61.833 -35 -100.5 -35c-42.667 0 -75.834 14.333 -99.501 43s-35.5 67.334 -35.5 116.001v227c0 27.333 -3 49 -9 65s-15.667 32 -29 48v3h198v-344c0 -22 5.33301 -40 16 -54s26.667 -21 48 -21
c30 0 54.333 16.333 73 49v255c0 28 -3 50.167 -9 66.5s-15.667 31.833 -29 46.5v2h199v-279c0 -53.333 3.5 -91.166 10.5 -113.499s20.167 -42.833 39.5 -61.5v-2l-206 -45v109zM357.001 530.997l-224 122l91 96l142 -209z" />
    <glyph glyph-name="uacute" unicode="&#xfa;" horiz-adv-x="581" 
d="M349 96c-14 -27.333 -35.166 -52.6689 -63.499 -76.002s-61.833 -35 -100.5 -35c-42.667 0 -75.834 14.333 -99.501 43s-35.5 67.334 -35.5 116.001v227c0 27.333 -3 49 -9 65s-15.667 32 -29 48v3h198v-344c0 -22 5.33301 -40 16 -54s26.667 -21 48 -21
c30 0 54.333 16.333 73 49v255c0 28 -3 50.167 -9 66.5s-15.667 31.833 -29 46.5v2h199v-279c0 -53.333 3.5 -91.166 10.5 -113.499s20.167 -42.833 39.5 -61.5v-2l-206 -45v109zM337.001 748.997l89 -96l-223 -119l-9 9z" />
    <glyph glyph-name="ucircumflex" unicode="&#xfb;" horiz-adv-x="581" 
d="M349 96c-14 -27.333 -35.166 -52.6689 -63.499 -76.002s-61.833 -35 -100.5 -35c-42.667 0 -75.834 14.333 -99.501 43s-35.5 67.334 -35.5 116.001v227c0 27.333 -3 49 -9 65s-15.667 32 -29 48v3h198v-344c0 -22 5.33301 -40 16 -54s26.667 -21 48 -21
c30 0 54.333 16.333 73 49v255c0 28 -3 50.167 -9 66.5s-15.667 31.833 -29 46.5v2h199v-279c0 -53.333 3.5 -91.166 10.5 -113.499s20.167 -42.833 39.5 -61.5v-2l-206 -45v109zM286.001 607.997l-141 -68l-9 11l145 181h9l144 -181l-8 -11z" />
    <glyph glyph-name="udieresis" unicode="&#xfc;" horiz-adv-x="581" 
d="M349 96c-14 -27.333 -35.166 -52.6689 -63.499 -76.002s-61.833 -35 -100.5 -35c-42.667 0 -75.834 14.333 -99.501 43s-35.5 67.334 -35.5 116.001v227c0 27.333 -3 49 -9 65s-15.667 32 -29 48v3h198v-344c0 -22 5.33301 -40 16 -54s26.667 -21 48 -21
c30 0 54.333 16.333 73 49v255c0 28 -3 50.167 -9 66.5s-15.667 31.833 -29 46.5v2h199v-279c0 -53.333 3.5 -91.166 10.5 -113.499s20.167 -42.833 39.5 -61.5v-2l-206 -45v109zM477.001 654.997c0 -23.333 -8.16699 -43 -24.5 -59s-36.166 -24 -59.499 -24
s-42.666 8 -57.999 24s-23 35.667 -23 59c0 22.667 7.66699 42 23 58s34.666 24 57.999 24s43.166 -8 59.499 -24s24.5 -35.333 24.5 -58zM257.001 654.997c0 -23.333 -8.16699 -43 -24.5 -59s-36.166 -24 -59.499 -24c-22.667 0 -41.834 8 -57.501 24
s-23.5 35.667 -23.5 59c0 22.667 7.83301 42 23.5 58s34.834 24 57.501 24c23.333 0 43.166 -8 59.499 -24s24.5 -35.333 24.5 -58z" />
    <glyph glyph-name="yacute" unicode="&#xfd;" horiz-adv-x="480" 
d="M19 -93c96.667 -8.66699 160.332 12.999 190.999 64.999l-146 363c-33.333 80.667 -58.666 130.667 -75.999 150v2h245v-2c-10 -12.667 -15.5 -33.167 -16.5 -61.5s4.83301 -59.833 17.5 -94.5l60 -156l66 158c9.33301 22.667 14.166 44.834 14.499 66.501
s-1.83398 39.5 -6.50098 53.5s-10.667 25.333 -18 34v2h128v-2c-19.333 -21.333 -35.666 -42.333 -48.999 -63s-28 -50 -44 -88l-135 -323c-19.333 -46 -37.833 -83.5 -55.5 -112.5s-36.667 -51.5 -57 -67.5s-38.166 -27.333 -53.499 -34s-37 -14 -65 -22v132z
M330.998 748.999l89 -96l-223 -119l-9 9z" />
    <glyph glyph-name="thorn" unicode="&#xfe;" horiz-adv-x="605" 
d="M310 3c32 0 56.667 19.3311 74 57.998s26 92.334 26 161.001c0 69.333 -9.33301 120 -28 152s-47.667 48 -87 48c-28 0 -51.667 -7 -71 -21v-242c0 -53.333 8.16699 -92.666 24.5 -117.999s36.833 -38 61.5 -38zM248 -225.002h-208.999v2c16 48 24 106 24 174v609
c0 64.667 -16.667 117.667 -50 159v2l211 58v-355h2c39.333 52.667 92 79 158 79c58 0 104.833 -23 140.5 -69s53.5 -106.333 53.5 -181c0 -79.333 -22.333 -143.833 -67 -193.5s-109.667 -74.5 -195 -74.5c-30.667 0 -61.334 4 -92.001 12v-46
c0 -66.667 8 -124.667 24 -174v-2z" />
    <glyph glyph-name="ydieresis" unicode="&#xff;" horiz-adv-x="480" 
d="M19 -93c96.667 -8.66699 160.332 12.999 190.999 64.999l-146 363c-33.333 80.667 -58.666 130.667 -75.999 150v2h245v-2c-10 -12.667 -15.5 -33.167 -16.5 -61.5s4.83301 -59.833 17.5 -94.5l60 -156l66 158c9.33301 22.667 14.166 44.834 14.499 66.501
s-1.83398 39.5 -6.50098 53.5s-10.667 25.333 -18 34v2h128v-2c-19.333 -21.333 -35.666 -42.333 -48.999 -63s-28 -50 -44 -88l-135 -323c-19.333 -46 -37.833 -83.5 -55.5 -112.5s-36.667 -51.5 -57 -67.5s-38.166 -27.333 -53.499 -34s-37 -14 -65 -22v132z
M444.998 654.999c0 -23.333 -8.16699 -43 -24.5 -59s-36.166 -24 -59.499 -24s-42.666 8 -57.999 24s-23 35.667 -23 59c0 22.667 7.66699 42 23 58s34.666 24 57.999 24s43.166 -8 59.499 -24s24.5 -35.333 24.5 -58zM224.998 654.999c0 -23.333 -8.16699 -43 -24.5 -59
s-36.166 -24 -59.499 -24c-22.667 0 -41.834 8 -57.501 24s-23.5 35.667 -23.5 59c0 22.667 7.83301 42 23.5 58s34.834 24 57.501 24c23.333 0 43.166 -8 59.499 -24s24.5 -35.333 24.5 -58z" />
    <glyph glyph-name="Amacron" unicode="&#x100;" horiz-adv-x="704" 
d="M283 596l-108 -297h212zM187 0h-184.001v2c38.667 36.667 74.334 99 107.001 187l197 546h101l200 -551c28.667 -80 59.667 -140.667 93 -182v-2h-298v2c40.667 53.333 46.667 120 18 200l-26 74h-228l-18 -49c-36.667 -103.333 -24 -178.333 38 -225v-2zM183.999 895
h348v-67h-348v67z" />
    <glyph glyph-name="amacron" unicode="&#x101;" horiz-adv-x="525" 
d="M231 72c16.667 0 30.667 3.33301 42 10v161c-34.667 -9.33301 -61.5 -23.333 -80.5 -42s-28.5 -40 -28.5 -64c0 -20 5.83301 -35.833 17.5 -47.5s28.167 -17.5 49.5 -17.5zM383 -14c-29.333 0 -53.334 7 -72.001 21s-30.334 32.667 -35.001 56
c-35.333 -52 -82 -78 -140 -78c-32.667 0 -59.667 8.5 -81 25.5s-32 41.833 -32 74.5c0 84 83.333 143.667 250 179v62c0 30 -7.16699 51.833 -21.5 65.5s-39.166 20.5 -74.499 20.5c-44 0 -87.333 -9 -130 -27l-4 7c60 74 138.333 111 235 111
c52.667 0 91.834 -11.667 117.501 -35s38.5 -55.333 38.5 -96v-257c0 -30 14.333 -45 43 -45c14 0 26.667 4 38 12l2 -4c-26 -61.333 -70.667 -92 -134 -92zM99.999 648h298v-67h-298v67z" />
    <glyph glyph-name="Abreve" unicode="&#x102;" horiz-adv-x="704" 
d="M283 596l-108 -297h212zM187 0h-184.001v2c38.667 36.667 74.334 99 107.001 187l197 546h101l200 -551c28.667 -80 59.667 -140.667 93 -182v-2h-298v2c40.667 53.333 46.667 120 18 200l-26 74h-228l-18 -49c-36.667 -103.333 -24 -178.333 38 -225v-2zM356.999 883
c68.667 0 113.665 22.668 134.998 68.001h13c-1.33301 -16 -4.66602 -31.833 -9.99902 -47.5s-13.166 -31.834 -23.499 -48.501s-25.333 -30.167 -45 -40.5s-42.834 -15.5 -69.501 -15.5c-26 0 -49 5.16699 -69 15.5s-35.167 23.833 -45.5 40.5s-18.166 33 -23.499 49
s-8.33301 31.667 -9 47h12c18.667 -45.333 63.667 -68 135 -68z" />
    <glyph glyph-name="abreve" unicode="&#x103;" horiz-adv-x="525" 
d="M231 72c16.667 0 30.667 3.33301 42 10v161c-34.667 -9.33301 -61.5 -23.333 -80.5 -42s-28.5 -40 -28.5 -64c0 -20 5.83301 -35.833 17.5 -47.5s28.167 -17.5 49.5 -17.5zM383 -14c-29.333 0 -53.334 7 -72.001 21s-30.334 32.667 -35.001 56
c-35.333 -52 -82 -78 -140 -78c-32.667 0 -59.667 8.5 -81 25.5s-32 41.833 -32 74.5c0 84 83.333 143.667 250 179v62c0 30 -7.16699 51.833 -21.5 65.5s-39.166 20.5 -74.499 20.5c-44 0 -87.333 -9 -130 -27l-4 7c60 74 138.333 111 235 111
c52.667 0 91.834 -11.667 117.501 -35s38.5 -55.333 38.5 -96v-257c0 -30 14.333 -45 43 -45c14 0 26.667 4 38 12l2 -4c-26 -61.333 -70.667 -92 -134 -92zM247.999 646c60.667 0 100.337 21.667 119.004 65h13c-1.33301 -15.333 -4.33301 -30.333 -9 -45
s-11.834 -30 -21.501 -46s-23.334 -29 -41.001 -39s-38.167 -15 -61.5 -15s-43.833 5 -61.5 15s-31 22.833 -40 38.5s-15.833 31.167 -20.5 46.5s-7.33398 30.333 -8.00098 45h13c17.333 -43.333 56.666 -65 117.999 -65z" />
    <glyph glyph-name="Aogonek" unicode="&#x104;" horiz-adv-x="704" 
d="M363 -248c-30.667 0 -54.8311 7.66699 -72.498 23s-26.5 36.666 -26.5 63.999c0 28.667 9.66699 53.834 29 75.501s49.666 46.834 90.999 75.501c36 26 54 65.333 54 118c0 29.333 -5.66699 60.666 -17 93.999l-26 74h-229l-18 -49c-14 -36 -20.833 -69.167 -20.5 -99.5
s5.66602 -55.333 15.999 -75s24.833 -36.5 43.5 -50.5v-2h-184v2c38.667 36.667 74.334 99 107.001 187l197 546h101l200 -551c28.667 -80 59.667 -140.667 93 -182v-2h-261c-46.667 -40 -70 -78.333 -70 -115c0 -17.333 4.66699 -30.833 14 -40.5s22.333 -14.5 39 -14.5
c21.333 0 42.666 11 63.999 33l9 -7c-32.667 -69.333 -77 -104 -133 -104zM283.003 594l-108 -295h212z" />
    <glyph glyph-name="aogonek" unicode="&#x105;" horiz-adv-x="525" 
d="M353 -248c-29.333 0 -52.833 7.99902 -70.5 23.999s-26.5 37 -26.5 63c0 28.667 10.5 54.5 31.5 77.5s51.833 46.167 92.5 69.5c-29.333 1.33301 -52.833 9 -70.5 23s-28.834 32 -33.501 54c-35.333 -52 -82 -78 -140 -78c-32.667 0 -59.667 8.5 -81 25.5
s-32 41.833 -32 74.5c0 84 83.333 143.667 250 179v62c0 30 -7.16699 51.833 -21.5 65.5s-39.166 20.5 -74.499 20.5c-44 0 -87.333 -9 -130 -27l-4 7c60 74 138.333 111 235 111c52.667 0 91.834 -11.667 117.501 -35s38.5 -55.333 38.5 -96v-257c0 -30 14.333 -45 43 -45
c14 0 26.667 4 38 12l2 -4c-11.333 -25.333 -25.666 -45.333 -42.999 -60c-6.66699 -6 -16.834 -13.167 -30.501 -21.5s-23.5 -14.5 -29.5 -18.5c-34.667 -25.333 -52 -55.666 -52 -90.999c0 -38 17.667 -57 53 -57c22.667 0 43.667 11 63 33l9 -7
c-32.667 -69.333 -77.334 -104 -134.001 -104zM231 71.999c16.667 0 30.667 3.33301 42 10v161c-34.667 -9.33301 -61.5 -23.333 -80.5 -42s-28.5 -40 -28.5 -64c0 -20 5.83301 -35.833 17.5 -47.5s28.167 -17.5 49.5 -17.5z" />
    <glyph glyph-name="Cacute" unicode="&#x106;" horiz-adv-x="768" 
d="M705 60c-13.333 -9.33301 -29.666 -18.8301 -48.999 -28.4971s-49.5 -19.834 -90.5 -30.501s-83.167 -16 -126.5 -16c-116.667 0 -214.167 35 -292.5 105s-117.5 159 -117.5 267c0 109.333 39.667 201.666 119 276.999s179 113 299 113c78 0 162.667 -12.333 254 -37
l20 -184l-10 -3c-56.667 76 -103.667 128.5 -141 157.5s-80 43.5 -128 43.5c-146.667 0 -220 -122.333 -220 -367c0 -110 18.833 -195.667 56.5 -257s91.5 -92 161.5 -92c29.333 0 56.166 5.5 80.499 16.5s47.833 29.167 70.5 54.5s42.5 50.666 59.5 75.999
s38.5 60.333 64.5 105l10 -3zM557 959.003l53 -123l-279 -54l-6 13z" />
    <glyph glyph-name="cacute" unicode="&#x107;" horiz-adv-x="497" 
d="M471 136c-14 -47.333 -38.8311 -84.334 -74.498 -111.001s-80.5 -40 -134.5 -40c-70.667 0 -127.834 22.5 -171.501 67.5s-65.5 105.167 -65.5 180.5c0 78.667 26 143.334 78 194.001s119 76 201 76c51.333 0 96.666 -8 135.999 -24l15 -144l-10 -2
c-64 100 -115.667 150 -155 150c-29.333 0 -53.833 -16.833 -73.5 -50.5s-29.5 -78.5 -29.5 -134.5c0 -68 15.167 -118.333 45.5 -151s69.5 -49 117.5 -49c50 0 88.667 13.667 116 41zM317.002 748.999l89 -96l-223 -119l-9 9z" />
    <glyph glyph-name="Ccircumflex" unicode="&#x108;" horiz-adv-x="768" 
d="M705 60c-13.333 -9.33301 -29.666 -18.8301 -48.999 -28.4971s-49.5 -19.834 -90.5 -30.501s-83.167 -16 -126.5 -16c-116.667 0 -214.167 35 -292.5 105s-117.5 159 -117.5 267c0 109.333 39.667 201.666 119 276.999s179 113 299 113c78 0 162.667 -12.333 254 -37
l20 -184l-10 -3c-56.667 76 -103.667 128.5 -141 157.5s-80 43.5 -128 43.5c-146.667 0 -220 -122.333 -220 -367c0 -110 18.833 -195.667 56.5 -257s91.5 -92 161.5 -92c29.333 0 56.166 5.5 80.499 16.5s47.833 29.167 70.5 54.5s42.5 50.666 59.5 75.999
s38.5 60.333 64.5 105l10 -3zM440 842.003l-155 -60l-8 11l159 163h9l159 -163l-9 -11z" />
    <glyph glyph-name="ccircumflex" unicode="&#x109;" horiz-adv-x="497" 
d="M471 136c-14 -47.333 -38.8311 -84.334 -74.498 -111.001s-80.5 -40 -134.5 -40c-70.667 0 -127.834 22.5 -171.501 67.5s-65.5 105.167 -65.5 180.5c0 78.667 26 143.334 78 194.001s119 76 201 76c51.333 0 96.666 -8 135.999 -24l15 -144l-10 -2
c-64 100 -115.667 150 -155 150c-29.333 0 -53.833 -16.833 -73.5 -50.5s-29.5 -78.5 -29.5 -134.5c0 -68 15.167 -118.333 45.5 -151s69.5 -49 117.5 -49c50 0 88.667 13.667 116 41zM265.002 607.999l-141 -68l-9 11l145 181h9l144 -181l-8 -11z" />
    <glyph glyph-name="Cdotaccent" unicode="&#x10a;" horiz-adv-x="768" 
d="M705 60c-13.333 -9.33301 -29.666 -18.8301 -48.999 -28.4971s-49.5 -19.834 -90.5 -30.501s-83.167 -16 -126.5 -16c-116.667 0 -214.167 35 -292.5 105s-117.5 159 -117.5 267c0 109.333 39.667 201.666 119 276.999s179 113 299 113c78 0 162.667 -12.333 254 -37
l20 -184l-10 -3c-56.667 76 -103.667 128.5 -141 157.5s-80 43.5 -128 43.5c-146.667 0 -220 -122.333 -220 -367c0 -110 18.833 -195.667 56.5 -257s91.5 -92 161.5 -92c29.333 0 56.166 5.5 80.499 16.5s47.833 29.167 70.5 54.5s42.5 50.666 59.5 75.999
s38.5 60.333 64.5 105l10 -3zM521 868.003c0 -22.667 -8 -42.001 -24 -58.001s-35 -24 -57 -24c-23.333 0 -42.833 8 -58.5 24s-23.5 35.333 -23.5 58s7.83301 42.334 23.5 59.001s35.167 25 58.5 25c22 0 41 -8.5 57 -25.5s24 -36.5 24 -58.5z" />
    <glyph glyph-name="cdotaccent" unicode="&#x10b;" horiz-adv-x="497" 
d="M471 136c-14 -47.333 -38.8311 -84.334 -74.498 -111.001s-80.5 -40 -134.5 -40c-70.667 0 -127.834 22.5 -171.501 67.5s-65.5 105.167 -65.5 180.5c0 78.667 26 143.334 78 194.001s119 76 201 76c51.333 0 96.666 -8 135.999 -24l15 -144l-10 -2
c-64 100 -115.667 150 -155 150c-29.333 0 -53.833 -16.833 -73.5 -50.5s-29.5 -78.5 -29.5 -134.5c0 -68 15.167 -118.333 45.5 -151s69.5 -49 117.5 -49c50 0 88.667 13.667 116 41zM353.002 654.999c0 -23.333 -8.16699 -43 -24.5 -59s-36.166 -24 -59.499 -24
c-22.667 0 -41.834 8 -57.501 24s-23.5 35.667 -23.5 59c0 22.667 7.83301 42 23.5 58s34.834 24 57.501 24c23.333 0 43.166 -8 59.499 -24s24.5 -35.333 24.5 -58z" />
    <glyph glyph-name="Ccaron" unicode="&#x10c;" horiz-adv-x="768" 
d="M705 60c-13.333 -9.33301 -29.666 -18.8301 -48.999 -28.4971s-49.5 -19.834 -90.5 -30.501s-83.167 -16 -126.5 -16c-116.667 0 -214.167 35 -292.5 105s-117.5 159 -117.5 267c0 109.333 39.667 201.666 119 276.999s179 113 299 113c78 0 162.667 -12.333 254 -37
l20 -184l-10 -3c-56.667 76 -103.667 128.5 -141 157.5s-80 43.5 -128 43.5c-146.667 0 -220 -122.333 -220 -367c0 -110 18.833 -195.667 56.5 -257s91.5 -92 161.5 -92c29.333 0 56.166 5.5 80.499 16.5s47.833 29.167 70.5 54.5s42.5 50.666 59.5 75.999
s38.5 60.333 64.5 105l10 -3zM435 782.003l-159 163l8 11l156 -60l155 60l8 -11l-159 -163h-9z" />
    <glyph glyph-name="ccaron" unicode="&#x10d;" horiz-adv-x="497" 
d="M471 136c-14 -47.333 -38.8311 -84.334 -74.498 -111.001s-80.5 -40 -134.5 -40c-70.667 0 -127.834 22.5 -171.501 67.5s-65.5 105.167 -65.5 180.5c0 78.667 26 143.334 78 194.001s119 76 201 76c51.333 0 96.666 -8 135.999 -24l15 -144l-10 -2
c-64 100 -115.667 150 -155 150c-29.333 0 -53.833 -16.833 -73.5 -50.5s-29.5 -78.5 -29.5 -134.5c0 -68 15.167 -118.333 45.5 -151s69.5 -49 117.5 -49c50 0 88.667 13.667 116 41zM122.002 721.999l8 10l141 -68l140 68l9 -10l-145 -182h-9z" />
    <glyph glyph-name="Dcaron" unicode="&#x10e;" horiz-adv-x="803" 
d="M42 2c15.333 35.333 25.8311 66.332 31.498 92.999s8.5 62.334 8.5 107.001v328c0 44.667 -2.83301 80 -8.5 106s-16.167 57.333 -31.5 94v2c32.667 0 78.334 0.666992 137.001 2s111.334 2 158.001 2c136 0 242.833 -31.833 320.5 -95.5s116.5 -154.167 116.5 -271.5
c0 -118 -38 -209 -114 -273s-183.667 -96 -323 -96h-295v2zM339.998 24.999c90 0 152.501 27 187.501 81s52.5 137 52.5 249c0 122.667 -19 213 -57 271s-101 86.333 -189 85c-16.667 0 -41 -1.66699 -73 -5v-677c29.333 -2.66699 55.666 -4 78.999 -4zM374.999 781.999
l-159 163l8 11l156 -60l155 60l8 -11l-159 -163h-9z" />
    <glyph glyph-name="dcaron" unicode="&#x10f;" horiz-adv-x="612" 
d="M294 67c36 0 64.334 12.333 85.001 37v275c-8.66699 70.667 -35.334 106 -80.001 106c-33.333 0 -59.333 -18.667 -78 -56s-28 -93.333 -28 -168c0 -129.333 33.667 -194 101 -194zM380.001 84c-16 -28.667 -38.1689 -52.332 -66.502 -70.999s-61.166 -28 -98.499 -28
c-56.667 0 -102.167 21.833 -136.5 65.5s-51.5 100.5 -51.5 170.5c0 79.333 23.167 146.166 69.5 200.499s110.833 81.5 193.5 81.5c33.333 0 63 -4.33301 89 -13v69c0 65.333 -16.667 118.666 -50 159.999v2l211 58v-569c0 -51.333 3.83301 -88.666 11.5 -111.999
s20.834 -45 39.501 -65v-2l-209 -45v98h-2zM595.999 775.002h111l-109 -203l-14 2z" />
    <glyph glyph-name="Dcroat" unicode="&#x110;" horiz-adv-x="811" 
d="M1 365l89.998 -0.000976562v165c0 44.667 -2.83301 80 -8.5 106s-16.167 57.333 -31.5 94v2c32.667 0 78.334 0.666992 137.001 2s111.334 2 158.001 2c136 0 242.833 -31.833 320.5 -95.5s116.5 -154.167 116.5 -271.5c0 -118 -38 -209 -114 -273s-183.667 -96 -323 -96
h-295v2c15.333 35.333 25.833 66.333 31.5 93s8.5 62.334 8.5 107.001v140h-90v23zM348.998 24.999c90 0 152.501 27 187.501 81s52.5 137 52.5 249c0 122.667 -19 213 -57 271s-101 86.333 -189 85c-16.667 0 -41 -1.66699 -73 -5v-341h129v-23h-129v-313
c29.333 -2.66699 55.666 -4 78.999 -4z" />
    <glyph glyph-name="dcroat" unicode="&#x111;" horiz-adv-x="612" 
d="M380 84c-16 -28.667 -38.1689 -52.333 -66.502 -71s-61.166 -28 -98.499 -28c-56.667 0 -102.167 21.833 -136.5 65.5s-51.5 100.5 -51.5 170.5c0 79.333 23.167 146.166 69.5 200.499s110.833 81.5 193.5 81.5c33.333 0 63 -4.33301 89 -13v69v20h-159v22h157l-1 9
c-5.33301 40.667 -21 77 -47 109v2l211 58v-178h63v-22h-63v-369c0 -51.333 3.83301 -88.666 11.5 -111.999s20.834 -45 39.501 -65v-2l-209 -45v98h-2zM293.998 67.001c36 0 64.334 12.333 85.001 37v275c-8.66699 70.667 -35.334 106 -80.001 106
c-33.333 0 -59.333 -18.667 -78 -56s-28 -93.333 -28 -168c0 -129.333 33.667 -194 101 -194z" />
    <glyph glyph-name="Emacron" unicode="&#x112;" horiz-adv-x="664" 
d="M598 0h-556v2c15.333 41.333 25.833 75.166 31.5 101.499s8.5 60.833 8.5 103.5v318c0 30 -1.83301 57 -5.5 81s-7.66699 43.333 -12 58s-11.833 36.667 -22.5 66v2h519l37 -193l-10 -3c-7.33301 6.66699 -26.833 27 -58.5 61s-58.667 60 -81 78s-41.833 27.667 -58.5 29
l-129 9v-326h59c10 0 20.333 2 31 6s21.5 10.333 32.5 19s20.167 16.334 27.5 23.001s16.833 16 28.5 28s19.834 20 24.501 24h10v-227h-10c-6 4.66699 -19.167 17.834 -39.5 39.501s-38.666 37.834 -54.999 48.501s-32.833 16 -49.5 16h-59v-345l145 8
c31.333 1.33301 69.166 23.666 113.499 66.999s84.166 89.666 119.499 138.999l10 -3zM155 895h348v-67h-348v67z" />
    <glyph glyph-name="emacron" unicode="&#x113;" horiz-adv-x="511" 
d="M266 485c-24.667 0 -43.833 -16.832 -57.5 -50.499s-20.5 -74.834 -20.5 -123.501l142 2v38c0 89.333 -21.333 134 -64 134zM485.001 143.001c-14 -48.667 -39.667 -87.166 -77 -115.499s-84 -42.5 -140 -42.5c-74 0 -133 23.667 -177 71s-66 107 -66 179
c0 77.333 23.667 141.333 71 192s106 76 176 76c66 0 118.5 -21.833 157.5 -65.5s57.833 -92.834 56.5 -147.501l-298 1c4.66699 -128.667 59 -193 163 -193c55.333 0 98.333 16 129 48zM111.001 648.002h298v-67h-298v67z" />
    <glyph glyph-name="Ebreve" unicode="&#x114;" horiz-adv-x="664" 
d="M598 0h-556v2c15.333 41.333 25.833 75.166 31.5 101.499s8.5 60.833 8.5 103.5v318c0 30 -1.83301 57 -5.5 81s-7.66699 43.333 -12 58s-11.833 36.667 -22.5 66v2h519l37 -193l-10 -3c-7.33301 6.66699 -26.833 27 -58.5 61s-58.667 60 -81 78s-41.833 27.667 -58.5 29
l-129 9v-326h59c10 0 20.333 2 31 6s21.5 10.333 32.5 19s20.167 16.334 27.5 23.001s16.833 16 28.5 28s19.834 20 24.501 24h10v-227h-10c-6 4.66699 -19.167 17.834 -39.5 39.501s-38.666 37.834 -54.999 48.501s-32.833 16 -49.5 16h-59v-345l145 8
c31.333 1.33301 69.166 23.666 113.499 66.999s84.166 89.666 119.499 138.999l10 -3zM329 883c68.667 0 113.665 22.668 134.998 68.001h13c-1.33301 -16 -4.66602 -31.833 -9.99902 -47.5s-13.166 -31.834 -23.499 -48.501s-25.333 -30.167 -45 -40.5
s-42.834 -15.5 -69.501 -15.5c-26 0 -49 5.16699 -69 15.5s-35.167 23.833 -45.5 40.5s-18.166 33 -23.499 49s-8.33301 31.667 -9 47h12c18.667 -45.333 63.667 -68 135 -68z" />
    <glyph glyph-name="ebreve" unicode="&#x115;" horiz-adv-x="511" 
d="M266 485c-24.667 0 -43.833 -16.832 -57.5 -50.499s-20.5 -74.834 -20.5 -123.501l142 2v38c0 89.333 -21.333 134 -64 134zM485.001 143.001c-14 -48.667 -39.667 -87.166 -77 -115.499s-84 -42.5 -140 -42.5c-74 0 -133 23.667 -177 71s-66 107 -66 179
c0 77.333 23.667 141.333 71 192s106 76 176 76c66 0 118.5 -21.833 157.5 -65.5s57.833 -92.834 56.5 -147.501l-298 1c4.66699 -128.667 59 -193 163 -193c55.333 0 98.333 16 129 48zM259.001 646.002c60.667 0 100.337 21.667 119.004 65h13
c-1.33301 -15.333 -4.33301 -30.333 -9 -45s-11.834 -30 -21.501 -46s-23.334 -29 -41.001 -39s-38.167 -15 -61.5 -15s-43.833 5 -61.5 15s-31 22.833 -40 38.5s-15.833 31.167 -20.5 46.5s-7.33398 30.333 -8.00098 45h13c17.333 -43.333 56.666 -65 117.999 -65z" />
    <glyph glyph-name="Edotaccent" unicode="&#x116;" horiz-adv-x="664" 
d="M598 0h-556v2c15.333 41.333 25.833 75.166 31.5 101.499s8.5 60.833 8.5 103.5v318c0 30 -1.83301 57 -5.5 81s-7.66699 43.333 -12 58s-11.833 36.667 -22.5 66v2h519l37 -193l-10 -3c-7.33301 6.66699 -26.833 27 -58.5 61s-58.667 60 -81 78s-41.833 27.667 -58.5 29
l-129 9v-326h59c10 0 20.333 2 31 6s21.5 10.333 32.5 19s20.167 16.334 27.5 23.001s16.833 16 28.5 28s19.834 20 24.501 24h10v-227h-10c-6 4.66699 -19.167 17.834 -39.5 39.501s-38.666 37.834 -54.999 48.501s-32.833 16 -49.5 16h-59v-345l145 8
c31.333 1.33301 69.166 23.666 113.499 66.999s84.166 89.666 119.499 138.999l10 -3zM411 868c0 -22.667 -8 -42.001 -24 -58.001s-35 -24 -57 -24c-23.333 0 -42.833 8 -58.5 24s-23.5 35.333 -23.5 58s7.83301 42.334 23.5 59.001s35.167 25 58.5 25
c22 0 41 -8.5 57 -25.5s24 -36.5 24 -58.5z" />
    <glyph glyph-name="edotaccent" unicode="&#x117;" horiz-adv-x="511" 
d="M266 485c-24.667 0 -43.833 -16.832 -57.5 -50.499s-20.5 -74.834 -20.5 -123.501l142 2v38c0 89.333 -21.333 134 -64 134zM485.001 143.001c-14 -48.667 -39.667 -87.166 -77 -115.499s-84 -42.5 -140 -42.5c-74 0 -133 23.667 -177 71s-66 107 -66 179
c0 77.333 23.667 141.333 71 192s106 76 176 76c66 0 118.5 -21.833 157.5 -65.5s57.833 -92.834 56.5 -147.501l-298 1c4.66699 -128.667 59 -193 163 -193c55.333 0 98.333 16 129 48zM345.001 655.002c0 -23.333 -8.16699 -43 -24.5 -59s-36.166 -24 -59.499 -24
c-22.667 0 -41.834 8 -57.501 24s-23.5 35.667 -23.5 59c0 22.667 7.83301 42 23.5 58s34.834 24 57.501 24c23.333 0 43.166 -8 59.499 -24s24.5 -35.333 24.5 -58z" />
    <glyph glyph-name="Eogonek" unicode="&#x118;" horiz-adv-x="664" 
d="M598 0l-132.998 0.000976562c-46.667 -40.667 -70 -79 -70 -115c0 -17.333 4.66699 -30.833 14 -40.5s22.333 -14.5 39 -14.5c23.333 0 44.666 11 63.999 33l9 -7c-32.667 -69.333 -78 -104 -136 -104c-28.667 0 -51.834 8 -69.501 24s-26.5 37.333 -26.5 64
c0 31.333 12.667 59.666 38 84.999c24.667 24.667 57.667 49.667 99 75h-384v2c15.333 41.333 25.833 75.166 31.5 101.499s8.5 60.833 8.5 103.5v318c0 30 -1.83301 57 -5.5 81s-7.66699 43.333 -12 58s-11.833 36.667 -22.5 66v2h519l37 -193l-10 -3
c-7.33301 6.66699 -26.833 27 -58.5 61s-58.667 60 -81 78s-41.833 27.667 -58.5 29l-129 9v-326h59c10 0 20.333 2 31 6s21.5 10.333 32.5 19s20.167 16.334 27.5 23.001s16.833 16 28.5 28s19.834 20 24.501 24h10v-227h-10c-6 4.66699 -19.167 17.834 -39.5 39.501
s-38.666 37.834 -54.999 48.501s-32.833 16 -49.5 16h-59v-345l145 8c31.333 1.33301 69.166 23.666 113.499 66.999s84.166 89.666 119.499 138.999l10 -3z" />
    <glyph glyph-name="eogonek" unicode="&#x119;" horiz-adv-x="511" 
d="M397 -144c-32.667 -69.333 -77.668 -104.002 -135.001 -104.002c-28.667 0 -52 7.83301 -70 23.5s-27 36.5 -27 62.5c0 41.333 26.333 81 79 119c14 10.667 30.667 20.667 50 30c-5.33301 -1.33301 -10.333 -2 -15 -2h-17c-74 0 -132 22.833 -174 68.5
s-63 105.5 -63 179.5c0 78 23.5 142.5 70.5 193.5s104.833 76.5 173.5 76.5c66 0 117.333 -21.667 154 -65s54.334 -92.666 53.001 -147.999l-289 2c1.33301 -69.333 16.833 -119 46.5 -149s68.167 -45 115.5 -45c27.333 0 52 4.33301 74 13s38 18 48 28l6 -3
c-14 -45.333 -39.667 -82.333 -77 -111c-8.66699 -7.33301 -21.167 -15.166 -37.5 -23.499s-27.5 -14.5 -33.5 -18.5c-38.667 -24.667 -58 -56.667 -58 -96c0 -38 18 -57 54 -57c20.667 0 41.667 11 63 33zM262.999 484.998c-22 0 -40.167 -17.332 -54.5 -51.999
s-21.5 -75.334 -21.5 -122.001l133 2v38c0 89.333 -19 134 -57 134z" />
    <glyph glyph-name="Ecaron" unicode="&#x11a;" horiz-adv-x="664" 
d="M598 0h-556v2c15.333 41.333 25.833 75.166 31.5 101.499s8.5 60.833 8.5 103.5v318c0 30 -1.83301 57 -5.5 81s-7.66699 43.333 -12 58s-11.833 36.667 -22.5 66v2h519l37 -193l-10 -3c-7.33301 6.66699 -26.833 27 -58.5 61s-58.667 60 -81 78s-41.833 27.667 -58.5 29
l-129 9v-326h59c10 0 20.333 2 31 6s21.5 10.333 32.5 19s20.167 16.334 27.5 23.001s16.833 16 28.5 28s19.834 20 24.501 24h10v-227h-10c-6 4.66699 -19.167 17.834 -39.5 39.501s-38.666 37.834 -54.999 48.501s-32.833 16 -49.5 16h-59v-345l145 8
c31.333 1.33301 69.166 23.666 113.499 66.999s84.166 89.666 119.499 138.999l10 -3zM325 782l-159 163l8 11l156 -60l155 60l8 -11l-159 -163h-9z" />
    <glyph glyph-name="ecaron" unicode="&#x11b;" horiz-adv-x="511" 
d="M266 485c-24.667 0 -43.833 -16.832 -57.5 -50.499s-20.5 -74.834 -20.5 -123.501l142 2v38c0 89.333 -21.333 134 -64 134zM485.001 143.001c-14 -48.667 -39.667 -87.166 -77 -115.499s-84 -42.5 -140 -42.5c-74 0 -133 23.667 -177 71s-66 107 -66 179
c0 77.333 23.667 141.333 71 192s106 76 176 76c66 0 118.5 -21.833 157.5 -65.5s57.833 -92.834 56.5 -147.501l-298 1c4.66699 -128.667 59 -193 163 -193c55.333 0 98.333 16 129 48zM114.001 722.002l8 10l141 -68l140 68l9 -10l-145 -182h-9z" />
    <glyph glyph-name="Gcircumflex" unicode="&#x11c;" horiz-adv-x="806" 
d="M743 97c-95.333 -74.667 -201.002 -112.002 -317.002 -112.002c-120 0 -216.167 34.5 -288.5 103.5s-108.5 158.5 -108.5 268.5c0 112.667 38.333 205.834 115 279.501s181.667 110.5 315 110.5c66.667 0 148.667 -12.333 246 -37l20 -186l-11 -3
c-55.333 76 -102.166 128.833 -140.499 158.5s-81.166 44.5 -128.499 44.5c-148.667 0 -223 -122 -223 -366c0 -233.333 68.667 -350 206 -350c46 0 83.833 12.833 113.5 38.5s45.167 63.167 46.5 112.5c1.33301 38 -2.5 69.333 -11.5 94s-24.167 52.334 -45.5 83.001v2h252
v-2c-15.333 -38 -25.833 -70.833 -31.5 -98.5s-8.5 -64.5 -8.5 -110.5v-30zM439.998 841.998l-155 -60l-8 11l159 163h9l159 -163l-9 -11z" />
    <glyph glyph-name="gcircumflex" unicode="&#x11d;" horiz-adv-x="563" 
d="M254 173c41.333 0 62 51.667 62 155c0 104.667 -21 157 -63 157c-22.667 0 -38.5 -13 -47.5 -39s-13.5 -65.333 -13.5 -118c0 -103.333 20.667 -155 62 -155zM536 -61c-0.666992 -52.667 -26.8301 -94 -78.4971 -124s-124.167 -45 -217.5 -45
c-72.667 0 -129.667 8.83301 -171 26.5s-62 42.167 -62 73.5c0 20.667 9 38.334 27 53.001s40.667 25 68 31c-50 18 -75 51 -75 99c0 34 10.667 61.5 32 82.5s46.666 36.5 75.999 46.5c-65.333 34 -98 82.667 -98 146c0 50 20.333 91.667 61 125s92.334 50 155.001 50
c55.333 0 103.666 -14.333 144.999 -43l138 86l2 -2v-113h-4l-117 14c35.333 -33.333 53 -72.333 53 -117c0 -48.667 -20.333 -89.667 -61 -123s-92.334 -50 -155.001 -50c-37.333 0 -72.666 7 -105.999 21c-12.667 -10 -19 -23 -19 -39
c0 -16.667 6.83301 -28.834 20.5 -36.501s37.167 -12.167 70.5 -13.5l89 -4c73.333 -4 129.666 -18 168.999 -42s58.666 -58 57.999 -102zM275.004 -204c52 0 91.8301 6.66699 119.497 20s41.5 32 41.5 56c0 19.333 -11.167 33.5 -33.5 42.5s-60.166 15.167 -113.499 18.5
l-99 5c-39.333 4 -63.666 7.66699 -72.999 11c-10.667 -16 -16 -33.667 -16 -53c0 -34 15.833 -59.167 47.5 -75.5s73.834 -24.5 126.501 -24.5zM270.001 608l-141 -68l-9 11l145 181h9l144 -181l-8 -11z" />
    <glyph glyph-name="Gbreve" unicode="&#x11e;" horiz-adv-x="806" 
d="M743 97c-95.333 -74.667 -201.002 -112.002 -317.002 -112.002c-120 0 -216.167 34.5 -288.5 103.5s-108.5 158.5 -108.5 268.5c0 112.667 38.333 205.834 115 279.501s181.667 110.5 315 110.5c66.667 0 148.667 -12.333 246 -37l20 -186l-11 -3
c-55.333 76 -102.166 128.833 -140.499 158.5s-81.166 44.5 -128.499 44.5c-148.667 0 -223 -122 -223 -366c0 -233.333 68.667 -350 206 -350c46 0 83.833 12.833 113.5 38.5s45.167 63.167 46.5 112.5c1.33301 38 -2.5 69.333 -11.5 94s-24.167 52.334 -45.5 83.001v2h252
v-2c-15.333 -38 -25.833 -70.833 -31.5 -98.5s-8.5 -64.5 -8.5 -110.5v-30zM439.998 882.998c68.667 0 113.665 22.668 134.998 68.001h13c-1.33301 -16 -4.66602 -31.833 -9.99902 -47.5s-13.166 -31.834 -23.499 -48.501s-25.333 -30.167 -45 -40.5
s-42.834 -15.5 -69.501 -15.5c-26 0 -49 5.16699 -69 15.5s-35.167 23.833 -45.5 40.5s-18.166 33 -23.499 49s-8.33301 31.667 -9 47h12c18.667 -45.333 63.667 -68 135 -68z" />
    <glyph glyph-name="gbreve" unicode="&#x11f;" horiz-adv-x="563" 
d="M254 173c41.333 0 62 51.667 62 155c0 104.667 -21 157 -63 157c-22.667 0 -38.5 -13 -47.5 -39s-13.5 -65.333 -13.5 -118c0 -103.333 20.667 -155 62 -155zM536 -61c-0.666992 -52.667 -26.8301 -94 -78.4971 -124s-124.167 -45 -217.5 -45
c-72.667 0 -129.667 8.83301 -171 26.5s-62 42.167 -62 73.5c0 20.667 9 38.334 27 53.001s40.667 25 68 31c-50 18 -75 51 -75 99c0 34 10.667 61.5 32 82.5s46.666 36.5 75.999 46.5c-65.333 34 -98 82.667 -98 146c0 50 20.333 91.667 61 125s92.334 50 155.001 50
c55.333 0 103.666 -14.333 144.999 -43l138 86l2 -2v-113h-4l-117 14c35.333 -33.333 53 -72.333 53 -117c0 -48.667 -20.333 -89.667 -61 -123s-92.334 -50 -155.001 -50c-37.333 0 -72.666 7 -105.999 21c-12.667 -10 -19 -23 -19 -39
c0 -16.667 6.83301 -28.834 20.5 -36.501s37.167 -12.167 70.5 -13.5l89 -4c73.333 -4 129.666 -18 168.999 -42s58.666 -58 57.999 -102zM275.004 -204c52 0 91.8301 6.66699 119.497 20s41.5 32 41.5 56c0 19.333 -11.167 33.5 -33.5 42.5s-60.166 15.167 -113.499 18.5
l-99 5c-39.333 4 -63.666 7.66699 -72.999 11c-10.667 -16 -16 -33.667 -16 -53c0 -34 15.833 -59.167 47.5 -75.5s73.834 -24.5 126.501 -24.5zM269.001 646c60.667 0 100.337 21.667 119.004 65h13c-1.33301 -15.333 -4.33301 -30.333 -9 -45s-11.834 -30 -21.501 -46
s-23.334 -29 -41.001 -39s-38.167 -15 -61.5 -15s-43.833 5 -61.5 15s-31 22.833 -40 38.5s-15.833 31.167 -20.5 46.5s-7.33398 30.333 -8.00098 45h13c17.333 -43.333 56.666 -65 117.999 -65z" />
    <glyph glyph-name="Gdotaccent" unicode="&#x120;" horiz-adv-x="806" 
d="M743 97c-95.333 -74.667 -201.002 -112.002 -317.002 -112.002c-120 0 -216.167 34.5 -288.5 103.5s-108.5 158.5 -108.5 268.5c0 112.667 38.333 205.834 115 279.501s181.667 110.5 315 110.5c66.667 0 148.667 -12.333 246 -37l20 -186l-11 -3
c-55.333 76 -102.166 128.833 -140.499 158.5s-81.166 44.5 -128.499 44.5c-148.667 0 -223 -122 -223 -366c0 -233.333 68.667 -350 206 -350c46 0 83.833 12.833 113.5 38.5s45.167 63.167 46.5 112.5c1.33301 38 -2.5 69.333 -11.5 94s-24.167 52.334 -45.5 83.001v2h252
v-2c-15.333 -38 -25.833 -70.833 -31.5 -98.5s-8.5 -64.5 -8.5 -110.5v-30zM520.998 867.998c0 -22.667 -8 -42.001 -24 -58.001s-35 -24 -57 -24c-23.333 0 -42.833 8 -58.5 24s-23.5 35.333 -23.5 58s7.83301 42.334 23.5 59.001s35.167 25 58.5 25c22 0 41 -8.5 57 -25.5
s24 -36.5 24 -58.5z" />
    <glyph glyph-name="gdotaccent" unicode="&#x121;" horiz-adv-x="563" 
d="M254 173c41.333 0 62 51.667 62 155c0 104.667 -21 157 -63 157c-22.667 0 -38.5 -13 -47.5 -39s-13.5 -65.333 -13.5 -118c0 -103.333 20.667 -155 62 -155zM536 -61c-0.666992 -52.667 -26.8301 -94 -78.4971 -124s-124.167 -45 -217.5 -45
c-72.667 0 -129.667 8.83301 -171 26.5s-62 42.167 -62 73.5c0 20.667 9 38.334 27 53.001s40.667 25 68 31c-50 18 -75 51 -75 99c0 34 10.667 61.5 32 82.5s46.666 36.5 75.999 46.5c-65.333 34 -98 82.667 -98 146c0 50 20.333 91.667 61 125s92.334 50 155.001 50
c55.333 0 103.666 -14.333 144.999 -43l138 86l2 -2v-113h-4l-117 14c35.333 -33.333 53 -72.333 53 -117c0 -48.667 -20.333 -89.667 -61 -123s-92.334 -50 -155.001 -50c-37.333 0 -72.666 7 -105.999 21c-12.667 -10 -19 -23 -19 -39
c0 -16.667 6.83301 -28.834 20.5 -36.501s37.167 -12.167 70.5 -13.5l89 -4c73.333 -4 129.666 -18 168.999 -42s58.666 -58 57.999 -102zM275.004 -204c52 0 91.8301 6.66699 119.497 20s41.5 32 41.5 56c0 19.333 -11.167 33.5 -33.5 42.5s-60.166 15.167 -113.499 18.5
l-99 5c-39.333 4 -63.666 7.66699 -72.999 11c-10.667 -16 -16 -33.667 -16 -53c0 -34 15.833 -59.167 47.5 -75.5s73.834 -24.5 126.501 -24.5zM352.001 655c0 -23.333 -8.16699 -43 -24.5 -59s-36.166 -24 -59.499 -24c-22.667 0 -41.834 8 -57.501 24
s-23.5 35.667 -23.5 59c0 22.667 7.83301 42 23.5 58s34.834 24 57.501 24c23.333 0 43.166 -8 59.499 -24s24.5 -35.333 24.5 -58z" />
    <glyph glyph-name="uni0122" unicode="&#x122;" horiz-adv-x="806" 
d="M743 97c-95.333 -74.667 -201.002 -112.002 -317.002 -112.002c-120 0 -216.167 34.5 -288.5 103.5s-108.5 158.5 -108.5 268.5c0 112.667 38.333 205.834 115 279.501s181.667 110.5 315 110.5c66.667 0 148.667 -12.333 246 -37l20 -186l-11 -3
c-55.333 76 -102.166 128.833 -140.499 158.5s-81.166 44.5 -128.499 44.5c-148.667 0 -223 -122 -223 -366c0 -233.333 68.667 -350 206 -350c46 0 83.833 12.833 113.5 38.5s45.167 63.167 46.5 112.5c1.33301 38 -2.5 69.333 -11.5 94s-24.167 52.334 -45.5 83.001v2h252
v-2c-15.333 -38 -25.833 -70.833 -31.5 -98.5s-8.5 -64.5 -8.5 -110.5v-30zM367.998 -239.002c15.333 11.333 27.332 24.165 35.999 38.498s13 27.5 13 39.5c0 14.667 -14.333 36.334 -43 65.001v1l90 57c14 -8 25.5 -18.5 34.5 -31.5s13.5 -26.167 13.5 -39.5
c0 -25.333 -14.667 -50.666 -44 -75.999s-61.666 -45 -96.999 -59z" />
    <glyph glyph-name="uni0123" unicode="&#x123;" horiz-adv-x="563" 
d="M254 173c41.333 0 62 51.667 62 155c0 104.667 -21 157 -63 157c-22.667 0 -38.5 -13 -47.5 -39s-13.5 -65.333 -13.5 -118c0 -103.333 20.667 -155 62 -155zM536 -61c-0.666992 -52.667 -26.8301 -94 -78.4971 -124s-124.167 -45 -217.5 -45
c-72.667 0 -129.667 8.83301 -171 26.5s-62 42.167 -62 73.5c0 20.667 9 38.334 27 53.001s40.667 25 68 31c-50 18 -75 51 -75 99c0 34 10.667 61.5 32 82.5s46.666 36.5 75.999 46.5c-65.333 34 -98 82.667 -98 146c0 50 20.333 91.667 61 125s92.334 50 155.001 50
c55.333 0 103.666 -14.333 144.999 -43l138 86l2 -2v-113h-4l-117 14c35.333 -33.333 53 -72.333 53 -117c0 -48.667 -20.333 -89.667 -61 -123s-92.334 -50 -155.001 -50c-37.333 0 -72.666 7 -105.999 21c-12.667 -10 -19 -23 -19 -39
c0 -16.667 6.83301 -28.834 20.5 -36.501s37.167 -12.167 70.5 -13.5l89 -4c73.333 -4 129.666 -18 168.999 -42s58.666 -58 57.999 -102zM275.004 -204c52 0 91.8301 6.66699 119.497 20s41.5 32 41.5 56c0 19.333 -11.167 33.5 -33.5 42.5s-60.166 15.167 -113.499 18.5
l-99 5c-39.333 4 -63.666 7.66699 -72.999 11c-10.667 -16 -16 -33.667 -16 -53c0 -34 15.833 -59.167 47.5 -75.5s73.834 -24.5 126.501 -24.5zM348.001 764c-15.333 -11.333 -27.332 -24.165 -35.999 -38.498s-13 -27.5 -13 -39.5c0 -14.667 14.333 -36.334 43 -65.001v-1
l-90 -57c-14 8 -25.5 18.5 -34.5 31.5s-13.5 26.167 -13.5 39.5c0 25.333 14.667 50.666 44 75.999s61.666 45 96.999 59z" />
    <glyph glyph-name="Hcircumflex" unicode="&#x124;" horiz-adv-x="809" 
d="M42 2c15.333 37.333 25.833 69.8281 31.5 97.4951s8.5 64.834 8.5 111.501v310c0 46.667 -2.83301 83.5 -8.5 110.5s-16.167 59.833 -31.5 98.5v2h260v-2c-15.333 -38 -26 -71 -32 -99s-9 -64.667 -9 -110v-136h287v136c0 46 -2.83301 82.5 -8.5 109.5
s-16.5 60.167 -32.5 99.5v2h260v-2c-15.333 -37.333 -25.833 -70.166 -31.5 -98.499s-8.5 -65.166 -8.5 -110.499v-310c0 -45.333 2.83301 -82.166 8.5 -110.499s16.167 -61.166 31.5 -98.499v-2h-260v2c16 39.333 26.833 72.5 32.5 99.5s8.5 63.5 8.5 109.5v151h-287v-151
c0 -45.333 3 -82 9 -110s16.667 -61 32 -99v-2h-260v2zM405 841.995l-155 -60l-8 11l159 163h9l159 -163l-9 -11z" />
    <glyph glyph-name="hcircumflex" unicode="&#x125;" horiz-adv-x="603" 
d="M38 0l-0.000976562 2c16 48 24 106 24 174v384c0 64.667 -16.667 117.667 -50 159v2l211 58v-372c40 64 96 96 168 96c44.667 0 80.834 -12.667 108.501 -38s41.5 -59 41.5 -101v-188c0 -66.667 8 -124.667 24 -174v-2h-209v2c16 48 24 105.667 24 173v179
c0 22.667 -5.66699 40.667 -17 54s-28.333 20 -51 20c-35.333 0 -65 -16.333 -89 -49v-203c0 -66.667 8 -124.667 24 -174v-2h-209zM301.999 849l-155 -60l-8 11l159 163h9l159 -163l-9 -11z" />
    <glyph glyph-name="Hbar" unicode="&#x126;" horiz-adv-x="826" 
d="M51 2c15.333 37.333 25.833 69.8301 31.5 97.4971s8.5 64.834 8.5 111.501v310h-90v23h90l-2 41c-3.33301 43.333 -16 91.666 -38 144.999v2h260v-2c-21.333 -51.333 -34.333 -100 -39 -146l-2 -40h287l-2 40c-2.66699 40.667 -15.667 89.334 -39 146.001v2h260v-2
c-20 -49.333 -32.667 -98 -38 -146l-2 -40h89v-23h-89v-310c0 -45.333 2.83301 -82.166 8.5 -110.499s16.167 -61.166 31.5 -98.499v-2h-260v2c16 39.333 26.833 72.5 32.5 99.5s8.5 63.5 8.5 109.5v151h-287v-151c0 -45.333 3 -82 9 -110s16.667 -61 32 -99v-2h-260v2z
M270 384.997h287v136h-287v-136z" />
    <glyph glyph-name="hbar" unicode="&#x127;" horiz-adv-x="603" 
d="M38 0l-0.000976562 2c16 48 24 106 24 174v384v19h-69v22h67c-0.666992 2 -1 5 -1 9c-5.33301 40.667 -21 77 -47 109v2l211 58v-178h154v-22h-154v-172c40 64 96 96 168 96c44.667 0 80.834 -12.667 108.501 -38s41.5 -59 41.5 -101v-188c0 -66.667 8 -124.667 24 -174
v-2h-209v2c16 48 24 105.667 24 173v179c0 22.667 -5.66699 40.667 -17 54s-28.333 20 -51 20c-35.333 0 -65 -16.333 -89 -49v-203c0 -66.667 8 -124.667 24 -174v-2h-209z" />
    <glyph glyph-name="Itilde" unicode="&#x128;" horiz-adv-x="344" 
d="M42 2c15.333 38.667 25.833 71.5 31.5 98.5s8.5 63.833 8.5 110.5v310c0 46.667 -2.83301 83.5 -8.5 110.5s-16.167 59.833 -31.5 98.5v2h260v-2c-15.333 -38 -26 -71 -32 -99s-9 -64.667 -9 -110v-310c0 -45.333 3 -82 9 -110s16.667 -61 32 -99v-2h-260v2zM94 916
c20.667 0 48.499 -6.33301 83.499 -19s63.167 -19 84.5 -19c40 0 63.667 16.667 71 50l14 -2c4 -93.333 -29 -140 -99 -140c-20 0 -47.5 6.33301 -82.5 19s-63.5 19 -85.5 19c-39.333 0 -62.666 -17 -69.999 -51l-14 2c-4 94 28.667 141 98 141z" />
    <glyph glyph-name="itilde" unicode="&#x129;" horiz-adv-x="285" 
d="M41 2c16 59.333 24 117.333 24 174v112c0 36 -3.83301 65.833 -11.5 89.5s-20.5 46.5 -38.5 68.5v4l211 58v-332c0 -68 8 -126 24 -174v-2h-209v2zM82 694c15.333 0 38.665 -5.83301 69.998 -17.5s55 -17.5 71 -17.5c33.333 0 54.333 15.667 63 47l14 -2
c0 -36.667 -7.16699 -68.667 -21.5 -96s-38.166 -41 -71.499 -41c-14 0 -37 5.83301 -69 17.5s-56 17.5 -72 17.5c-33.333 0 -54.333 -15.667 -63 -47l-14 2c0 36 7.33301 67.833 22 95.5s38.334 41.5 71.001 41.5z" />
    <glyph glyph-name="Imacron" unicode="&#x12a;" horiz-adv-x="344" 
d="M42 2c15.333 38.667 25.833 71.5 31.5 98.5s8.5 63.833 8.5 110.5v310c0 46.667 -2.83301 83.5 -8.5 110.5s-16.167 59.833 -31.5 98.5v2h260v-2c-15.333 -38 -26 -71 -32 -99s-9 -64.667 -9 -110v-310c0 -45.333 3 -82 9 -110s16.667 -61 32 -99v-2h-260v2zM-2 895h348
v-67h-348v67z" />
    <glyph glyph-name="imacron" unicode="&#x12b;" horiz-adv-x="285" 
d="M7 648h242v-67h-242v67zM41 2c16 59.333 24 117.333 24 174v112c0 36 -3.83301 65.833 -11.5 89.5s-20.5 46.5 -38.5 68.5v4l211 58v-332c0 -68 8 -126 24 -174v-2h-209v2z" />
    <glyph glyph-name="Ibreve" unicode="&#x12c;" horiz-adv-x="344" 
d="M42 2c15.333 38.667 25.833 71.5 31.5 98.5s8.5 63.833 8.5 110.5v310c0 46.667 -2.83301 83.5 -8.5 110.5s-16.167 59.833 -31.5 98.5v2h260v-2c-15.333 -38 -26 -71 -32 -99s-9 -64.667 -9 -110v-310c0 -45.333 3 -82 9 -110s16.667 -61 32 -99v-2h-260v2zM172 883
c68.667 0 113.665 22.668 134.998 68.001h13c-1.33301 -16 -4.66602 -31.833 -9.99902 -47.5s-13.166 -31.834 -23.499 -48.501s-25.333 -30.167 -45 -40.5s-42.834 -15.5 -69.501 -15.5c-26 0 -49 5.16699 -69 15.5s-35.167 23.833 -45.5 40.5s-18.166 33 -23.499 49
s-8.33301 31.667 -9 47h12c18.667 -45.333 63.667 -68 135 -68z" />
    <glyph glyph-name="ibreve" unicode="&#x12d;" horiz-adv-x="285" 
d="M41 2c16 59.333 24 117.333 24 174v112c0 36 -3.83301 65.833 -11.5 89.5s-20.5 46.5 -38.5 68.5v4l211 58v-332c0 -68 8 -126 24 -174v-2h-209v2zM147 646c60.667 0 100.337 21.667 119.004 65h13c-1.33301 -15.333 -4.33301 -30.333 -9 -45s-11.834 -30 -21.501 -46
s-23.334 -29 -41.001 -39s-38.167 -15 -61.5 -15s-43.833 5 -61.5 15s-31 22.833 -40 38.5s-15.833 31.167 -20.5 46.5s-7.33398 30.333 -8.00098 45h13c17.333 -43.333 56.666 -65 117.999 -65z" />
    <glyph glyph-name="Iogonek" unicode="&#x12e;" horiz-adv-x="344" 
d="M42 2c15.333 38.667 25.835 71.501 31.502 98.501s8.5 63.833 8.5 110.5v310c0 46.667 -2.83301 83.5 -8.5 110.5s-16.167 59.833 -31.5 98.5v2h260v-2c-15.333 -38 -26 -71 -32 -99s-9 -64.667 -9 -110v-310c0 -45.333 3 -82 9 -110s16.667 -61 32 -99v-2h-67
c-46.667 -40.667 -70 -79 -70 -115c0 -17.333 4.66699 -30.833 14 -40.5s22.333 -14.5 39 -14.5c23.333 0 44.666 11 63.999 33l9 -7c-32.667 -69.333 -78 -104 -136 -104c-28.667 0 -51.834 8 -69.501 24s-26.5 37.333 -26.5 64c0 31.333 12.667 59.666 38 84.999
c24.667 24.667 57.667 49.667 99 75h-154v2z" />
    <glyph glyph-name="iogonek" unicode="&#x12f;" horiz-adv-x="285" 
d="M40 2c16.667 62.667 25.002 120.667 25.002 174v112c0 64.667 -17 117.334 -51 158.001v4l211 58v-332c0 -68 8 -126 24 -174v-2h-50c-46.667 -40.667 -70 -79 -70 -115c0 -17.333 4.66699 -30.833 14 -40.5s22.333 -14.5 39 -14.5c23.333 0 44.666 11 63.999 33l9 -7
c-32.667 -69.333 -78 -104 -136 -104c-28.667 0 -51.834 8 -69.501 24s-26.5 37.333 -26.5 64c0 31.333 12.667 59.666 38 84.999c24.667 24.667 57.667 49.667 99 75h-120v2zM218.002 655c0 -24 -8.66699 -44.5 -26 -61.5s-38 -25.5 -62 -25.5s-44.333 8.5 -61 25.5
s-25 37.5 -25 61.5c0 23.333 8.33301 43.5 25 60.5s37 25.5 61 25.5s44.667 -8.5 62 -25.5s26 -37.167 26 -60.5z" />
    <glyph glyph-name="Idotaccent" unicode="&#x130;" horiz-adv-x="344" 
d="M42 2c15.333 38.667 25.833 71.5 31.5 98.5s8.5 63.833 8.5 110.5v310c0 46.667 -2.83301 83.5 -8.5 110.5s-16.167 59.833 -31.5 98.5v2h260v-2c-15.333 -38 -26 -71 -32 -99s-9 -64.667 -9 -110v-310c0 -45.333 3 -82 9 -110s16.667 -61 32 -99v-2h-260v2zM253 868
c0 -22.667 -8 -42.001 -24 -58.001s-35 -24 -57 -24c-23.333 0 -42.833 8 -58.5 24s-23.5 35.333 -23.5 58s7.83301 42.334 23.5 59.001s35.167 25 58.5 25c22 0 41 -8.5 57 -25.5s24 -36.5 24 -58.5z" />
    <glyph glyph-name="dotlessi" unicode="&#x131;" horiz-adv-x="286" 
d="M41 2c16 59.333 24 117.333 24 174v112c0 36 -3.83301 65.833 -11.5 89.5s-20.5 46.5 -38.5 68.5v4l211 58v-332c0 -68 8 -126 24 -174v-2h-209v2z" />
    <glyph glyph-name="IJ" unicode="&#x132;" horiz-adv-x="823" 
d="M42 2c15.333 38.667 25.833 71.5 31.5 98.5s8.5 63.833 8.5 110.5v310c0 46.667 -2.83301 83.5 -8.5 110.5s-16.167 59.833 -31.5 98.5v2h260v-2c-15.333 -38 -26 -71 -32 -99s-9 -64.667 -9 -110v-310c0 -45.333 3 -82 9 -110s16.667 -61 32 -99v-2h-260v2zM750 208
c0 -69.333 -22 -123.835 -66 -163.502s-102 -59.5 -174 -59.5c-48 0 -91 8.33301 -129 25l-23 198l11 3l18 -32l43.5 -76c9 -15.333 19.5 -32 31.5 -50s22 -30 30 -36s16 -9 24 -9c16.667 0 30.167 12 40.5 36s15.5 56.667 15.5 98v379c0 46 -2.83301 82.667 -8.5 110
s-16.5 60.333 -32.5 99v2h259v-2c-15.333 -37.333 -25.833 -70.166 -31.5 -98.499s-8.5 -65.166 -8.5 -110.499v-313z" />
    <glyph glyph-name="ij" unicode="&#x133;" horiz-adv-x="559" 
d="M218 655c0 -24 -8.66699 -44.5 -26 -61.5s-38 -25.5 -62 -25.5s-44.333 8.5 -61 25.5s-25 37.5 -25 61.5c0 23.333 8.33301 43.5 25 60.5s37 25.5 61 25.5s44.667 -8.5 62 -25.5s26 -37.167 26 -60.5zM40 2c16.667 62.667 25 120.666 25 173.999v112
c0 64.667 -17 117.334 -51 158.001v4l211 58v-332c0 -68 8 -126 24 -174v-2h-209v2zM494 654.999c0 -24 -8.66699 -44.5 -26 -61.5s-38.333 -25.5 -63 -25.5c-24 0 -44.167 8.5 -60.5 25.5s-24.5 37.5 -24.5 61.5s8.16699 44.333 24.5 61s36.5 25 60.5 25
c24.667 0 45.667 -8.5 63 -25.5s26 -37.167 26 -60.5zM256 -208.001c56 27.333 83.999 85 83.999 173v336c0 57.333 -16.667 105.666 -50 144.999v4l211 58l-5 -461c-1.33301 -83.333 -23.166 -146.166 -65.499 -188.499s-99.833 -66.833 -172.5 -73.5z" />
    <glyph glyph-name="Jcircumflex" unicode="&#x134;" horiz-adv-x="485" 
d="M412 208c0 -69.333 -22 -123.835 -66 -163.502s-102 -59.5 -174 -59.5c-48 0 -91 8.33301 -129 25l-23 198l11 3l18 -32l43.5 -76c9 -15.333 19.5 -32 31.5 -50s22 -30 30 -36s16 -9 24 -9c16.667 0 30.167 12 40.5 36s15.5 56.667 15.5 98v379
c0 46 -2.83301 82.667 -8.5 110s-16.5 60.333 -32.5 99v2h259v-2c-15.333 -37.333 -25.833 -70.166 -31.5 -98.499s-8.5 -65.166 -8.5 -110.499v-313zM326 841.998l-155 -60l-8 11l159 163h9l159 -163l-9 -11z" />
    <glyph glyph-name="jcircumflex" unicode="&#x135;" horiz-adv-x="280" 
d="M-23 -238c56 29.333 84 87.334 84 174.001v365c0 57.333 -16.667 105.666 -50 144.999v4l211 58l-5 -473c-1.33301 -83.333 -24 -148.5 -68 -195.5s-100.667 -74.833 -170 -83.5zM143 608.001l-141 -68l-9 11l145 181h9l144 -181l-8 -11z" />
    <glyph glyph-name="uni0136" unicode="&#x136;" horiz-adv-x="732" 
d="M42 2c15.333 37.333 25.833 69.832 31.5 97.499s8.5 64.834 8.5 111.501v310c0 46.667 -2.83301 83.5 -8.5 110.5s-16.167 59.833 -31.5 98.5v2h259v-2c-15.333 -38 -25.833 -70.833 -31.5 -98.5s-8.5 -64.5 -8.5 -110.5v-310c0 -46 2.83301 -82.833 8.5 -110.5
s16.167 -60.5 31.5 -98.5v-2h-259v2zM498 -0.000976562l-234 360.998l177 190c65.333 68 78.333 127.667 39 179v2h239v-2c-86.667 -38 -164.667 -93.667 -234 -167l-81 -87l209 -319c26.667 -41.333 49.5 -73.666 68.5 -96.999s39.5 -42.666 61.5 -57.999v-2h-245z
M304 -239.003c15.333 11.333 27.332 24.165 35.999 38.498s13 27.5 13 39.5c0 14.667 -14.333 36.334 -43 65.001v1l90 57c14 -8 25.5 -18.5 34.5 -31.5s13.5 -26.167 13.5 -39.5c0 -25.333 -14.667 -50.666 -44 -75.999s-61.666 -45 -96.999 -59z" />
    <glyph glyph-name="uni0137" unicode="&#x137;" horiz-adv-x="569" 
d="M370 0l-145.999 255.002v-98c0 -58.667 10.333 -110.334 31 -155.001v-2h-216v2c16 46.667 24 98.334 24 155.001v403c0 64.667 -16.667 117.667 -50 159v2l211 58v-524l120 109c14.667 13.333 24.5 28 29.5 44s6.16699 30.333 3.5 43s-7.33398 24 -14.001 34v2h176v-2
c-16 -6.66699 -32.5 -15.334 -49.5 -26.001s-28.667 -18.5 -35 -23.5s-19.833 -16.667 -40.5 -35s-31.334 -27.833 -32.001 -28.5l-32 -31l138 -234c2.66699 -4 6.33398 -10 11.001 -18s8.16699 -13.833 10.5 -17.5l9.5 -15.5c4 -6.66699 7.5 -11.834 10.5 -15.501l10.5 -13
c4 -5 8.16699 -9.5 12.5 -13.5l13.5 -12v-2h-196zM215.001 -238.998c15.333 11.333 27.332 24.165 35.999 38.498s13 27.5 13 39.5c0 14.667 -14.333 36.334 -43 65.001v1l90 57c14 -8 25.5 -18.5 34.5 -31.5s13.5 -26.167 13.5 -39.5
c0 -25.333 -14.667 -50.666 -44 -75.999s-61.666 -45 -96.999 -59z" />
    <glyph glyph-name="Lacute" unicode="&#x139;" horiz-adv-x="621" 
d="M42 0v2c15.333 37.333 25.833 69.833 31.5 97.5s8.5 64.834 8.5 111.501v310c0 46.667 -2.83301 83.5 -8.5 110.5s-16.167 59.833 -31.5 98.5v2h259v-2c-15.333 -38 -25.833 -70.833 -31.5 -98.5s-8.5 -64.5 -8.5 -110.5v-499l114 7
c31.333 1.33301 68.833 23.666 112.5 66.999s81.167 89 112.5 137l11 -3l-52 -230h-517zM298 959l53 -123l-279 -54l-6 13z" />
    <glyph glyph-name="lacute" unicode="&#x13a;" horiz-adv-x="284" 
d="M39 2c16 46.667 24 98.333 24 155v403c0 64.667 -16.667 117.667 -50 159v2l211 58v-622c0 -54 8 -105.667 24 -155v-2h-209v2zM248 958.999l53 -123l-279 -54l-6 13z" />
    <glyph glyph-name="uni013B" unicode="&#x13b;" horiz-adv-x="621" 
d="M42 0v2c15.333 37.333 25.833 69.833 31.5 97.5s8.5 64.834 8.5 111.501v310c0 46.667 -2.83301 83.5 -8.5 110.5s-16.167 59.833 -31.5 98.5v2h259v-2c-15.333 -38 -25.833 -70.833 -31.5 -98.5s-8.5 -64.5 -8.5 -110.5v-499l114 7
c31.333 1.33301 68.833 23.666 112.5 66.999s81.167 89 112.5 137l11 -3l-52 -230h-517zM255 -239c15.333 11.333 27.332 24.165 35.999 38.498s13 27.5 13 39.5c0 14.667 -14.333 36.334 -43 65.001v1l90 57c14 -8 25.5 -18.5 34.5 -31.5s13.5 -26.167 13.5 -39.5
c0 -25.333 -14.667 -50.666 -44 -75.999s-61.666 -45 -96.999 -59z" />
    <glyph glyph-name="uni013C" unicode="&#x13c;" horiz-adv-x="284" 
d="M39 2c16 46.667 24 98.333 24 155v403c0 64.667 -16.667 117.667 -50 159v2l211 58v-622c0 -54 8 -105.667 24 -155v-2h-209v2zM69 -239.001c15.333 11.333 27.332 24.165 35.999 38.498s13 27.5 13 39.5c0 14.667 -14.333 36.334 -43 65.001v1l90 57
c14 -8 25.5 -18.5 34.5 -31.5s13.5 -26.167 13.5 -39.5c0 -25.333 -14.667 -50.666 -44 -75.999s-61.666 -45 -96.999 -59z" />
    <glyph glyph-name="Lcaron" unicode="&#x13d;" horiz-adv-x="621" 
d="M42 0v2c15.333 37.333 25.833 69.833 31.5 97.5s8.5 64.834 8.5 111.501v310c0 46.667 -2.83301 83.5 -8.5 110.5s-16.167 59.833 -31.5 98.5v2h259v-2c-15.333 -38 -25.833 -70.833 -31.5 -98.5s-8.5 -64.5 -8.5 -110.5v-499l114 7
c31.333 1.33301 68.833 23.666 112.5 66.999s81.167 89 112.5 137l11 -3l-52 -230h-517zM352 732h111l-109 -203l-14 2z" />
    <glyph glyph-name="lcaron" unicode="&#x13e;" horiz-adv-x="284" 
d="M39 2c16 46.667 24 98.333 24 155v403c0 64.667 -16.667 117.667 -50 159v2l211 58v-622c0 -54 8 -105.667 24 -155v-2h-209v2zM280 774.999h111l-109 -203l-14 2z" />
    <glyph glyph-name="Ldot" unicode="&#x13f;" horiz-adv-x="621" 
d="M42 0v2c15.333 37.333 25.833 69.833 31.5 97.5s8.5 64.834 8.5 111.501v310c0 46.667 -2.83301 83.5 -8.5 110.5s-16.167 59.833 -31.5 98.5v2h259v-2c-15.333 -38 -25.833 -70.833 -31.5 -98.5s-8.5 -64.5 -8.5 -110.5v-499l114 7
c31.333 1.33301 68.833 23.666 112.5 66.999s81.167 89 112.5 137l11 -3l-52 -230h-517zM495 306c-23.333 0 -43.166 8.16699 -59.499 24.5s-24.5 36.166 -24.5 59.499s8.16699 43.166 24.5 59.499s36.166 24.5 59.499 24.5s43.166 -8.16699 59.499 -24.5
s24.5 -36.166 24.5 -59.499s-8.16699 -43.166 -24.5 -59.499s-36.166 -24.5 -59.499 -24.5z" />
    <glyph glyph-name="ldot" unicode="&#x140;" horiz-adv-x="417" 
d="M39 2c16 46.667 24 98.333 24 155v403c0 64.667 -16.667 117.667 -50 159v2l211 58v-622c0 -54 8 -105.667 24 -155v-2h-209v2zM350 305.999c-23.333 0 -43.166 8.16699 -59.499 24.5s-24.5 36.166 -24.5 59.499s8.16699 43.166 24.5 59.499s36.166 24.5 59.499 24.5
s43.166 -8.16699 59.499 -24.5s24.5 -36.166 24.5 -59.499s-8.16699 -43.166 -24.5 -59.499s-36.166 -24.5 -59.499 -24.5z" />
    <glyph glyph-name="Lslash" unicode="&#x141;" horiz-adv-x="629" 
d="M50 0v2c15.333 37.333 25.833 69.833 31.5 97.5s8.5 64.834 8.5 111.501v41l-77 -34v28l77 34v241c0 46.667 -2.83301 83.5 -8.5 110.5s-16.167 59.833 -31.5 98.5v2h259v-2c-15.333 -38 -25.833 -70.833 -31.5 -98.5s-8.5 -64.5 -8.5 -110.5v-160l214 97v-28l-214 -97
v-311l114 7c31.333 1.33301 68.833 23.666 112.5 66.999s81.167 89 112.5 137l11 -3l-52 -230h-517z" />
    <glyph glyph-name="lslash" unicode="&#x142;" horiz-adv-x="304" 
d="M49 2c16 46.667 24 98.333 24 155v138l-69 -51v30l69 51v235c0 64.667 -16.667 117.667 -50 159v2l211 58v-336l63 47v-29l-63 -47v-257c0 -54 8 -105.667 24 -155v-2h-209v2z" />
    <glyph glyph-name="Nacute" unicode="&#x143;" horiz-adv-x="722" 
d="M108 605l4.00195 -388c0 -46 5.5 -83.333 16.5 -112s30.833 -63 59.5 -103v-2h-180v2c28.667 40.667 48.167 74.834 58.5 102.501s15.5 65.167 15.5 112.5v355c-2.66699 33.333 -9.33398 61 -20.001 83s-28.334 47 -53.001 75v2h223l370 -465l-2 246
c0 47.333 -5.33301 85.5 -16 114.5s-30 63.167 -58 102.5v2h176v-2c-28 -41.333 -47.167 -75.833 -57.5 -103.5s-15.5 -64.834 -15.5 -111.501v-514l-34 -4zM495.002 959l53 -123l-279 -54l-6 13z" />
    <glyph glyph-name="nacute" unicode="&#x144;" horiz-adv-x="606" 
d="M250 0h-209.002v2c16.667 50 25 108 25 174l-1 113c0 37.333 -3.83301 67.666 -11.5 90.999s-20.5 46 -38.5 68v2l207 58v-100l4 -1c40 64 96 96 168 96c44.667 0 80.834 -12.667 108.501 -38s41.5 -59 41.5 -101v-187c0 -67.333 8 -125.666 24 -174.999v-2h-209v2
c16 48 24 105.667 24 173v179c0 22.667 -5.66699 40.667 -17 54s-28.666 20 -51.999 20c-36 0 -65.333 -16.333 -88 -49v-203c0 -66.667 8 -124.667 24 -174v-2zM361.998 749l89 -96l-223 -119l-9 9z" />
    <glyph glyph-name="uni0145" unicode="&#x145;" horiz-adv-x="722" 
d="M108 605l4.00195 -388c0 -46 5.5 -83.333 16.5 -112s30.833 -63 59.5 -103v-2h-180v2c28.667 40.667 48.167 74.834 58.5 102.501s15.5 65.167 15.5 112.5v355c-2.66699 33.333 -9.33398 61 -20.001 83s-28.334 47 -53.001 75v2h223l370 -465l-2 246
c0 47.333 -5.33301 85.5 -16 114.5s-30 63.167 -58 102.5v2h176v-2c-28 -41.333 -47.167 -75.833 -57.5 -103.5s-15.5 -64.834 -15.5 -111.501v-514l-34 -4zM278.002 -239c15.333 11.333 27.332 24.165 35.999 38.498s13 27.5 13 39.5c0 14.667 -14.333 36.334 -43 65.001v1
l90 57c14 -8 25.5 -18.5 34.5 -31.5s13.5 -26.167 13.5 -39.5c0 -25.333 -14.667 -50.666 -44 -75.999s-61.666 -45 -96.999 -59z" />
    <glyph glyph-name="uni0146" unicode="&#x146;" horiz-adv-x="606" 
d="M250 0h-209.002v2c16.667 50 25 108 25 174l-1 113c0 37.333 -3.83301 67.666 -11.5 90.999s-20.5 46 -38.5 68v2l207 58v-100l4 -1c40 64 96 96 168 96c44.667 0 80.834 -12.667 108.501 -38s41.5 -59 41.5 -101v-187c0 -67.333 8 -125.666 24 -174.999v-2h-209v2
c16 48 24 105.667 24 173v179c0 22.667 -5.66699 40.667 -17 54s-28.666 20 -51.999 20c-36 0 -65.333 -16.333 -88 -49v-203c0 -66.667 8 -124.667 24 -174v-2zM230.998 -239c15.333 11.333 27.332 24.165 35.999 38.498s13 27.5 13 39.5
c0 14.667 -14.333 36.334 -43 65.001v1l90 57c14 -8 25.5 -18.5 34.5 -31.5s13.5 -26.167 13.5 -39.5c0 -25.333 -14.667 -50.666 -44 -75.999s-61.666 -45 -96.999 -59z" />
    <glyph glyph-name="Ncaron" unicode="&#x147;" horiz-adv-x="722" 
d="M108 605l4.00195 -388c0 -46 5.5 -83.333 16.5 -112s30.833 -63 59.5 -103v-2h-180v2c28.667 40.667 48.167 74.834 58.5 102.501s15.5 65.167 15.5 112.5v355c-2.66699 33.333 -9.33398 61 -20.001 83s-28.334 47 -53.001 75v2h223l370 -465l-2 246
c0 47.333 -5.33301 85.5 -16 114.5s-30 63.167 -58 102.5v2h176v-2c-28 -41.333 -47.167 -75.833 -57.5 -103.5s-15.5 -64.834 -15.5 -111.501v-514l-34 -4zM380.002 782l-159 163l8 11l156 -60l155 60l8 -11l-159 -163h-9z" />
    <glyph glyph-name="ncaron" unicode="&#x148;" horiz-adv-x="606" 
d="M250 0h-209.002v2c16.667 50 25 108 25 174l-1 113c0 37.333 -3.83301 67.666 -11.5 90.999s-20.5 46 -38.5 68v2l207 58v-100l4 -1c40 64 96 96 168 96c44.667 0 80.834 -12.667 108.501 -38s41.5 -59 41.5 -101v-187c0 -67.333 8 -125.666 24 -174.999v-2h-209v2
c16 48 24 105.667 24 173v179c0 22.667 -5.66699 40.667 -17 54s-28.666 20 -51.999 20c-36 0 -65.333 -16.333 -88 -49v-203c0 -66.667 8 -124.667 24 -174v-2zM153.998 722l8 10l141 -68l140 68l9 -10l-145 -182h-9z" />
    <glyph glyph-name="napostrophe" unicode="&#x149;" horiz-adv-x="606" 
d="M250 0h-209.002v2c16.667 50 25 108 25 174l-1 113c0 37.333 -3.83301 67.666 -11.5 90.999s-20.5 46 -38.5 68v2l207 58v-100l4 -1c40 64 96 96 168 96c44.667 0 80.834 -12.667 108.501 -38s41.5 -59 41.5 -101v-187c0 -67.333 8 -125.666 24 -174.999v-2h-209v2
c16 48 24 105.667 24 173v179c0 22.667 -5.66699 40.667 -17 54s-28.666 20 -51.999 20c-36 0 -65.333 -16.333 -88 -49v-203c0 -66.667 8 -124.667 24 -174v-2zM-72.002 503c18.667 12 34.166 26.499 46.499 43.499s18.5 33.167 18.5 48.5c0 22 -17 48.667 -51 80v3l99 77
c16 -10 29.167 -23.167 39.5 -39.5s15.5 -33.166 15.5 -50.499c0 -34 -16.167 -67 -48.5 -99s-70.166 -56.667 -113.499 -74z" />
    <glyph glyph-name="Eng" unicode="&#x14a;" horiz-adv-x="734" 
d="M483 -225c-51.333 0 -96 11.001 -134 33.001l-22 164l10 3c39.333 -66.667 70 -112.834 92 -138.501s47 -38.5 75 -38.5c30 0 56 14 78 42s33 69.333 33 124v33h-14l-480 608l3 -388c0 -46 6 -83.333 18 -112s33.667 -63 65 -103v-2h-193v2
c31.333 40 52.666 74 63.999 102s17 65.667 17 113v328c0 42.667 -6 76.167 -18 100.5s-35 52.5 -69 84.5v2h236l370 -472l-1 253c0 47.333 -5.66699 85 -17 113s-32.666 62.667 -63.999 104v2h189v-2c-30 -40.667 -50.833 -75.167 -62.5 -103.5s-17.5 -65.5 -17.5 -111.5
v-539c0 -134 -52.667 -201 -158 -201z" />
    <glyph glyph-name="eng" unicode="&#x14b;" horiz-adv-x="602" 
d="M300 -208c56.667 28 84.998 85.667 84.998 173l-2 389c0 22.667 -5.66699 40.667 -17 54s-28.666 20 -51.999 20c-36 0 -65.333 -16.333 -88 -49v-203c0 -66.667 8 -124.667 24 -174v-2h-209v2c16 48 24 106 24 174v113c0 37.333 -3.83301 67.666 -11.5 90.999
s-20.5 46 -38.5 68v2l207 58v-100l4 -1c40 64 96 96 168 96c44 0 80 -12.667 108 -38s42 -59 42 -101l-4 -317c-1.33301 -83.333 -23.166 -146.166 -65.499 -188.499s-99.833 -66.833 -172.5 -73.5z" />
    <glyph glyph-name="Omacron" unicode="&#x14c;" horiz-adv-x="834" 
d="M417 -15c-110 0 -202.167 36.333 -276.5 109s-111.5 163 -111.5 271c0 107.333 37.333 197.833 112 271.5s166.667 110.5 276 110.5s201.333 -36.833 276 -110.5s112 -164.167 112 -271.5c0 -108 -37.333 -198.333 -112 -271s-166.667 -109 -276 -109zM417 8
c66 0 114.833 32 146.5 96s47.5 151 47.5 261s-15.667 197.333 -47 262s-80.333 97 -147 97s-115.834 -32.333 -147.501 -97s-47.5 -152 -47.5 -262s15.833 -197 47.5 -261s80.834 -96 147.501 -96zM243 895h348v-67h-348v67z" />
    <glyph glyph-name="omacron" unicode="&#x14d;" horiz-adv-x="588" 
d="M294 -15c-73.333 0 -136.5 25.5 -189.5 76.5s-79.5 111.5 -79.5 181.5s26.5 130.833 79.5 182.5s116.167 77.5 189.5 77.5s136.5 -25.833 189.5 -77.5s79.5 -112.5 79.5 -182.5s-26.5 -130.5 -79.5 -181.5s-116.167 -76.5 -189.5 -76.5zM294 4c34 0 59.667 21.5 77 64.5
s26 101.167 26 174.5c0 74 -8.66699 132.667 -26 176s-43 65 -77 65c-34.667 0 -60.5 -21.5 -77.5 -64.5s-25.5 -101.833 -25.5 -176.5c0 -73.333 8.66699 -131.5 26 -174.5s43 -64.5 77 -64.5zM145 648h298v-67h-298v67z" />
    <glyph glyph-name="Obreve" unicode="&#x14e;" horiz-adv-x="834" 
d="M417 -15c-110 0 -202.167 36.333 -276.5 109s-111.5 163 -111.5 271c0 107.333 37.333 197.833 112 271.5s166.667 110.5 276 110.5s201.333 -36.833 276 -110.5s112 -164.167 112 -271.5c0 -108 -37.333 -198.333 -112 -271s-166.667 -109 -276 -109zM417 8
c66 0 114.833 32 146.5 96s47.5 151 47.5 261s-15.667 197.333 -47 262s-80.333 97 -147 97s-115.834 -32.333 -147.501 -97s-47.5 -152 -47.5 -262s15.833 -197 47.5 -261s80.834 -96 147.501 -96zM417 883c68.667 0 113.665 22.668 134.998 68.001h13
c-1.33301 -16 -4.66602 -31.833 -9.99902 -47.5s-13.166 -31.834 -23.499 -48.501s-25.333 -30.167 -45 -40.5s-42.834 -15.5 -69.501 -15.5c-26 0 -49 5.16699 -69 15.5s-35.167 23.833 -45.5 40.5s-18.166 33 -23.499 49s-8.33301 31.667 -9 47h12
c18.667 -45.333 63.667 -68 135 -68z" />
    <glyph glyph-name="obreve" unicode="&#x14f;" horiz-adv-x="588" 
d="M294 -15c-73.333 0 -136.5 25.5 -189.5 76.5s-79.5 111.5 -79.5 181.5s26.5 130.833 79.5 182.5s116.167 77.5 189.5 77.5s136.5 -25.833 189.5 -77.5s79.5 -112.5 79.5 -182.5s-26.5 -130.5 -79.5 -181.5s-116.167 -76.5 -189.5 -76.5zM294 4c34 0 59.667 21.5 77 64.5
s26 101.167 26 174.5c0 74 -8.66699 132.667 -26 176s-43 65 -77 65c-34.667 0 -60.5 -21.5 -77.5 -64.5s-25.5 -101.833 -25.5 -176.5c0 -73.333 8.66699 -131.5 26 -174.5s43 -64.5 77 -64.5zM293 646c60.667 0 100.337 21.667 119.004 65h13
c-1.33301 -15.333 -4.33301 -30.333 -9 -45s-11.834 -30 -21.501 -46s-23.334 -29 -41.001 -39s-38.167 -15 -61.5 -15s-43.833 5 -61.5 15s-31 22.833 -40 38.5s-15.833 31.167 -20.5 46.5s-7.33398 30.333 -8.00098 45h13c17.333 -43.333 56.666 -65 117.999 -65z" />
    <glyph glyph-name="Ohungarumlaut" unicode="&#x150;" horiz-adv-x="834" 
d="M417 -15c-110 0 -202.167 36.333 -276.5 109s-111.5 163 -111.5 271c0 107.333 37.333 197.833 112 271.5s166.667 110.5 276 110.5s201.333 -36.833 276 -110.5s112 -164.167 112 -271.5c0 -108 -37.333 -198.333 -112 -271s-166.667 -109 -276 -109zM417 8
c66 0 114.833 32 146.5 96s47.5 151 47.5 261s-15.667 197.333 -47 262s-80.333 97 -147 97s-115.834 -32.333 -147.501 -97s-47.5 -152 -47.5 -262s15.833 -197 47.5 -261s80.834 -96 147.501 -96zM595 956l65 -110l-206 -64l-7 9zM391 956l65 -110l-205 -64l-7 9z" />
    <glyph glyph-name="ohungarumlaut" unicode="&#x151;" horiz-adv-x="588" 
d="M294 -15c-73.333 0 -136.5 25.5 -189.5 76.5s-79.5 111.5 -79.5 181.5s26.5 130.833 79.5 182.5s116.167 77.5 189.5 77.5s136.5 -25.833 189.5 -77.5s79.5 -112.5 79.5 -182.5s-26.5 -130.5 -79.5 -181.5s-116.167 -76.5 -189.5 -76.5zM294 4c34 0 59.667 21.5 77 64.5
s26 101.167 26 174.5c0 74 -8.66699 132.667 -26 176s-43 65 -77 65c-34.667 0 -60.5 -21.5 -77.5 -64.5s-25.5 -101.833 -25.5 -176.5c0 -73.333 8.66699 -131.5 26 -174.5s43 -64.5 77 -64.5zM421 729l94 -93l-173 -99l-10 10zM256 729l94 -93l-173 -99l-9 10z" />
    <glyph glyph-name="OE" unicode="&#x152;" horiz-adv-x="1113" 
d="M1050 0l-591.002 -0.00195312c-135.333 0 -240.833 32.167 -316.5 96.5s-113.5 155.166 -113.5 272.499c0 115.333 38.5 204.666 115.5 267.999s181.833 95 314.5 95h554l37 -193l-10 -3c-7.33301 6.66699 -26.833 27 -58.5 61s-58.667 60 -81 78
s-41.833 27.667 -58.5 29l-128 9v-326h59c10 0 20.167 2 30.5 6s21 10.333 32 19s20.167 16.334 27.5 23.001s16.833 16 28.5 28s19.834 20 24.501 24h11v-227h-11c-6 4.66699 -19.167 17.834 -39.5 39.501s-38.666 37.834 -54.999 48.501s-32.833 16 -49.5 16h-58v-345
l144 8c30.667 1.33301 68.5 23.833 113.5 67.5s84.833 89.834 119.5 138.501l10 -3zM455.998 24.998l20.998 -0.000976562c11.333 0 20.333 0.666992 27 2c20 60 30 120 30 180v318c0 62.667 -10.667 124 -32 184c-0.666992 0 -5.5 0.333008 -14.5 1s-15.5 1 -19.5 1h-6
c-85.333 1.33301 -146.666 -27 -183.999 -85s-56 -148.333 -56 -271c0 -111.333 17.333 -194.166 52 -248.499s95.334 -81.5 182.001 -81.5z" />
    <glyph glyph-name="oe" unicode="&#x153;" horiz-adv-x="882" 
d="M648 485c-21.333 0 -39 -16.332 -53 -48.999s-21.667 -74.334 -23 -125.001l130 2v38c0 89.333 -18 134 -54 134zM301 3.00098c74 0 111 79.667 111 239c0 74 -9.16699 132.333 -27.5 175s-46.5 64 -84.5 64c-74 0 -111 -79.667 -111 -239s37.333 -239 112 -239z
M858 136.001c-14 -47.333 -39.001 -84.334 -75.001 -111.001s-81.333 -40 -136 -40c-70 0 -126 23 -168 69c-50 -46 -109.667 -69 -179 -69c-74.667 0 -139.167 25.5 -193.5 76.5s-81.5 111.167 -81.5 180.5s27.167 129.5 81.5 180.5s118.833 76.5 193.5 76.5
c70.667 0 132.334 -24.667 185.001 -74c45.333 52 101.666 78 168.999 78c64.667 0 115.167 -21.667 151.5 -65s53.833 -92.666 52.5 -147.999l-286 1c1.33301 -65.333 17.333 -113.833 48 -145.5s69.334 -47.5 116.001 -47.5c47.333 0 86.333 13.667 117 41z" />
    <glyph glyph-name="Racute" unicode="&#x154;" horiz-adv-x="723" 
d="M42 2c15.333 37.333 25.835 69.8311 31.502 97.498s8.5 64.834 8.5 111.501v310c0 46.667 -2.83301 83.5 -8.5 110.5s-16.167 59.833 -31.5 98.5v2h313c101.333 0 174.166 -15.667 218.499 -47s66.5 -75.666 66.5 -132.999c0 -89.333 -44.667 -151.333 -134 -186
l113 -230c18.667 -38 35.167 -66 49.5 -84s34.166 -34 59.499 -48v-4h-239l-162 339h-66v-128c0 -46 2.83301 -82.833 8.5 -110.5s16.167 -60.5 31.5 -98.5v-2h-259v2zM312.002 709.998h-23.001c-12 0 -21.333 -0.333008 -28 -1v-347h55
c50.667 0 86.834 17.833 108.501 53.5s32.5 80.167 32.5 133.5c0 107.333 -48.333 161 -145 161zM450.001 958.998l53 -123l-279 -54l-6 13z" />
    <glyph glyph-name="racute" unicode="&#x155;" horiz-adv-x="417" 
d="M41 0v2.00098c16 48 24 106 24 174v113c0 37.333 -3.83301 67.666 -11.5 90.999s-20.5 46 -38.5 68v2l207 58v-121c4 4 14.667 15.667 32 35s31 33.5 41 42.5s24.833 18 44.5 27s39.5 12.833 59.5 11.5l-18 -168h-5c-10.667 16 -27.334 29.833 -50.001 41.5
s-40.667 17.5 -54 17.5s-28.666 -9.66699 -45.999 -29v-189c0 -66.667 8 -124.667 24 -174v-2h-209zM278 749.001l89 -96l-223 -119l-9 9z" />
    <glyph glyph-name="uni0156" unicode="&#x156;" horiz-adv-x="723" 
d="M42 2c15.333 37.333 25.835 69.8311 31.502 97.498s8.5 64.834 8.5 111.501v310c0 46.667 -2.83301 83.5 -8.5 110.5s-16.167 59.833 -31.5 98.5v2h313c101.333 0 174.166 -15.667 218.499 -47s66.5 -75.666 66.5 -132.999c0 -89.333 -44.667 -151.333 -134 -186
l113 -230c18.667 -38 35.167 -66 49.5 -84s34.166 -34 59.499 -48v-4h-239l-162 339h-66v-128c0 -46 2.83301 -82.833 8.5 -110.5s16.167 -60.5 31.5 -98.5v-2h-259v2zM312.002 709.998h-23.001c-12 0 -21.333 -0.333008 -28 -1v-347h55
c50.667 0 86.834 17.833 108.501 53.5s32.5 80.167 32.5 133.5c0 107.333 -48.333 161 -145 161zM302.001 -239.002c15.333 11.333 27.332 24.165 35.999 38.498s13 27.5 13 39.5c0 14.667 -14.333 36.334 -43 65.001v1l90 57c14 -8 25.5 -18.5 34.5 -31.5
s13.5 -26.167 13.5 -39.5c0 -25.333 -14.667 -50.666 -44 -75.999s-61.666 -45 -96.999 -59z" />
    <glyph glyph-name="uni0157" unicode="&#x157;" horiz-adv-x="417" 
d="M41 0v2.00098c16 48 24 106 24 174v113c0 37.333 -3.83301 67.666 -11.5 90.999s-20.5 46 -38.5 68v2l207 58v-121c4 4 14.667 15.667 32 35s31 33.5 41 42.5s24.833 18 44.5 27s39.5 12.833 59.5 11.5l-18 -168h-5c-10.667 16 -27.334 29.833 -50.001 41.5
s-40.667 17.5 -54 17.5s-28.666 -9.66699 -45.999 -29v-189c0 -66.667 8 -124.667 24 -174v-2h-209zM69 -238.999c15.333 11.333 27.332 24.165 35.999 38.498s13 27.5 13 39.5c0 14.667 -14.333 36.334 -43 65.001v1l90 57c14 -8 25.5 -18.5 34.5 -31.5
s13.5 -26.167 13.5 -39.5c0 -25.333 -14.667 -50.666 -44 -75.999s-61.666 -45 -96.999 -59z" />
    <glyph glyph-name="Rcaron" unicode="&#x158;" horiz-adv-x="723" 
d="M42 2c15.333 37.333 25.835 69.8311 31.502 97.498s8.5 64.834 8.5 111.501v310c0 46.667 -2.83301 83.5 -8.5 110.5s-16.167 59.833 -31.5 98.5v2h313c101.333 0 174.166 -15.667 218.499 -47s66.5 -75.666 66.5 -132.999c0 -89.333 -44.667 -151.333 -134 -186
l113 -230c18.667 -38 35.167 -66 49.5 -84s34.166 -34 59.499 -48v-4h-239l-162 339h-66v-128c0 -46 2.83301 -82.833 8.5 -110.5s16.167 -60.5 31.5 -98.5v-2h-259v2zM312.002 709.998h-23.001c-12 0 -21.333 -0.333008 -28 -1v-347h55
c50.667 0 86.834 17.833 108.501 53.5s32.5 80.167 32.5 133.5c0 107.333 -48.333 161 -145 161zM329.001 781.998l-159 163l8 11l156 -60l155 60l8 -11l-159 -163h-9z" />
    <glyph glyph-name="rcaron" unicode="&#x159;" horiz-adv-x="417" 
d="M41 0v2.00098c16 48 24 106 24 174v113c0 37.333 -3.83301 67.666 -11.5 90.999s-20.5 46 -38.5 68v2l207 58v-121c4 4 14.667 15.667 32 35s31 33.5 41 42.5s24.833 18 44.5 27s39.5 12.833 59.5 11.5l-18 -168h-5c-10.667 16 -27.334 29.833 -50.001 41.5
s-40.667 17.5 -54 17.5s-28.666 -9.66699 -45.999 -29v-189c0 -66.667 8 -124.667 24 -174v-2h-209zM89 722.001l8 10l141 -68l140 68l9 -10l-145 -182h-9z" />
    <glyph glyph-name="Sacute" unicode="&#x15a;" horiz-adv-x="585" 
d="M509 533l-11.0078 -3.00195c-40 66 -77.833 114.833 -113.5 146.5s-72.167 47.5 -109.5 47.5c-30.667 0 -55.667 -8.83301 -75 -26.5s-29 -41.167 -29 -70.5c0 -18 3.5 -34 10.5 -48s20.833 -28.167 41.5 -42.5s35.834 -24.166 45.501 -29.499
s30.834 -15.666 63.501 -30.999c10 -4.66699 17.333 -8.33398 22 -11.001c30.667 -15.333 55.667 -29.333 75 -42s39.833 -29.334 61.5 -50.001s37.834 -44.667 48.501 -72s16 -58 16 -92c0 -76.667 -26 -133.167 -78 -169.5s-118.333 -54.5 -199 -54.5
c-79.333 0 -152 15 -218 45l-26 204l10 3c48.667 -80.667 93.334 -139 134.001 -175s83.334 -54 128.001 -54c38.667 0 68.834 11 90.501 33s32.5 49.667 32.5 83c0 17.333 -3.66699 33.5 -11 48.5s-15 27.333 -23 37s-22.167 20.834 -42.5 33.501s-35 21.5 -44 26.5
s-27.167 14.167 -54.5 27.5c-25.333 12.667 -45.833 23.334 -61.5 32.001s-33.667 20.667 -54 36s-36.166 30.5 -47.499 45.5s-21.166 33.5 -29.499 55.5s-12.5 46 -12.5 72c0 71.333 26.167 124 78.5 158s117.833 51 196.5 51c55.333 0 108 -8 158 -24zM404.992 958.998
l53 -123l-279 -54l-6 13z" />
    <glyph glyph-name="sacute" unicode="&#x15b;" horiz-adv-x="429" 
d="M373 360l-9.00293 -1.99805c-32.667 45.333 -60.667 77.666 -84 96.999s-47.333 29 -72 29c-20.667 0 -38 -5.83301 -52 -17.5s-21 -27.167 -21 -46.5c0 -16 6.5 -30.667 19.5 -44s25.667 -23 38 -29s32.833 -14.667 61.5 -26c5.33301 -2 9.33301 -3.66699 12 -5
c21.333 -9.33301 38.833 -18.333 52.5 -27s28 -19.667 43 -33s26.333 -29.666 34 -48.999s11.5 -41 11.5 -65c0 -53.333 -19.167 -92.833 -57.5 -118.5s-88.166 -38.5 -149.499 -38.5c-60.667 0 -115 10.333 -163 31l-14 140l9 2c34 -52 66.333 -90.833 97 -116.5
s62.334 -38.5 95.001 -38.5c24 0 41.833 6.16699 53.5 18.5s17.5 27.833 17.5 46.5c0 12.667 -2.66699 24 -8 34s-14.666 19.5 -27.999 28.5s-25 16.167 -35 21.5s-25.667 12.666 -47 21.999c-22.667 10.667 -40.5 19.667 -53.5 27s-27.667 18 -44 32s-28.5 30.667 -36.5 50
s-12 41.333 -12 66c0 51.333 19.167 89.666 57.5 114.999s87.5 38 147.5 38c48.667 0 90 -5.66699 124 -17zM265.997 749.002l89 -96l-223 -119l-9 9z" />
    <glyph glyph-name="Scircumflex" unicode="&#x15c;" horiz-adv-x="585" 
d="M509 533l-11.0078 -3.00195c-40 66 -77.833 114.833 -113.5 146.5s-72.167 47.5 -109.5 47.5c-30.667 0 -55.667 -8.83301 -75 -26.5s-29 -41.167 -29 -70.5c0 -18 3.5 -34 10.5 -48s20.833 -28.167 41.5 -42.5s35.834 -24.166 45.501 -29.499
s30.834 -15.666 63.501 -30.999c10 -4.66699 17.333 -8.33398 22 -11.001c30.667 -15.333 55.667 -29.333 75 -42s39.833 -29.334 61.5 -50.001s37.834 -44.667 48.501 -72s16 -58 16 -92c0 -76.667 -26 -133.167 -78 -169.5s-118.333 -54.5 -199 -54.5
c-79.333 0 -152 15 -218 45l-26 204l10 3c48.667 -80.667 93.334 -139 134.001 -175s83.334 -54 128.001 -54c38.667 0 68.834 11 90.501 33s32.5 49.667 32.5 83c0 17.333 -3.66699 33.5 -11 48.5s-15 27.333 -23 37s-22.167 20.834 -42.5 33.501s-35 21.5 -44 26.5
s-27.167 14.167 -54.5 27.5c-25.333 12.667 -45.833 23.334 -61.5 32.001s-33.667 20.667 -54 36s-36.166 30.5 -47.499 45.5s-21.166 33.5 -29.499 55.5s-12.5 46 -12.5 72c0 71.333 26.167 124 78.5 158s117.833 51 196.5 51c55.333 0 108 -8 158 -24zM287.992 841.998
l-155 -60l-8 11l159 163h9l159 -163l-9 -11z" />
    <glyph glyph-name="scircumflex" unicode="&#x15d;" horiz-adv-x="429" 
d="M373 360l-9.00293 -1.99805c-32.667 45.333 -60.667 77.666 -84 96.999s-47.333 29 -72 29c-20.667 0 -38 -5.83301 -52 -17.5s-21 -27.167 -21 -46.5c0 -16 6.5 -30.667 19.5 -44s25.667 -23 38 -29s32.833 -14.667 61.5 -26c5.33301 -2 9.33301 -3.66699 12 -5
c21.333 -9.33301 38.833 -18.333 52.5 -27s28 -19.667 43 -33s26.333 -29.666 34 -48.999s11.5 -41 11.5 -65c0 -53.333 -19.167 -92.833 -57.5 -118.5s-88.166 -38.5 -149.499 -38.5c-60.667 0 -115 10.333 -163 31l-14 140l9 2c34 -52 66.333 -90.833 97 -116.5
s62.334 -38.5 95.001 -38.5c24 0 41.833 6.16699 53.5 18.5s17.5 27.833 17.5 46.5c0 12.667 -2.66699 24 -8 34s-14.666 19.5 -27.999 28.5s-25 16.167 -35 21.5s-25.667 12.666 -47 21.999c-22.667 10.667 -40.5 19.667 -53.5 27s-27.667 18 -44 32s-28.5 30.667 -36.5 50
s-12 41.333 -12 66c0 51.333 19.167 89.666 57.5 114.999s87.5 38 147.5 38c48.667 0 90 -5.66699 124 -17zM214.997 608.002l-141 -68l-9 11l145 181h9l144 -181l-8 -11z" />
    <glyph glyph-name="uni015E" unicode="&#x15e;" horiz-adv-x="585" 
d="M197 -247c48 21.333 71.9922 47.665 71.9922 78.998c0 17.333 -7 29 -21 35s-28.333 8 -43 6l-2 2l68 110c-41.333 1.33301 -79 5.66602 -113 12.999c-41.333 10 -74 20.667 -98 32l-26 204l10 3c48.667 -80.667 93.334 -139 134.001 -175s83.334 -54 128.001 -54
c38.667 0 68.834 11 90.501 33s32.5 49.667 32.5 83c0 17.333 -3.66699 33.5 -11 48.5s-15 27.333 -23 37s-22.167 20.834 -42.5 33.501s-35 21.5 -44 26.5s-27.167 14.167 -54.5 27.5c-25.333 12.667 -45.833 23.334 -61.5 32.001s-33.667 20.667 -54 36
s-36.166 30.5 -47.499 45.5s-21.166 33.5 -29.499 55.5s-12.5 46 -12.5 72c0 71.333 26.167 124 78.5 158s117.833 51 196.5 51c55.333 0 108 -8 158 -24l27 -190l-11 -3c-40 66 -77.833 114.833 -113.5 146.5s-72.167 47.5 -109.5 47.5
c-30.667 0 -55.667 -8.83301 -75 -26.5s-29 -41.167 -29 -70.5c0 -18 3.5 -34 10.5 -48s20.833 -28.167 41.5 -42.5s35.834 -24.166 45.501 -29.499s30.834 -15.666 63.501 -30.999c10 -4.66699 17.333 -8.33398 22 -11.001c30.667 -15.333 55.667 -29.333 75 -42
s39.833 -29.334 61.5 -50.001s37.834 -44.667 48.501 -72s16 -58 16 -92c0 -58.667 -15.667 -105.667 -47 -141s-73 -59 -125 -71c-28.667 -6.66699 -56.667 -10.334 -84 -11.001l-21 -34c27.333 -3.33301 49 -12.166 65 -26.499s24 -32.833 24 -55.5
c0 -30.667 -14.333 -57.167 -43 -79.5s-69.667 -38.166 -123 -47.499z" />
    <glyph glyph-name="uni015F" unicode="&#x15f;" horiz-adv-x="429" 
d="M116 -247c48 21.333 71.999 47.667 71.999 79c0 17.333 -7 29 -21 35s-28.333 8 -43 6l-2 2l68 110c-26.667 0.666992 -52.667 3.66699 -78 9c-25.333 4.66699 -50.333 12 -75 22l-14 140l9 2c34 -52 66.333 -90.833 97 -116.5s62.334 -38.5 95.001 -38.5
c24 0 41.833 6.16699 53.5 18.5s17.5 27.833 17.5 46.5c0 12.667 -2.66699 24 -8 34s-14.666 19.5 -27.999 28.5s-25 16.167 -35 21.5s-25.667 12.666 -47 21.999c-22.667 10.667 -40.5 19.667 -53.5 27s-27.667 18 -44 32s-28.5 30.667 -36.5 50s-12 41.333 -12 66
c0 51.333 19.167 89.666 57.5 114.999s87.5 38 147.5 38c48.667 0 90 -5.66699 124 -17l13 -125l-9 -2c-32.667 45.333 -60.667 77.666 -84 96.999s-47.333 29 -72 29c-20.667 0 -38 -5.83301 -52 -17.5s-21 -27.167 -21 -46.5c0 -16 6.5 -30.667 19.5 -44
s25.667 -23 38 -29s32.833 -14.667 61.5 -26c5.33301 -2 9.33301 -3.66699 12 -5c21.333 -9.33301 38.833 -18.333 52.5 -27s28 -19.667 43 -33s26.333 -29.666 34 -48.999s11.5 -41 11.5 -65c0 -40 -11.5 -72.5 -34.5 -97.5s-53.833 -41.833 -92.5 -50.5
c-16.667 -4 -37.334 -6.66699 -62.001 -8l-21 -34c27.333 -3.33301 49 -12.166 65 -26.499s24 -32.833 24 -55.5c0 -30.667 -14.333 -57.167 -43 -79.5s-69.667 -38.166 -123 -47.499z" />
    <glyph glyph-name="Scaron" unicode="&#x160;" horiz-adv-x="585" 
d="M509 533l-11.0078 -3.00195c-40 66 -77.833 114.833 -113.5 146.5s-72.167 47.5 -109.5 47.5c-30.667 0 -55.667 -8.83301 -75 -26.5s-29 -41.167 -29 -70.5c0 -18 3.5 -34 10.5 -48s20.833 -28.167 41.5 -42.5s35.834 -24.166 45.501 -29.499
s30.834 -15.666 63.501 -30.999c10 -4.66699 17.333 -8.33398 22 -11.001c30.667 -15.333 55.667 -29.333 75 -42s39.833 -29.334 61.5 -50.001s37.834 -44.667 48.501 -72s16 -58 16 -92c0 -76.667 -26 -133.167 -78 -169.5s-118.333 -54.5 -199 -54.5
c-79.333 0 -152 15 -218 45l-26 204l10 3c48.667 -80.667 93.334 -139 134.001 -175s83.334 -54 128.001 -54c38.667 0 68.834 11 90.501 33s32.5 49.667 32.5 83c0 17.333 -3.66699 33.5 -11 48.5s-15 27.333 -23 37s-22.167 20.834 -42.5 33.501s-35 21.5 -44 26.5
s-27.167 14.167 -54.5 27.5c-25.333 12.667 -45.833 23.334 -61.5 32.001s-33.667 20.667 -54 36s-36.166 30.5 -47.499 45.5s-21.166 33.5 -29.499 55.5s-12.5 46 -12.5 72c0 71.333 26.167 124 78.5 158s117.833 51 196.5 51c55.333 0 108 -8 158 -24zM282.992 781.998
l-159 163l8 11l156 -60l155 60l8 -11l-159 -163h-9z" />
    <glyph glyph-name="scaron" unicode="&#x161;" horiz-adv-x="429" 
d="M373 360l-9.00293 -1.99805c-32.667 45.333 -60.667 77.666 -84 96.999s-47.333 29 -72 29c-20.667 0 -38 -5.83301 -52 -17.5s-21 -27.167 -21 -46.5c0 -16 6.5 -30.667 19.5 -44s25.667 -23 38 -29s32.833 -14.667 61.5 -26c5.33301 -2 9.33301 -3.66699 12 -5
c21.333 -9.33301 38.833 -18.333 52.5 -27s28 -19.667 43 -33s26.333 -29.666 34 -48.999s11.5 -41 11.5 -65c0 -53.333 -19.167 -92.833 -57.5 -118.5s-88.166 -38.5 -149.499 -38.5c-60.667 0 -115 10.333 -163 31l-14 140l9 2c34 -52 66.333 -90.833 97 -116.5
s62.334 -38.5 95.001 -38.5c24 0 41.833 6.16699 53.5 18.5s17.5 27.833 17.5 46.5c0 12.667 -2.66699 24 -8 34s-14.666 19.5 -27.999 28.5s-25 16.167 -35 21.5s-25.667 12.666 -47 21.999c-22.667 10.667 -40.5 19.667 -53.5 27s-27.667 18 -44 32s-28.5 30.667 -36.5 50
s-12 41.333 -12 66c0 51.333 19.167 89.666 57.5 114.999s87.5 38 147.5 38c48.667 0 90 -5.66699 124 -17zM65.9971 722.002l8 10l141 -68l140 68l9 -10l-145 -182h-9z" />
    <glyph glyph-name="Tcommaaccent" unicode="&#x162;" horiz-adv-x="742" 
d="M501 0l-260 -0.00390625v2c15.333 37.333 26 70 32 98s9 65 9 111v500l-49 -3c-8 -0.666992 -16.833 -3.66699 -26.5 -9s-20.334 -14.166 -32.001 -26.499s-21.5 -23.166 -29.5 -32.499s-19 -23.666 -33 -42.999s-23.667 -33 -29 -41l-30 -45
c-14.667 -22 -22.667 -34.333 -24 -37l-11 3l44 255h618l44 -255l-11 -3c-2 2.66699 -8.33301 12 -19 28l-22 33.5c-4 6.33301 -11.333 17.333 -22 33s-19 27.334 -25 35.001l-24 30.5c-10 12.667 -18.5 22.5 -25.5 29.5l-23 22
c-8.33301 7.66699 -16.166 13.167 -23.499 16.5s-14 5.33301 -20 6l-48 3v-500c0 -46 2.83301 -82.833 8.5 -110.5s16.167 -60.5 31.5 -98.5v-2zM296 -239.004c15.333 11.333 27.332 24.165 35.999 38.498s13 27.5 13 39.5c0 14.667 -14.333 36.334 -43 65.001v1l90 57
c14 -8 25.5 -18.5 34.5 -31.5s13.5 -26.167 13.5 -39.5c0 -25.333 -14.667 -50.666 -44 -75.999s-61.666 -45 -96.999 -59z" />
    <glyph glyph-name="tcommaaccent" unicode="&#x163;" horiz-adv-x="377" 
d="M201 -15c-42.667 0 -76.332 11.167 -100.999 33.5s-37 57.5 -37 105.5v341h-56v9l206 129h11v-116h119v-22h-119v-337c0 -52.667 24 -79 72 -79c26.667 0 45.667 5.66699 57 17l3 -3c-12.667 -22 -32.334 -40.5 -59.001 -55.5s-58.667 -22.5 -96 -22.5zM112.002 -239
c15.333 11.333 27.332 24.165 35.999 38.498s13 27.5 13 39.5c0 14.667 -14.333 36.334 -43 65.001v1l90 57c14 -8 25.5 -18.5 34.5 -31.5s13.5 -26.167 13.5 -39.5c0 -25.333 -14.667 -50.666 -44 -75.999s-61.666 -45 -96.999 -59z" />
    <glyph glyph-name="Tcaron" unicode="&#x164;" horiz-adv-x="742" 
d="M501 0l-260 -0.00390625v2c15.333 37.333 26 70 32 98s9 65 9 111v500l-49 -3c-8 -0.666992 -16.833 -3.66699 -26.5 -9s-20.334 -14.166 -32.001 -26.499s-21.5 -23.166 -29.5 -32.499s-19 -23.666 -33 -42.999s-23.667 -33 -29 -41l-30 -45
c-14.667 -22 -22.667 -34.333 -24 -37l-11 3l44 255h618l44 -255l-11 -3c-2 2.66699 -8.33301 12 -19 28l-22 33.5c-4 6.33301 -11.333 17.333 -22 33s-19 27.334 -25 35.001l-24 30.5c-10 12.667 -18.5 22.5 -25.5 29.5l-23 22
c-8.33301 7.66699 -16.166 13.167 -23.499 16.5s-14 5.33301 -20 6l-48 3v-500c0 -46 2.83301 -82.833 8.5 -110.5s16.167 -60.5 31.5 -98.5v-2zM367 781.996l-159 163l8 11l156 -60l155 60l8 -11l-159 -163h-9z" />
    <glyph glyph-name="tcaron" unicode="&#x165;" horiz-adv-x="377" 
d="M201 -15c-42.667 0 -76.332 11.167 -100.999 33.5s-37 57.5 -37 105.5v341h-56v9l206 129h11v-116h119v-22h-119v-337c0 -52.667 24 -79 72 -79c26.667 0 45.667 5.66699 57 17l3 -3c-12.667 -22 -32.334 -40.5 -59.001 -55.5s-58.667 -22.5 -96 -22.5zM295.002 775h111
l-109 -203l-14 2z" />
    <glyph glyph-name="Tbar" unicode="&#x166;" horiz-adv-x="742" 
d="M501 0l-260 -0.00390625v2c15.333 37.333 26 70 32 98s9 65 9 111v146h-147v23h147v331l-49 -3c-8 -0.666992 -16.833 -3.66699 -26.5 -9s-20.334 -14.166 -32.001 -26.499s-21.5 -23.166 -29.5 -32.499s-19 -23.666 -33 -42.999s-23.667 -33 -29 -41l-30 -45
c-14.667 -22 -22.667 -34.333 -24 -37l-11 3l44 255h618l44 -255l-11 -3c-2 2.66699 -8.33301 12 -19 28l-22 33.5c-4 6.33301 -11.333 17.333 -22 33s-19 27.334 -25 35.001l-24 30.5c-10 12.667 -18.5 22.5 -25.5 29.5l-23 22
c-8.33301 7.66699 -16.166 13.167 -23.499 16.5s-14 5.33301 -20 6l-48 3v-331h146v-23h-146v-146c0 -46 2.83301 -82.833 8.5 -110.5s16.167 -60.5 31.5 -98.5v-2z" />
    <glyph glyph-name="tbar" unicode="&#x167;" horiz-adv-x="377" 
d="M201 -15c-42.667 0 -76.332 11.167 -100.999 33.5s-37 57.5 -37 105.5v183h-61v21h61v137h-56v9l206 129h11v-116h119v-22h-119v-137h114v-21h-114v-179c0 -52.667 24 -79 72 -79c26.667 0 45.667 5.66699 57 17l3 -3c-12.667 -22 -32.334 -40.5 -59.001 -55.5
s-58.667 -22.5 -96 -22.5z" />
    <glyph glyph-name="Utilde" unicode="&#x168;" horiz-adv-x="734" 
d="M384 -15c-91.333 0 -163.998 23.1689 -217.998 69.502s-81 117.5 -81 213.5v253c0 46.667 -2.83301 83.334 -8.5 110.001s-16.5 59.667 -32.5 99v2h262v-2c-15.333 -34.667 -26 -66.5 -32 -95.5s-9 -66.833 -9 -113.5v-262c0 -158.667 57.333 -238 172 -238
c64 0 110.167 23.167 138.5 69.5s42.5 107.5 42.5 183.5v239c0 48.667 -6 87.667 -18 117s-34 62.666 -66 99.999v2h195l2 -2c-32 -40.667 -54 -75.334 -66 -104.001s-18 -66.334 -18 -113.001v-232c0 -45.333 -3.83301 -84.833 -11.5 -118.5s-20.834 -64.5 -39.501 -92.5
s-45.834 -49.167 -81.501 -63.5s-79.167 -21.5 -130.5 -21.5zM349.002 916.002c20.667 0 48.499 -6.33301 83.499 -19s63.167 -19 84.5 -19c40 0 63.667 16.667 71 50l14 -2c4 -93.333 -29 -140 -99 -140c-20 0 -47.5 6.33301 -82.5 19s-63.5 19 -85.5 19
c-39.333 0 -62.666 -17 -69.999 -51l-14 2c-4 94 28.667 141 98 141z" />
    <glyph glyph-name="utilde" unicode="&#x169;" horiz-adv-x="581" 
d="M349 96c-14 -27.333 -35.166 -52.6689 -63.499 -76.002s-61.833 -35 -100.5 -35c-42.667 0 -75.834 14.333 -99.501 43s-35.5 67.334 -35.5 116.001v227c0 27.333 -3 49 -9 65s-15.667 32 -29 48v3h198v-344c0 -22 5.33301 -40 16 -54s26.667 -21 48 -21
c30 0 54.333 16.333 73 49v255c0 28 -3 50.167 -9 66.5s-15.667 31.833 -29 46.5v2h199v-279c0 -53.333 3.5 -91.166 10.5 -113.499s20.167 -42.833 39.5 -61.5v-2l-206 -45v109zM222.001 693.997c15.333 0 38.665 -5.83301 69.998 -17.5s55 -17.5 71 -17.5
c33.333 0 54.333 15.667 63 47l14 -2c0 -36.667 -7.16699 -68.667 -21.5 -96s-38.166 -41 -71.499 -41c-14 0 -37 5.83301 -69 17.5s-56 17.5 -72 17.5c-33.333 0 -54.333 -15.667 -63 -47l-14 2c0 36 7.33301 67.833 22 95.5s38.334 41.5 71.001 41.5z" />
    <glyph glyph-name="Umacron" unicode="&#x16a;" horiz-adv-x="734" 
d="M384 -15c-91.333 0 -163.998 23.1689 -217.998 69.502s-81 117.5 -81 213.5v253c0 46.667 -2.83301 83.334 -8.5 110.001s-16.5 59.667 -32.5 99v2h262v-2c-15.333 -34.667 -26 -66.5 -32 -95.5s-9 -66.833 -9 -113.5v-262c0 -158.667 57.333 -238 172 -238
c64 0 110.167 23.167 138.5 69.5s42.5 107.5 42.5 183.5v239c0 48.667 -6 87.667 -18 117s-34 62.666 -66 99.999v2h195l2 -2c-32 -40.667 -54 -75.334 -66 -104.001s-18 -66.334 -18 -113.001v-232c0 -45.333 -3.83301 -84.833 -11.5 -118.5s-20.834 -64.5 -39.501 -92.5
s-45.834 -49.167 -81.501 -63.5s-79.167 -21.5 -130.5 -21.5zM240.002 895.002h348v-67h-348v67z" />
    <glyph glyph-name="umacron" unicode="&#x16b;" horiz-adv-x="581" 
d="M349 96c-14 -27.333 -35.166 -52.6689 -63.499 -76.002s-61.833 -35 -100.5 -35c-42.667 0 -75.834 14.333 -99.501 43s-35.5 67.334 -35.5 116.001v227c0 27.333 -3 49 -9 65s-15.667 32 -29 48v3h198v-344c0 -22 5.33301 -40 16 -54s26.667 -21 48 -21
c30 0 54.333 16.333 73 49v255c0 28 -3 50.167 -9 66.5s-15.667 31.833 -29 46.5v2h199v-279c0 -53.333 3.5 -91.166 10.5 -113.499s20.167 -42.833 39.5 -61.5v-2l-206 -45v109zM136.001 647.997h298v-67h-298v67z" />
    <glyph glyph-name="Ubreve" unicode="&#x16c;" horiz-adv-x="734" 
d="M384 -15c-91.333 0 -163.998 23.1689 -217.998 69.502s-81 117.5 -81 213.5v253c0 46.667 -2.83301 83.334 -8.5 110.001s-16.5 59.667 -32.5 99v2h262v-2c-15.333 -34.667 -26 -66.5 -32 -95.5s-9 -66.833 -9 -113.5v-262c0 -158.667 57.333 -238 172 -238
c64 0 110.167 23.167 138.5 69.5s42.5 107.5 42.5 183.5v239c0 48.667 -6 87.667 -18 117s-34 62.666 -66 99.999v2h195l2 -2c-32 -40.667 -54 -75.334 -66 -104.001s-18 -66.334 -18 -113.001v-232c0 -45.333 -3.83301 -84.833 -11.5 -118.5s-20.834 -64.5 -39.501 -92.5
s-45.834 -49.167 -81.501 -63.5s-79.167 -21.5 -130.5 -21.5zM430.002 883.002c68.667 0 113.665 22.668 134.998 68.001h13c-1.33301 -16 -4.66602 -31.833 -9.99902 -47.5s-13.166 -31.834 -23.499 -48.501s-25.333 -30.167 -45 -40.5s-42.834 -15.5 -69.501 -15.5
c-26 0 -49 5.16699 -69 15.5s-35.167 23.833 -45.5 40.5s-18.166 33 -23.499 49s-8.33301 31.667 -9 47h12c18.667 -45.333 63.667 -68 135 -68z" />
    <glyph glyph-name="ubreve" unicode="&#x16d;" horiz-adv-x="581" 
d="M349 96c-14 -27.333 -35.166 -52.6689 -63.499 -76.002s-61.833 -35 -100.5 -35c-42.667 0 -75.834 14.333 -99.501 43s-35.5 67.334 -35.5 116.001v227c0 27.333 -3 49 -9 65s-15.667 32 -29 48v3h198v-344c0 -22 5.33301 -40 16 -54s26.667 -21 48 -21
c30 0 54.333 16.333 73 49v255c0 28 -3 50.167 -9 66.5s-15.667 31.833 -29 46.5v2h199v-279c0 -53.333 3.5 -91.166 10.5 -113.499s20.167 -42.833 39.5 -61.5v-2l-206 -45v109zM285.001 645.997c60.667 0 100.337 21.667 119.004 65h13
c-1.33301 -15.333 -4.33301 -30.333 -9 -45s-11.834 -30 -21.501 -46s-23.334 -29 -41.001 -39s-38.167 -15 -61.5 -15s-43.833 5 -61.5 15s-31 22.833 -40 38.5s-15.833 31.167 -20.5 46.5s-7.33398 30.333 -8.00098 45h13c17.333 -43.333 56.666 -65 117.999 -65z" />
    <glyph glyph-name="Uring" unicode="&#x16e;" horiz-adv-x="734" 
d="M384 -15c-91.333 0 -163.998 23.1689 -217.998 69.502s-81 117.5 -81 213.5v253c0 46.667 -2.83301 83.334 -8.5 110.001s-16.5 59.667 -32.5 99v2h262v-2c-15.333 -34.667 -26 -66.5 -32 -95.5s-9 -66.833 -9 -113.5v-262c0 -158.667 57.333 -238 172 -238
c64 0 110.167 23.167 138.5 69.5s42.5 107.5 42.5 183.5v239c0 48.667 -6 87.667 -18 117s-34 62.666 -66 99.999v2h195l2 -2c-32 -40.667 -54 -75.334 -66 -104.001s-18 -66.334 -18 -113.001v-232c0 -45.333 -3.83301 -84.833 -11.5 -118.5s-20.834 -64.5 -39.501 -92.5
s-45.834 -49.167 -81.501 -63.5s-79.167 -21.5 -130.5 -21.5zM334.002 864.002c0 26 8.83301 47.333 26.5 64s39.834 25 66.501 25c27.333 0 49.666 -8.16699 66.999 -24.5s26 -37.833 26 -64.5c0 -25.333 -9 -46.333 -27 -63s-40 -25 -66 -25s-48 8.33301 -66 25
s-27 37.667 -27 63zM379.002 864.002c0 -21.333 4.33301 -37.833 13 -49.5s20.334 -17.5 35.001 -17.5s26.334 5.83301 35.001 17.5s13 28.167 13 49.5c0 22 -4.33301 39 -13 51s-20.334 18 -35.001 18s-26.334 -6 -35.001 -18s-13 -29 -13 -51z" />
    <glyph glyph-name="uring" unicode="&#x16f;" horiz-adv-x="581" 
d="M349 96c-14 -27.333 -35.166 -52.6689 -63.499 -76.002s-61.833 -35 -100.5 -35c-42.667 0 -75.834 14.333 -99.501 43s-35.5 67.334 -35.5 116.001v227c0 27.333 -3 49 -9 65s-15.667 32 -29 48v3h198v-344c0 -22 5.33301 -40 16 -54s26.667 -21 48 -21
c30 0 54.333 16.333 73 49v255c0 28 -3 50.167 -9 66.5s-15.667 31.833 -29 46.5v2h199v-279c0 -53.333 3.5 -91.166 10.5 -113.499s20.167 -42.833 39.5 -61.5v-2l-206 -45v109zM192.001 651.997c0 26 8.83301 47.501 26.5 64.501s39.834 25.5 66.501 25.5
c27.333 0 49.666 -8.33301 66.999 -25s26 -38.334 26 -65.001c0 -25.333 -9 -46.166 -27 -62.499s-40 -24.5 -66 -24.5s-48 8.16699 -66 24.5s-27 37.166 -27 62.499zM237.001 651.998c0 -21.333 4.33301 -37.833 13 -49.5s20.334 -17.5 35.001 -17.5
s26.334 5.83301 35.001 17.5s13 28.167 13 49.5c0 22 -4.33301 39.167 -13 51.5s-20.334 18.5 -35.001 18.5s-26.334 -6.16699 -35.001 -18.5s-13 -29.5 -13 -51.5z" />
    <glyph glyph-name="Uhungarumlaut" unicode="&#x170;" horiz-adv-x="734" 
d="M384 -15c-91.333 0 -163.998 23.1689 -217.998 69.502s-81 117.5 -81 213.5v253c0 46.667 -2.83301 83.334 -8.5 110.001s-16.5 59.667 -32.5 99v2h262v-2c-15.333 -34.667 -26 -66.5 -32 -95.5s-9 -66.833 -9 -113.5v-262c0 -158.667 57.333 -238 172 -238
c64 0 110.167 23.167 138.5 69.5s42.5 107.5 42.5 183.5v239c0 48.667 -6 87.667 -18 117s-34 62.666 -66 99.999v2h195l2 -2c-32 -40.667 -54 -75.334 -66 -104.001s-18 -66.334 -18 -113.001v-232c0 -45.333 -3.83301 -84.833 -11.5 -118.5s-20.834 -64.5 -39.501 -92.5
s-45.834 -49.167 -81.501 -63.5s-79.167 -21.5 -130.5 -21.5zM599.002 956.002l65 -110l-206 -64l-7 9zM395.002 956.002l65 -110l-205 -64l-7 9z" />
    <glyph glyph-name="uhungarumlaut" unicode="&#x171;" horiz-adv-x="581" 
d="M349 96c-14 -27.333 -35.166 -52.6689 -63.499 -76.002s-61.833 -35 -100.5 -35c-42.667 0 -75.834 14.333 -99.501 43s-35.5 67.334 -35.5 116.001v227c0 27.333 -3 49 -9 65s-15.667 32 -29 48v3h198v-344c0 -22 5.33301 -40 16 -54s26.667 -21 48 -21
c30 0 54.333 16.333 73 49v255c0 28 -3 50.167 -9 66.5s-15.667 31.833 -29 46.5v2h199v-279c0 -53.333 3.5 -91.166 10.5 -113.499s20.167 -42.833 39.5 -61.5v-2l-206 -45v109zM405.001 728.997l94 -93l-173 -99l-10 10zM240.001 728.997l94 -93l-173 -99l-9 10z" />
    <glyph glyph-name="Uogonek" unicode="&#x172;" horiz-adv-x="734" 
d="M407 -248c-29.333 0 -52.667 7.66797 -70 23.001s-26 36.333 -26 63c0 54 42.667 103.667 128 149c-10.667 -1.33301 -20 -2 -28 -2h-27c-91.333 0 -164 23.167 -218 69.5s-81 117.5 -81 213.5v253c0 46.667 -2.83301 83.334 -8.5 110.001s-16.5 59.667 -32.5 99v2h262
v-2c-15.333 -34.667 -26 -66.5 -32 -95.5s-9 -66.833 -9 -113.5v-262c0 -158.667 57.333 -238 172 -238c64 0 110.167 23.167 138.5 69.5s42.5 107.5 42.5 183.5v239c0 48.667 -6 87.667 -18 117s-34 62.666 -66 99.999v2h195l2 -2c-32 -40.667 -54 -75.334 -66 -104.001
s-18 -66.334 -18 -113.001v-232c0 -66 -8.66699 -121.167 -26 -165.5s-47.666 -77.833 -90.999 -100.5c-3.33301 -2.66699 -12.833 -8.16699 -28.5 -16.5s-28.167 -16.166 -37.5 -23.499c-31.333 -24 -47 -54 -47 -90c0 -17.333 4.66699 -30.833 14 -40.5
s22.333 -14.5 39 -14.5c21.333 0 42.666 11 63.999 33l9 -7c-32.667 -69.333 -78 -104 -136 -104z" />
    <glyph glyph-name="uogonek" unicode="&#x173;" horiz-adv-x="581" 
d="M323 -248c-28.667 0 -51.998 7.99512 -69.998 23.9951s-27 37 -27 63c0 54.667 42 103.334 126 146.001v110l-3 1c-14 -27.333 -35.167 -52.666 -63.5 -75.999s-61.833 -35 -100.5 -35c-42.667 0 -75.834 14.333 -99.501 43s-35.5 67.334 -35.5 116.001v227
c0 27.333 -3 49 -9 65s-15.667 32 -29 48v3h198v-344c0 -22 5.33301 -40 16 -54s26.667 -21 48 -21c30 0 54.333 16.333 73 49v255c0 28 -3 50.167 -9 66.5s-15.667 31.833 -29 46.5v2h199v-279c0 -53.333 3.5 -91.166 10.5 -113.499s20.167 -42.833 39.5 -61.5v-2
c-52 -8 -90.333 -16.667 -115 -26c-35.333 -12 -62.833 -28.667 -82.5 -50s-29.5 -44.666 -29.5 -69.999c0 -36.667 18 -55 54 -55c21.333 0 42.666 11 63.999 33l9 -7c-32.667 -69.333 -77.667 -104 -135 -104z" />
    <glyph glyph-name="Wcircumflex" unicode="&#x174;" horiz-adv-x="1065" 
d="M267 -3l-173.999 551c-28 88 -57.667 148.667 -89 182v2h306v-2c-39.333 -45.333 -45 -112 -17 -200l108 -345l120 335l-9 28c-28.667 88.667 -58.334 149.334 -89.001 182.001v2h306v-2c-39.333 -46.667 -45.333 -113.334 -18 -200.001l110 -337l100 315
c34 104.667 20.667 178.667 -40 222v2h180v-2c-38 -36 -71.333 -99 -100 -189l-174 -544h-93l-159 481l-174 -481h-94zM574.001 842l-155 -60l-8 11l159 163h9l159 -163l-9 -11z" />
    <glyph glyph-name="wcircumflex" unicode="&#x175;" horiz-adv-x="742" 
d="M64 335c-25.333 69.333 -50.6699 119.334 -76.0029 150.001v2h249v-2c-9.33301 -12 -14.5 -32 -15.5 -60s3.5 -57.667 13.5 -89l50 -153l68 169c-15.333 41.333 -27.333 70.833 -36 88.5s-19 32.5 -31 44.5v2h245v-2c-8.66699 -12 -13.5 -31.5 -14.5 -58.5
s3.16699 -57.167 12.5 -90.5l43 -138l50 129c10 23.333 15.333 46.5 16 69.5s-1.66602 41.667 -6.99902 56s-11.666 25.166 -18.999 32.499v2h128v-2c-20 -22 -36.667 -43.167 -50 -63.5s-27.666 -49.5 -42.999 -87.5l-133 -341h-38l-112 328l-136 -328h-38z
M375.996 608.001l-141 -68l-9 11l145 181h9l144 -181l-8 -11z" />
    <glyph glyph-name="Ycircumflex" unicode="&#x176;" horiz-adv-x="660" 
d="M190 2c15.333 32 26 59.999 32 83.999s9 55.667 9 95v170l-116 213c-26 48.667 -46.833 84.5 -62.5 107.5s-33.5 42.167 -53.5 57.5v3h318v-3c-16.667 -14 -26.667 -35.833 -30 -65.5s4.66699 -65.5 24 -107.5l91 -167l79 141c44 78.667 35 145.334 -27 200.001v2h208v-2
c-28.667 -22 -53.167 -46.5 -73.5 -73.5s-42.5 -61.833 -66.5 -104.5l-112 -201v-170c0 -39.333 2.83301 -71 8.5 -95s16.167 -52 31.5 -84v-2h-260v2zM373 841.999l-155 -60l-8 11l159 163h9l159 -163l-9 -11z" />
    <glyph glyph-name="ycircumflex" unicode="&#x177;" horiz-adv-x="480" 
d="M19 -93c96.667 -8.66699 160.332 12.999 190.999 64.999l-146 363c-33.333 80.667 -58.666 130.667 -75.999 150v2h245v-2c-10 -12.667 -15.5 -33.167 -16.5 -61.5s4.83301 -59.833 17.5 -94.5l60 -156l66 158c9.33301 22.667 14.166 44.834 14.499 66.501
s-1.83398 39.5 -6.50098 53.5s-10.667 25.333 -18 34v2h128v-2c-19.333 -21.333 -35.666 -42.333 -48.999 -63s-28 -50 -44 -88l-135 -323c-19.333 -46 -37.833 -83.5 -55.5 -112.5s-36.667 -51.5 -57 -67.5s-38.166 -27.333 -53.499 -34s-37 -14 -65 -22v132z
M266.998 607.999l-141 -68l-9 11l145 181h9l144 -181l-8 -11z" />
    <glyph glyph-name="Ydieresis" unicode="&#x178;" horiz-adv-x="660" 
d="M190 2c15.333 32 26 59.999 32 83.999s9 55.667 9 95v170l-116 213c-26 48.667 -46.833 84.5 -62.5 107.5s-33.5 42.167 -53.5 57.5v3h318v-3c-16.667 -14 -26.667 -35.833 -30 -65.5s4.66699 -65.5 24 -107.5l91 -167l79 141c44 78.667 35 145.334 -27 200.001v2h208v-2
c-28.667 -22 -53.167 -46.5 -73.5 -73.5s-42.5 -61.833 -66.5 -104.5l-112 -201v-170c0 -39.333 2.83301 -71 8.5 -95s16.167 -52 31.5 -84v-2h-260v2zM578 867.999c0 -23.333 -8.16699 -42.833 -24.5 -58.5s-36.166 -23.5 -59.499 -23.5s-42.666 7.83301 -57.999 23.5
s-23 35.167 -23 58.5c0 22.667 7.66699 42 23 58s34.666 24 57.999 24s43.166 -8 59.499 -24s24.5 -35.333 24.5 -58zM332 867.999c0 -23.333 -8.16699 -42.833 -24.5 -58.5s-36.166 -23.5 -59.499 -23.5s-42.666 7.83301 -57.999 23.5s-23 35.167 -23 58.5
c0 22.667 7.66699 42 23 58s34.666 24 57.999 24s43.166 -8 59.499 -24s24.5 -35.333 24.5 -58z" />
    <glyph glyph-name="Zacute" unicode="&#x179;" horiz-adv-x="669" 
d="M15 0l0.00195312 8l417 704l-128 -7c-42.667 -1.33301 -86.5 -21.5 -131.5 -60.5s-83.833 -81.167 -116.5 -126.5l-8 3l51 211h547v-8l-415 -704l153 7c43.333 1.33301 88.666 24.333 135.999 69s88.666 93.667 123.999 147l8 -3l-53 -240h-584zM484.002 959l53 -123
l-279 -54l-6 13z" />
    <glyph glyph-name="zacute" unicode="&#x17a;" horiz-adv-x="487" 
d="M15 0l-0.000976562 8l257 463l-76 -4c-10 -0.666992 -20.167 -3.33398 -30.5 -8.00098s-21.666 -12.5 -33.999 -23.5l-30 -27.5c-7.66699 -7.33301 -19.667 -19.833 -36 -37.5l-33.5 -36.5l-7 2l41 151h385v-8l-257 -464l93 4c28 0.666992 54.5 12.834 79.5 36.501
s56.5 62.5 94.5 116.5l7 -2l-40 -170h-413zM318.999 749l89 -96l-223 -119l-9 9z" />
    <glyph glyph-name="Zdotaccent" unicode="&#x17b;" horiz-adv-x="669" 
d="M15 0l0.00195312 8l417 704l-128 -7c-42.667 -1.33301 -86.5 -21.5 -131.5 -60.5s-83.833 -81.167 -116.5 -126.5l-8 3l51 211h547v-8l-415 -704l153 7c43.333 1.33301 88.666 24.333 135.999 69s88.666 93.667 123.999 147l8 -3l-53 -240h-584zM449.002 868
c0 -22.667 -8 -42.001 -24 -58.001s-35 -24 -57 -24c-23.333 0 -42.833 8 -58.5 24s-23.5 35.333 -23.5 58s7.83301 42.334 23.5 59.001s35.167 25 58.5 25c22 0 41 -8.5 57 -25.5s24 -36.5 24 -58.5z" />
    <glyph glyph-name="zdotaccent" unicode="&#x17c;" horiz-adv-x="487" 
d="M15 0l-0.000976562 8l257 463l-76 -4c-10 -0.666992 -20.167 -3.33398 -30.5 -8.00098s-21.666 -12.5 -33.999 -23.5l-30 -27.5c-7.66699 -7.33301 -19.667 -19.833 -36 -37.5l-33.5 -36.5l-7 2l41 151h385v-8l-257 -464l93 4c28 0.666992 54.5 12.834 79.5 36.501
s56.5 62.5 94.5 116.5l7 -2l-40 -170h-413zM342.999 655c0 -23.333 -8.16699 -43 -24.5 -59s-36.166 -24 -59.499 -24c-22.667 0 -41.834 8 -57.501 24s-23.5 35.667 -23.5 59c0 22.667 7.83301 42 23.5 58s34.834 24 57.501 24c23.333 0 43.166 -8 59.499 -24
s24.5 -35.333 24.5 -58z" />
    <glyph glyph-name="Zcaron" unicode="&#x17d;" horiz-adv-x="669" 
d="M15 0l0.00195312 8l417 704l-128 -7c-42.667 -1.33301 -86.5 -21.5 -131.5 -60.5s-83.833 -81.167 -116.5 -126.5l-8 3l51 211h547v-8l-415 -704l153 7c43.333 1.33301 88.666 24.333 135.999 69s88.666 93.667 123.999 147l8 -3l-53 -240h-584zM363.002 782l-159 163
l8 11l156 -60l155 60l8 -11l-159 -163h-9z" />
    <glyph glyph-name="zcaron" unicode="&#x17e;" horiz-adv-x="487" 
d="M15 0l-0.000976562 8l257 463l-76 -4c-10 -0.666992 -20.167 -3.33398 -30.5 -8.00098s-21.666 -12.5 -33.999 -23.5l-30 -27.5c-7.66699 -7.33301 -19.667 -19.833 -36 -37.5l-33.5 -36.5l-7 2l41 151h385v-8l-257 -464l93 4c28 0.666992 54.5 12.834 79.5 36.501
s56.5 62.5 94.5 116.5l7 -2l-40 -170h-413zM111.999 722l8 10l141 -68l140 68l9 -10l-145 -182h-9z" />
    <glyph glyph-name="uni0192" unicode="&#x192;" horiz-adv-x="673" 
d="M46 -202c-28 0 -54.665 3.66895 -79.998 11.002l-9 144l7 2c6 -8.66699 13.833 -21 23.5 -37l24 -38.5c6.33301 -9.66699 13.333 -19.834 21 -30.501s15.167 -18.667 22.5 -24s14.333 -8 21 -8c34 0 66.667 72.667 98 218l71 330h-90l6 24h89l20 92
c18.667 87.333 57.167 156.833 115.5 208.5s123.166 77.5 194.499 77.5c30 0 56.333 -3.33301 79 -10l6 -148l-7 -2l-15.5 27.5c-7 12.333 -12.667 22 -17 29l-16 25.5c-6.33301 10 -11.666 18 -15.999 24s-9.33301 12.167 -15 18.5s-10.834 10.833 -15.501 13.5
s-9.33398 4 -14.001 4c-32 0 -63.667 -66.333 -95 -199l-37 -161h114l-6 -24h-114l-55 -240c-24.667 -106.667 -64.5 -187.834 -119.5 -243.501s-118.5 -83.5 -190.5 -83.5z" />
    <glyph glyph-name="Aringacute" unicode="&#x1fa;" horiz-adv-x="704" 
d="M283 596l-108 -297h212zM187 0h-184.001v2c38.667 36.667 74.334 99 107.001 187l197 546h101l200 -551c28.667 -80 59.667 -140.667 93 -182v-2h-298v2c40.667 53.333 46.667 120 18 200l-26 74h-228l-18 -49c-36.667 -103.333 -24 -178.333 38 -225v-2zM258.999 867
c0 26 8.83301 47.333 26.5 64s39.834 25 66.501 25c27.333 0 49.666 -8.16699 66.999 -24.5s26 -37.833 26 -64.5c0 -25.333 -9 -46.333 -27 -63s-40 -25 -66 -25s-48 8.33301 -66 25s-27 37.667 -27 63zM303.999 867c0 -21.333 4.33301 -37.833 13 -49.5
s20.334 -17.5 35.001 -17.5s26.334 5.83301 35.001 17.5s13 28.167 13 49.5c0 22 -4.33301 39 -13 51s-20.334 18 -35.001 18s-26.334 -6 -35.001 -18s-13 -29 -13 -51zM477.999 1146l53 -123l-279 -54l-6 13z" />
    </font>
</defs>
</svg>
