<svg xmlns="http://www.w3.org/2000/svg" width="175.09" height="25.004" viewBox="0 0 175.09 25.004"><defs><style>.a{fill:none;stroke:#fff;stroke-width:2.954px;}.b{fill:#ff5758;}</style></defs><g transform="translate(-264.906 -278.897)"><path class="a" d="M424.8,488.293V467.079c0-.277.118-.415.355-.415h.987q.384,0,.367.415v9.362q0,.3.349.3h9.6c.224,0,.342-.1.355-.3v-9.362c0-.277.11-.415.331-.415h1c.258,0,.382.138.374.415v21.213q0,.422-.374.422h-1c-.221,0-.331-.14-.331-.422V478.6c0-.2-.118-.307-.355-.318h-9.6a.3.3,0,0,0-.349.318v9.692q.017.422-.367.422h-.987C424.932,488.714,424.814,488.574,424.8,488.293Zm-16.695-20.461v-.783q0-.384.4-.385h12.357c.281,0,.415.129.4.385v.783c0,.256-.135.38-.4.372h-4.976a.3.3,0,0,0-.349.314v19.775q0,.422-.337.422h-1q-.384,0-.367-.422V468.518c0-.2-.116-.306-.348-.314H408.51C408.233,468.2,408.1,468.08,408.107,467.832Zm-9.825.723-3.952,12.724h8.05l-3.965-12.724Zm-8.037,19.738,6.828-21.213a.473.473,0,0,1,.488-.415h1.605q.337,0,.487.415l6.816,21.213c.065.281-.014.422-.234.422h-1.108q-.337,0-.433-.422l-1.859-5.475h-8.995L392,488.293c-.1.281-.251.422-.452.422h-1.058C390.236,488.714,390.152,488.574,390.245,488.293Zm-15.126-19.805v7.983c.013.205.13.307.355.307H381.5a3.419,3.419,0,0,0,2.486-.854,3.236,3.236,0,0,0,.878-2.43v-2.027q0-3.3-3.249-3.3h-6.143A.309.309,0,0,0,375.119,468.488Zm0,10.077v8.326a.309.309,0,0,0,.355.32h6.377q3.268,0,3.249-3.3v-2.358q0-3.268-3.567-3.266h-6.059C375.25,478.283,375.132,478.377,375.119,478.564Zm-1.7,9.728V467.079q0-.415.35-.415h7.989a4.846,4.846,0,0,1,3.531,1.27,4.672,4.672,0,0,1,1.306,3.5v2.094a3.811,3.811,0,0,1-2.966,4,3.118,3.118,0,0,1,2.237,1.173,4.165,4.165,0,0,1,.963,2.846v2.393a4.648,4.648,0,0,1-1.3,3.5,4.833,4.833,0,0,1-3.532,1.276h-8.223Q373.416,488.714,373.417,488.293Zm-16.5,0V467.079c0-.277.118-.415.355-.415h10.576c.28,0,.422.129.422.385v.783c0,.256-.141.38-.422.372h-8.874a.3.3,0,0,0-.348.314v7.887q0,.3.348.3H366.9a.341.341,0,0,1,.385.385v.787a.324.324,0,0,1-.385.368h-7.924a.3.3,0,0,0-.348.318v8.291c0,.2.116.305.348.318h8.874c.28,0,.422.122.422.367v.788c0,.256-.141.385-.422.385H357.276C357.052,488.714,356.933,488.574,356.921,488.293Zm-15.456,0V467.079c0-.277.119-.415.355-.415h.988c.256,0,.379.138.366.415v19.709c0,.2.116.307.35.319h9.192c.28,0,.416.122.4.367v.855c.013.256-.122.385-.4.385h-10.9C341.6,488.714,341.477,488.574,341.465,488.293Zm-17.013-19.805v7.983c.011.205.131.307.355.307h6.027a3.419,3.419,0,0,0,2.486-.854,3.236,3.236,0,0,0,.878-2.43v-2.027q0-3.3-3.249-3.3h-6.142A.308.308,0,0,0,324.452,468.488Zm0,10.077v8.326a.309.309,0,0,0,.355.32h6.378q3.265,0,3.247-3.3v-2.358q0-3.268-3.567-3.266h-6.058C324.583,478.283,324.463,478.377,324.452,478.564Zm-1.7,9.728V467.079q0-.415.348-.415h7.989a4.849,4.849,0,0,1,3.532,1.27,4.671,4.671,0,0,1,1.3,3.5v2.094a3.809,3.809,0,0,1-2.966,4A3.124,3.124,0,0,1,335.2,478.7a4.171,4.171,0,0,1,.963,2.846v2.393a4.651,4.651,0,0,1-1.306,3.5,4.833,4.833,0,0,1-3.531,1.276H323.1Q322.75,488.714,322.75,488.293Zm-17.014-19.805v7.983a.3.3,0,0,0,.349.307h6.029a3.437,3.437,0,0,0,2.49-.854,3.236,3.236,0,0,0,.878-2.43v-2.027q0-3.3-3.249-3.3h-6.148A.306.306,0,0,0,305.735,468.488Zm0,10.077v8.326a.307.307,0,0,0,.349.32h6.384q3.26,0,3.249-3.3v-2.358q0-3.268-3.567-3.266h-6.065Q305.755,478.283,305.735,478.564Zm-1.709,9.728V467.079q0-.415.348-.415h7.991a4.849,4.849,0,0,1,3.531,1.27,4.673,4.673,0,0,1,1.306,3.5v2.094a3.81,3.81,0,0,1-2.961,4,3.114,3.114,0,0,1,2.232,1.173,4.171,4.171,0,0,1,.963,2.846v2.393a4.65,4.65,0,0,1-1.3,3.5,4.834,4.834,0,0,1-3.532,1.276h-8.225Q304.027,488.714,304.027,488.293Zm-19.089-4.452V467.079q0-.415.337-.415h1q.384,0,.367.415v16.7a3.544,3.544,0,0,0,.831,2.5,3.1,3.1,0,0,0,2.4.9h3.532a3.175,3.175,0,0,0,2.412-.879,3.515,3.515,0,0,0,.835-2.52v-16.7c0-.277.129-.415.385-.415H298a.341.341,0,0,1,.385.385v16.792a4.855,4.855,0,0,1-1.289,3.567,4.729,4.729,0,0,1-3.518,1.306h-3.833a4.73,4.73,0,0,1-3.519-1.306A4.861,4.861,0,0,1,284.938,483.841Zm-16.846-15.353v7.983c.013.205.13.307.355.307h6.029a3.415,3.415,0,0,0,2.484-.854,3.236,3.236,0,0,0,.878-2.43v-2.027q0-3.3-3.248-3.3h-6.143A.309.309,0,0,0,268.092,468.488Zm0,10.077v8.326a.309.309,0,0,0,.355.32h6.377q3.268,0,3.249-3.3v-2.358q0-3.268-3.567-3.266h-6.059C268.222,478.283,268.1,478.377,268.092,478.564Zm-1.709,9.728V467.079c0-.277.119-.415.355-.415h7.984a4.869,4.869,0,0,1,3.537,1.27,4.672,4.672,0,0,1,1.306,3.5v2.094a3.811,3.811,0,0,1-2.966,4,3.118,3.118,0,0,1,2.237,1.173,4.173,4.173,0,0,1,.963,2.846v2.393a4.648,4.648,0,0,1-1.3,3.5,4.856,4.856,0,0,1-3.539,1.276h-8.218C266.5,488.714,266.383,488.574,266.383,488.293Z" transform="translate(0 -186.29)"/><path class="b" d="M424.8,488.293V467.079c0-.277.118-.415.355-.415h.987q.384,0,.367.415v9.362q0,.3.349.3h9.6c.224,0,.342-.1.355-.3v-9.362c0-.277.11-.415.331-.415h1c.258,0,.382.138.374.415v21.213q0,.422-.374.422h-1c-.221,0-.331-.14-.331-.422V478.6c0-.2-.118-.307-.355-.318h-9.6a.3.3,0,0,0-.349.318v9.692q.017.422-.367.422h-.987C424.932,488.714,424.814,488.574,424.8,488.293Zm-16.695-20.461v-.783q0-.384.4-.385h12.357c.281,0,.415.129.4.385v.783c0,.256-.135.38-.4.372h-4.976a.3.3,0,0,0-.349.314v19.775q0,.422-.337.422h-1q-.384,0-.367-.422V468.518c0-.2-.116-.306-.348-.314H408.51C408.233,468.2,408.1,468.08,408.107,467.832Zm-9.825.723-3.952,12.724h8.05l-3.965-12.724Zm-8.037,19.738,6.828-21.213a.473.473,0,0,1,.488-.415h1.605q.337,0,.487.415l6.816,21.213c.065.281-.014.422-.234.422h-1.108q-.337,0-.433-.422l-1.859-5.475h-8.995L392,488.293c-.1.281-.251.422-.452.422h-1.058C390.236,488.714,390.152,488.574,390.245,488.293Zm-15.126-19.805v7.983c.013.205.13.307.355.307H381.5a3.419,3.419,0,0,0,2.486-.854,3.236,3.236,0,0,0,.878-2.43v-2.027q0-3.3-3.249-3.3h-6.143A.309.309,0,0,0,375.119,468.488Zm0,10.077v8.326a.309.309,0,0,0,.355.32h6.377q3.268,0,3.249-3.3v-2.358q0-3.268-3.567-3.266h-6.059C375.25,478.283,375.132,478.377,375.119,478.564Zm-1.7,9.728V467.079q0-.415.35-.415h7.989a4.846,4.846,0,0,1,3.531,1.27,4.672,4.672,0,0,1,1.306,3.5v2.094a3.811,3.811,0,0,1-2.966,4,3.118,3.118,0,0,1,2.237,1.173,4.165,4.165,0,0,1,.963,2.846v2.393a4.648,4.648,0,0,1-1.3,3.5,4.833,4.833,0,0,1-3.532,1.276h-8.223Q373.416,488.714,373.417,488.293Zm-16.5,0V467.079c0-.277.118-.415.355-.415h10.576c.28,0,.422.129.422.385v.783c0,.256-.141.38-.422.372h-8.874a.3.3,0,0,0-.348.314v7.887q0,.3.348.3H366.9a.341.341,0,0,1,.385.385v.787a.324.324,0,0,1-.385.368h-7.924a.3.3,0,0,0-.348.318v8.291c0,.2.116.305.348.318h8.874c.28,0,.422.122.422.367v.788c0,.256-.141.385-.422.385H357.276C357.052,488.714,356.933,488.574,356.921,488.293Zm-15.456,0V467.079c0-.277.119-.415.355-.415h.988c.256,0,.379.138.366.415v19.709c0,.2.116.307.35.319h9.192c.28,0,.416.122.4.367v.855c.013.256-.122.385-.4.385h-10.9C341.6,488.714,341.477,488.574,341.465,488.293Zm-17.013-19.805v7.983c.011.205.131.307.355.307h6.027a3.419,3.419,0,0,0,2.486-.854,3.236,3.236,0,0,0,.878-2.43v-2.027q0-3.3-3.249-3.3h-6.142A.308.308,0,0,0,324.452,468.488Zm0,10.077v8.326a.309.309,0,0,0,.355.32h6.378q3.265,0,3.247-3.3v-2.358q0-3.268-3.567-3.266h-6.058C324.583,478.283,324.463,478.377,324.452,478.564Zm-1.7,9.728V467.079q0-.415.348-.415h7.989a4.849,4.849,0,0,1,3.532,1.27,4.671,4.671,0,0,1,1.3,3.5v2.094a3.809,3.809,0,0,1-2.966,4A3.124,3.124,0,0,1,335.2,478.7a4.171,4.171,0,0,1,.963,2.846v2.393a4.651,4.651,0,0,1-1.306,3.5,4.833,4.833,0,0,1-3.531,1.276H323.1Q322.75,488.714,322.75,488.293Zm-17.014-19.805v7.983a.3.3,0,0,0,.349.307h6.029a3.437,3.437,0,0,0,2.49-.854,3.236,3.236,0,0,0,.878-2.43v-2.027q0-3.3-3.249-3.3h-6.148A.306.306,0,0,0,305.735,468.488Zm0,10.077v8.326a.307.307,0,0,0,.349.32h6.384q3.26,0,3.249-3.3v-2.358q0-3.268-3.567-3.266h-6.065Q305.755,478.283,305.735,478.564Zm-1.709,9.728V467.079q0-.415.348-.415h7.991a4.849,4.849,0,0,1,3.531,1.27,4.673,4.673,0,0,1,1.306,3.5v2.094a3.81,3.81,0,0,1-2.961,4,3.114,3.114,0,0,1,2.232,1.173,4.171,4.171,0,0,1,.963,2.846v2.393a4.65,4.65,0,0,1-1.3,3.5,4.834,4.834,0,0,1-3.532,1.276h-8.225Q304.027,488.714,304.027,488.293Zm-19.089-4.452V467.079q0-.415.337-.415h1q.384,0,.367.415v16.7a3.544,3.544,0,0,0,.831,2.5,3.1,3.1,0,0,0,2.4.9h3.532a3.175,3.175,0,0,0,2.412-.879,3.515,3.515,0,0,0,.835-2.52v-16.7c0-.277.129-.415.385-.415H298a.341.341,0,0,1,.385.385v16.792a4.855,4.855,0,0,1-1.289,3.567,4.729,4.729,0,0,1-3.518,1.306h-3.833a4.73,4.73,0,0,1-3.519-1.306A4.861,4.861,0,0,1,284.938,483.841Zm-16.846-15.353v7.983c.013.205.13.307.355.307h6.029a3.415,3.415,0,0,0,2.484-.854,3.236,3.236,0,0,0,.878-2.43v-2.027q0-3.3-3.248-3.3h-6.143A.309.309,0,0,0,268.092,468.488Zm0,10.077v8.326a.309.309,0,0,0,.355.32h6.377q3.268,0,3.249-3.3v-2.358q0-3.268-3.567-3.266h-6.059C268.222,478.283,268.1,478.377,268.092,478.564Zm-1.709,9.728V467.079c0-.277.119-.415.355-.415h7.984a4.869,4.869,0,0,1,3.537,1.27,4.672,4.672,0,0,1,1.306,3.5v2.094a3.811,3.811,0,0,1-2.966,4,3.118,3.118,0,0,1,2.237,1.173,4.173,4.173,0,0,1,.963,2.846v2.393a4.648,4.648,0,0,1-1.3,3.5,4.856,4.856,0,0,1-3.539,1.276h-8.218C266.5,488.714,266.383,488.574,266.383,488.293Z" transform="translate(0 -186.29)"/></g></svg>