<svg xmlns="http://www.w3.org/2000/svg" width="94.897" height="82.388" viewBox="0 0 94.897 82.388">
  <g id="Group_800" data-name="Group 800" transform="translate(-100.525 -331)">
    <path id="Path_1" data-name="Path 1" d="M352.844,478.468V466.891c0-.151.064-.227.194-.227h.538q.21,0,.2.227V472q0,.164.19.164H359.2c.122,0,.187-.055.194-.164v-5.11c0-.151.06-.227.181-.227h.548c.141,0,.208.076.2.227v11.578c0,.154-.068.23-.2.23h-.548c-.121,0-.181-.076-.181-.23v-5.289c0-.109-.064-.168-.194-.174h-5.237a.166.166,0,0,0-.19.174v5.289q.009.23-.2.23h-.538C352.915,478.7,352.851,478.622,352.844,478.468ZM343.732,467.3v-.427q0-.21.22-.21H350.7c.154,0,.227.07.221.21v.427c0,.14-.074.208-.221.2h-2.716a.167.167,0,0,0-.19.171v10.793q0,.23-.184.23h-.548q-.209,0-.2-.23V467.676c0-.109-.063-.167-.19-.171h-2.716C343.8,467.5,343.728,467.437,343.732,467.3Zm-5.362.394-2.157,6.945h4.393l-2.164-6.945Zm-4.386,10.773,3.726-11.578a.258.258,0,0,1,.267-.227h.876q.184,0,.266.227l3.72,11.578c.036.154-.008.23-.128.23h-.6q-.184,0-.236-.23l-1.014-2.988h-4.909l-1,2.988c-.055.154-.137.23-.247.23h-.578C333.978,478.7,333.933,478.622,333.984,478.468Zm-8.255-10.809v4.357c.007.112.071.168.194.168h3.29a1.866,1.866,0,0,0,1.357-.466,1.766,1.766,0,0,0,.479-1.326v-1.106a1.579,1.579,0,0,0-1.773-1.8h-3.353A.168.168,0,0,0,325.728,467.659Zm0,5.5V477.7a.169.169,0,0,0,.194.174H329.4a1.575,1.575,0,0,0,1.773-1.8v-1.287q0-1.783-1.947-1.783h-3.307C325.8,473.005,325.735,473.056,325.728,473.159Zm-.929,5.31V466.891q0-.227.191-.227h4.36a2.645,2.645,0,0,1,1.927.693,2.55,2.55,0,0,1,.713,1.911v1.143a2.08,2.08,0,0,1-1.619,2.183,1.7,1.7,0,0,1,1.221.64,2.273,2.273,0,0,1,.525,1.554v1.306a2.537,2.537,0,0,1-.712,1.908,2.638,2.638,0,0,1-1.928.7H324.99Q324.8,478.7,324.8,478.468Zm-9,0V466.891c0-.151.064-.227.194-.227h5.772c.153,0,.23.07.23.21v.427c0,.14-.077.208-.23.2h-4.843a.165.165,0,0,0-.19.171v4.3q0,.164.19.164h4.325a.186.186,0,0,1,.21.21v.43a.177.177,0,0,1-.21.2h-4.325a.166.166,0,0,0-.19.174v4.525c0,.11.063.167.19.174h4.843c.153,0,.23.067.23.2v.43c0,.14-.077.21-.23.21H315.99C315.868,478.7,315.8,478.622,315.8,478.468Zm-8.436,0V466.891c0-.151.065-.227.194-.227h.539c.14,0,.207.076.2.227v10.757c0,.109.064.168.191.174H313.5c.153,0,.227.067.22.2v.466c.007.14-.067.21-.22.21h-5.947C307.432,478.7,307.368,478.622,307.361,478.468Zm-9.285-10.809v4.357c.006.112.071.168.194.168h3.29a1.866,1.866,0,0,0,1.357-.466,1.766,1.766,0,0,0,.479-1.326v-1.106a1.579,1.579,0,0,0-1.773-1.8h-3.352A.168.168,0,0,0,298.076,467.659Zm0,5.5V477.7a.169.169,0,0,0,.194.174h3.481a1.575,1.575,0,0,0,1.772-1.8v-1.287q0-1.783-1.947-1.783h-3.306C298.147,473.005,298.082,473.056,298.076,473.159Zm-.929,5.31V466.891q0-.227.19-.227h4.36a2.647,2.647,0,0,1,1.928.693,2.55,2.55,0,0,1,.712,1.911v1.143a2.079,2.079,0,0,1-1.619,2.183,1.705,1.705,0,0,1,1.222.64,2.277,2.277,0,0,1,.526,1.554v1.306a2.538,2.538,0,0,1-.713,1.908,2.638,2.638,0,0,1-1.927.7h-4.489Q297.146,478.7,297.146,478.468Zm-9.286-10.809v4.357a.165.165,0,0,0,.19.168h3.29a1.876,1.876,0,0,0,1.359-.466,1.766,1.766,0,0,0,.479-1.326v-1.106a1.579,1.579,0,0,0-1.773-1.8h-3.355A.167.167,0,0,0,287.86,467.659Zm0,5.5V477.7a.167.167,0,0,0,.19.174h3.484a1.577,1.577,0,0,0,1.773-1.8v-1.287q0-1.783-1.947-1.783h-3.31Q287.871,473.005,287.86,473.159Zm-.933,5.31V466.891q0-.227.19-.227h4.361a2.646,2.646,0,0,1,1.927.693,2.551,2.551,0,0,1,.713,1.911v1.143a2.08,2.08,0,0,1-1.616,2.183,1.7,1.7,0,0,1,1.218.64,2.276,2.276,0,0,1,.526,1.554v1.306a2.538,2.538,0,0,1-.712,1.908,2.638,2.638,0,0,1-1.928.7h-4.489Q286.928,478.7,286.928,478.468Zm-10.418-2.43v-9.148q0-.227.184-.227h.548q.209,0,.2.227V476a1.934,1.934,0,0,0,.453,1.366,1.692,1.692,0,0,0,1.31.489h1.928a1.732,1.732,0,0,0,1.317-.48,1.918,1.918,0,0,0,.456-1.375v-9.112c0-.151.071-.227.21-.227h.523a.186.186,0,0,1,.21.21v9.164a2.65,2.65,0,0,1-.7,1.947,2.581,2.581,0,0,1-1.92.713h-2.092a2.582,2.582,0,0,1-1.921-.713A2.653,2.653,0,0,1,276.51,476.039Zm-9.194-8.379v4.357c.007.112.071.168.194.168h3.29a1.864,1.864,0,0,0,1.356-.466,1.766,1.766,0,0,0,.479-1.326v-1.106a1.578,1.578,0,0,0-1.772-1.8h-3.353A.168.168,0,0,0,267.316,467.659Zm0,5.5V477.7a.169.169,0,0,0,.194.174h3.481a1.575,1.575,0,0,0,1.773-1.8v-1.287q0-1.783-1.947-1.783h-3.307C267.387,473.005,267.323,473.056,267.316,473.159Zm-.933,5.31V466.891c0-.151.065-.227.194-.227h4.358a2.658,2.658,0,0,1,1.931.693,2.55,2.55,0,0,1,.713,1.911v1.143a2.08,2.08,0,0,1-1.619,2.183,1.7,1.7,0,0,1,1.221.64,2.278,2.278,0,0,1,.525,1.554v1.306a2.537,2.537,0,0,1-.712,1.908,2.651,2.651,0,0,1-1.931.7h-4.485C266.448,478.7,266.383,478.622,266.383,478.468Z" transform="translate(-165.383 -65.785)" fill="none" stroke="#fff" stroke-width="0.95"/>
    <path id="Path_2" data-name="Path 2" d="M352.844,478.468V466.891c0-.151.064-.227.194-.227h.538q.21,0,.2.227V472q0,.164.19.164H359.2c.122,0,.187-.055.194-.164v-5.11c0-.151.06-.227.181-.227h.548c.141,0,.208.076.2.227v11.578c0,.154-.068.23-.2.23h-.548c-.121,0-.181-.076-.181-.23v-5.289c0-.109-.064-.168-.194-.174h-5.237a.166.166,0,0,0-.19.174v5.289q.009.23-.2.23h-.538C352.915,478.7,352.851,478.622,352.844,478.468ZM343.732,467.3v-.427q0-.21.22-.21H350.7c.154,0,.227.07.221.21v.427c0,.14-.074.208-.221.2h-2.716a.167.167,0,0,0-.19.171v10.793q0,.23-.184.23h-.548q-.209,0-.2-.23V467.676c0-.109-.063-.167-.19-.171h-2.716C343.8,467.5,343.728,467.437,343.732,467.3Zm-5.362.394-2.157,6.945h4.393l-2.164-6.945Zm-4.386,10.773,3.726-11.578a.258.258,0,0,1,.267-.227h.876q.184,0,.266.227l3.72,11.578c.036.154-.008.23-.128.23h-.6q-.184,0-.236-.23l-1.014-2.988h-4.909l-1,2.988c-.055.154-.137.23-.247.23h-.578C333.978,478.7,333.933,478.622,333.984,478.468Zm-8.255-10.809v4.357c.007.112.071.168.194.168h3.29a1.866,1.866,0,0,0,1.357-.466,1.766,1.766,0,0,0,.479-1.326v-1.106a1.579,1.579,0,0,0-1.773-1.8h-3.353A.168.168,0,0,0,325.728,467.659Zm0,5.5V477.7a.169.169,0,0,0,.194.174H329.4a1.575,1.575,0,0,0,1.773-1.8v-1.287q0-1.783-1.947-1.783h-3.307C325.8,473.005,325.735,473.056,325.728,473.159Zm-.929,5.31V466.891q0-.227.191-.227h4.36a2.645,2.645,0,0,1,1.927.693,2.55,2.55,0,0,1,.713,1.911v1.143a2.08,2.08,0,0,1-1.619,2.183,1.7,1.7,0,0,1,1.221.64,2.273,2.273,0,0,1,.525,1.554v1.306a2.537,2.537,0,0,1-.712,1.908,2.638,2.638,0,0,1-1.928.7H324.99Q324.8,478.7,324.8,478.468Zm-9,0V466.891c0-.151.064-.227.194-.227h5.772c.153,0,.23.07.23.21v.427c0,.14-.077.208-.23.2h-4.843a.165.165,0,0,0-.19.171v4.3q0,.164.19.164h4.325a.186.186,0,0,1,.21.21v.43a.177.177,0,0,1-.21.2h-4.325a.166.166,0,0,0-.19.174v4.525c0,.11.063.167.19.174h4.843c.153,0,.23.067.23.2v.43c0,.14-.077.21-.23.21H315.99C315.868,478.7,315.8,478.622,315.8,478.468Zm-8.436,0V466.891c0-.151.065-.227.194-.227h.539c.14,0,.207.076.2.227v10.757c0,.109.064.168.191.174H313.5c.153,0,.227.067.22.2v.466c.007.14-.067.21-.22.21h-5.947C307.432,478.7,307.368,478.622,307.361,478.468Zm-9.285-10.809v4.357c.006.112.071.168.194.168h3.29a1.866,1.866,0,0,0,1.357-.466,1.766,1.766,0,0,0,.479-1.326v-1.106a1.579,1.579,0,0,0-1.773-1.8h-3.352A.168.168,0,0,0,298.076,467.659Zm0,5.5V477.7a.169.169,0,0,0,.194.174h3.481a1.575,1.575,0,0,0,1.772-1.8v-1.287q0-1.783-1.947-1.783h-3.306C298.147,473.005,298.082,473.056,298.076,473.159Zm-.929,5.31V466.891q0-.227.19-.227h4.36a2.647,2.647,0,0,1,1.928.693,2.55,2.55,0,0,1,.712,1.911v1.143a2.079,2.079,0,0,1-1.619,2.183,1.705,1.705,0,0,1,1.222.64,2.277,2.277,0,0,1,.526,1.554v1.306a2.538,2.538,0,0,1-.713,1.908,2.638,2.638,0,0,1-1.927.7h-4.489Q297.146,478.7,297.146,478.468Zm-9.286-10.809v4.357a.165.165,0,0,0,.19.168h3.29a1.876,1.876,0,0,0,1.359-.466,1.766,1.766,0,0,0,.479-1.326v-1.106a1.579,1.579,0,0,0-1.773-1.8h-3.355A.167.167,0,0,0,287.86,467.659Zm0,5.5V477.7a.167.167,0,0,0,.19.174h3.484a1.577,1.577,0,0,0,1.773-1.8v-1.287q0-1.783-1.947-1.783h-3.31Q287.871,473.005,287.86,473.159Zm-.933,5.31V466.891q0-.227.19-.227h4.361a2.646,2.646,0,0,1,1.927.693,2.551,2.551,0,0,1,.713,1.911v1.143a2.08,2.08,0,0,1-1.616,2.183,1.7,1.7,0,0,1,1.218.64,2.276,2.276,0,0,1,.526,1.554v1.306a2.538,2.538,0,0,1-.712,1.908,2.638,2.638,0,0,1-1.928.7h-4.489Q286.928,478.7,286.928,478.468Zm-10.418-2.43v-9.148q0-.227.184-.227h.548q.209,0,.2.227V476a1.934,1.934,0,0,0,.453,1.366,1.692,1.692,0,0,0,1.31.489h1.928a1.732,1.732,0,0,0,1.317-.48,1.918,1.918,0,0,0,.456-1.375v-9.112c0-.151.071-.227.21-.227h.523a.186.186,0,0,1,.21.21v9.164a2.65,2.65,0,0,1-.7,1.947,2.581,2.581,0,0,1-1.92.713h-2.092a2.582,2.582,0,0,1-1.921-.713A2.653,2.653,0,0,1,276.51,476.039Zm-9.194-8.379v4.357c.007.112.071.168.194.168h3.29a1.864,1.864,0,0,0,1.356-.466,1.766,1.766,0,0,0,.479-1.326v-1.106a1.578,1.578,0,0,0-1.772-1.8h-3.353A.168.168,0,0,0,267.316,467.659Zm0,5.5V477.7a.169.169,0,0,0,.194.174h3.481a1.575,1.575,0,0,0,1.773-1.8v-1.287q0-1.783-1.947-1.783h-3.307C267.387,473.005,267.323,473.056,267.316,473.159Zm-.933,5.31V466.891c0-.151.065-.227.194-.227h4.358a2.658,2.658,0,0,1,1.931.693,2.55,2.55,0,0,1,.713,1.911v1.143a2.08,2.08,0,0,1-1.619,2.183,1.7,1.7,0,0,1,1.221.64,2.278,2.278,0,0,1,.525,1.554v1.306a2.537,2.537,0,0,1-.712,1.908,2.651,2.651,0,0,1-1.931.7h-4.485C266.448,478.7,266.383,478.622,266.383,478.468Z" transform="translate(-165.383 -65.785)" fill="#ff5758"/>
    <g id="Group_799" data-name="Group 799" transform="translate(115.136 331)">
      <path id="Path_3" data-name="Path 3" d="M489.275,204.828l-1.783-.3,1.783-.3.3-1.777.3,1.779,1.772.3-1.772.3-.3,1.775Zm11.056,5.473-.449-2.659-2.67-.451,2.67-.452.449-2.66.45,2.663,2.653.448-2.653.448Zm-4.755-5.243.927-5.492,5.471-.924-5.471-.923-.927-5.492-.926,5.485-5.5.93,5.5.93Z" transform="translate(-452.473 -183.359)" fill="#fff"/>
      <path id="Path_4" data-name="Path 4" d="M379.173,245.324l.974.069V229.038a4.543,4.543,0,1,0-9.085,0v-2.325a4.793,4.793,0,0,0-4.876-4.563h-.024a4.381,4.381,0,0,0-4.4,4.563v-2.327a4.648,4.648,0,0,0-9.3,0V210.81a4.661,4.661,0,0,0-4.782-4.505h-.021a4.412,4.412,0,0,0-4.492,4.505v22.7l-5.193-4.622a4.8,4.8,0,0,0-6.5,7.05A71.24,71.24,0,0,1,341.9,248.744a6.935,6.935,0,0,0,2.235,4.785c.016.011-.118.027.093.036v3.088a1.535,1.535,0,0,0,1.477,1.623H349.4a1.635,1.635,0,0,0,1.594-1.623v-.7h20.7v.7a1.579,1.579,0,0,0,1.532,1.623h3.689a1.777,1.777,0,0,0,1.751-1.623v-3.01a7.079,7.079,0,0,0,2.168-5.2,3.51,3.51,0,0,0-1.664-3.123m-27.888-10.131c4.029-2.65,16.029-2.656,20.051,0,.787.514,1.793,2.806,2.715,5.13H348.572c.92-2.324,1.926-4.611,2.713-5.125m.775,15.524a5.018,5.018,0,0,1-4.785,0,3.175,3.175,0,0,1,0-4.028,4.781,4.781,0,0,1,2.4-.586c.37,0,.726.132,1.063.132h.775c.183,0,.351.275.5.447.016.01.034.006.05.016a3.16,3.16,0,0,1,0,4.021m23.376,0a5.017,5.017,0,0,1-4.785,0,3.178,3.178,0,0,1,0-4.028,5.022,5.022,0,0,1,4.787,0,3.174,3.174,0,0,1,0,4.031" transform="translate(-329.969 -194.307)" fill="#fcdc5c"/>
      <path id="Path_5" data-name="Path 5" d="M425.424,192.71a1.162,1.162,0,0,1-1.069-1.614,6.96,6.96,0,0,0-3.2-8.766,1.162,1.162,0,0,1,1.057-2.07A9.208,9.208,0,0,1,426.495,192a1.163,1.163,0,0,1-1.071.709" transform="translate(-400.387 -173.952)" fill="#fcdc5c"/>
      <path id="Path_6" data-name="Path 6" d="M369.986,191.62a1.163,1.163,0,0,1-1.071-.709,9.247,9.247,0,0,1,5.08-12.1,1.161,1.161,0,1,1,.854,2.16,6.925,6.925,0,0,0-3.793,9.033,1.162,1.162,0,0,1-1.07,1.614" transform="translate(-359.702 -172.862)" fill="#fcdc5c"/>
      <path id="Path_7" data-name="Path 7" d="M453.6,213.18a1.162,1.162,0,0,1-.928-1.859,12.522,12.522,0,0,0,2.232-9.875,1.162,1.162,0,0,1,2.277-.465,14.877,14.877,0,0,1-2.65,11.734,1.158,1.158,0,0,1-.93.464" transform="translate(-425.214 -189.444)" fill="#fcdc5c"/>
      <path id="Path_8" data-name="Path 8" d="M387.23,159.181a1.161,1.161,0,0,1-.883-.406,12.546,12.546,0,0,0-16.68-1.738,1.162,1.162,0,1,1-1.372-1.875,14.908,14.908,0,0,1,19.817,2.1,1.163,1.163,0,0,1-.882,1.917" transform="translate(-359.405 -152.337)" fill="#fcdc5c"/>
      <path id="Path_9" data-name="Path 9" d="M348.912,205.068a1.159,1.159,0,0,1-.846-.365c-4.42-4.687-5.678-11.3-3.13-16.454a1.162,1.162,0,0,1,2.083,1.03c-2.12,4.288-1.02,9.846,2.737,13.829a1.162,1.162,0,0,1-.845,1.959" transform="translate(-340.594 -179.763)" fill="#fcdc5c"/>
    </g>
  </g>
</svg>
